<svg xmlns="http://www.w3.org/2000/svg" xmlns:xlink="http://www.w3.org/1999/xlink" width="311" zoomAndPan="magnify" viewBox="0 0 233.25 233.249995" height="311" preserveAspectRatio="xMidYMid meet" version="1.0"><defs><clipPath id="id1"><path d="M 0 0 L 232.503906 0 L 232.503906 232.503906 L 0 232.503906 Z M 0 0 " clip-rule="nonzero"/></clipPath><clipPath id="id2"><path d="M 40 30 L 191 30 L 191 232.503906 L 40 232.503906 Z M 40 30 " clip-rule="nonzero"/></clipPath></defs><g clip-path="url(#id1)"><path fill="#ffffff" d="M 0 0 L 233.25 0 L 233.25 2158.308594 L 0 2158.308594 Z M 0 0 " fill-opacity="1" fill-rule="nonzero"/><path fill="#ffe300" d="M 0 0 L 232.503906 0 L 232.503906 232.503906 L 0 232.503906 Z M 0 0 " fill-opacity="1" fill-rule="nonzero"/><path fill="#ffffff" d="M 0 0 L 232.503906 0 L 232.503906 232.503906 L 0 232.503906 Z M 0 0 " fill-opacity="1" fill-rule="nonzero"/><path fill="#ffe300" d="M 0 0 L 232.503906 0 L 232.503906 232.503906 L 0 232.503906 Z M 0 0 " fill-opacity="1" fill-rule="nonzero"/></g><g clip-path="url(#id2)"><path fill="#000000" d="M 110.015625 186.054688 C 122.78125 191.929688 128.835938 192.769531 142.253906 190.066406 L 129.582031 199.113281 L 123.804688 233.253906 L 122.222656 198.179688 Z M 42.378906 105.371094 C 39.675781 109.566406 39.117188 112.554688 42.003906 116.75 L 86.632812 180.832031 L 77.875 239.503906 L 158.371094 239.503906 L 158.371094 189.414062 L 180.542969 144.546875 C 183.433594 138.765625 183.992188 135.03125 183.992188 122.253906 L 157.4375 149.769531 L 134.984375 138.203125 L 128.183594 174.488281 C 121.011719 141.003906 105.171875 120.574219 80.296875 110.035156 L 87.378906 96.417969 C 116.074219 111.808594 126.695312 85.503906 122.128906 83.359375 L 77.410156 61.902344 C 73.683594 60.132812 71.445312 60.226562 69.164062 63.863281 Z M 175.886719 92.683594 L 144.859375 126.917969 C 142.90625 129.0625 155.667969 142.121094 157.625 140.441406 L 190.328125 111.0625 C 193.121094 108.542969 178.214844 90.074219 175.886719 92.683594 Z M 123.898438 107.703125 C 122.222656 109.941406 140.203125 125.796875 141.785156 124.027344 L 175.046875 87.089844 C 178.496094 83.265625 156.320312 63.394531 154.039062 66.519531 Z M 125.203125 44.648438 L 108.992188 71.882812 L 123.621094 79.53125 C 127.347656 81.492188 128.464844 86.996094 125.015625 99.496094 L 151.101562 61.53125 C 153.804688 57.425781 127.53125 40.730469 125.203125 44.648438 Z M 94.738281 31.402344 L 79.925781 58.171875 L 104.800781 69.925781 L 120.171875 44.460938 C 122.6875 40.261719 97.066406 27.203125 94.738281 31.402344 Z M 94.738281 31.402344 " fill-opacity="1" fill-rule="nonzero"/></g></svg>