<svg xmlns="http://www.w3.org/2000/svg" xmlns:xlink="http://www.w3.org/1999/xlink" width="311" zoomAndPan="magnify" viewBox="0 0 233.25 233.249995" height="311" preserveAspectRatio="xMidYMid meet" version="1.0"><defs><clipPath id="id1"><path d="M 0 0 L 232.503906 0 L 232.503906 232.503906 L 0 232.503906 Z M 0 0 " clip-rule="nonzero"/></clipPath><clipPath id="id2"><path d="M 152 100 L 213.269531 100 L 213.269531 109 L 152 109 Z M 152 100 " clip-rule="nonzero"/></clipPath><clipPath id="id3"><path d="M 59 58.445312 L 167 58.445312 L 167 96 L 59 96 Z M 59 58.445312 " clip-rule="nonzero"/></clipPath><clipPath id="id4"><path d="M 59 138 L 167 138 L 167 174.324219 L 59 174.324219 Z M 59 138 " clip-rule="nonzero"/></clipPath></defs><g clip-path="url(#id1)"><path fill="#d36643" d="M 0 0 L 232.503906 0 L 232.503906 232.503906 L 0 232.503906 Z M 0 0 " fill-opacity="1" fill-rule="nonzero"/><path fill="#ffffff" d="M 0 0 L 232.503906 0 L 232.503906 232.503906 L 0 232.503906 Z M 0 0 " fill-opacity="1" fill-rule="nonzero"/><path fill="#d36643" d="M 0 0 L 232.503906 0 L 232.503906 232.503906 L 0 232.503906 Z M 0 0 " fill-opacity="1" fill-rule="nonzero"/></g><g clip-path="url(#id2)"><path fill="#feedaa" d="M 157.765625 100.101562 C 157.957031 100.378906 158.121094 100.683594 158.230469 101.019531 C 158.707031 102.445312 158.226562 104.019531 157.035156 104.9375 L 152.394531 108.527344 L 206.449219 108.527344 L 213.140625 100.101562 L 157.765625 100.101562 " fill-opacity="1" fill-rule="nonzero"/></g><path fill="#feedaa" d="M 146.59375 113.003906 L 135.691406 121.429688 L 196.195312 121.429688 L 202.890625 113.003906 L 146.59375 113.003906 " fill-opacity="1" fill-rule="nonzero"/><path fill="#feedaa" d="M 136.886719 125.90625 L 139.507812 134.328125 L 185.945312 134.328125 L 192.636719 125.90625 L 136.886719 125.90625 " fill-opacity="1" fill-rule="nonzero"/><path fill="#feedaa" d="M 74.453125 100.101562 C 74.257812 100.378906 74.09375 100.683594 73.988281 101.019531 C 73.511719 102.445312 73.992188 104.019531 75.179688 104.9375 L 79.820312 108.527344 L 25.765625 108.527344 L 19.074219 100.101562 L 74.453125 100.101562 " fill-opacity="1" fill-rule="nonzero"/><path fill="#feedaa" d="M 85.621094 113.003906 L 96.523438 121.429688 L 36.019531 121.429688 L 29.328125 113.003906 L 85.621094 113.003906 " fill-opacity="1" fill-rule="nonzero"/><path fill="#feedaa" d="M 95.328125 125.90625 L 92.707031 134.328125 L 46.273438 134.328125 L 39.578125 125.90625 L 95.328125 125.90625 " fill-opacity="1" fill-rule="nonzero"/><path fill="#feedaa" d="M 124.53125 101.4375 L 153.835938 101.765625 L 130.382812 119.878906 L 138.867188 147.136719 L 114.722656 131.164062 L 91.261719 146.859375 L 99.191406 119.699219 L 76.8125 101.320312 L 105.253906 101.328125 L 115.484375 73.449219 L 124.53125 101.4375 " fill-opacity="1" fill-rule="nonzero"/><g clip-path="url(#id3)"><path fill="#feedaa" d="M 65.277344 95.113281 C 73.429688 76.65625 91.855469 63.746094 113.226562 63.746094 C 134.597656 63.746094 153.023438 76.65625 161.175781 95.113281 L 166.90625 95.113281 C 158.441406 73.660156 137.570312 58.445312 113.226562 58.445312 C 88.882812 58.445312 68.011719 73.660156 59.546875 95.113281 L 65.277344 95.113281 " fill-opacity="1" fill-rule="nonzero"/></g><g clip-path="url(#id4)"><path fill="#feedaa" d="M 160.699219 138.703125 C 152.320312 156.601562 134.191406 169.023438 113.226562 169.023438 C 92.257812 169.023438 74.136719 156.601562 65.753906 138.703125 L 59.976562 138.703125 C 68.695312 159.601562 89.28125 174.320312 113.226562 174.320312 C 137.171875 174.320312 157.757812 159.601562 166.476562 138.703125 L 160.699219 138.703125 " fill-opacity="1" fill-rule="nonzero"/></g></svg>