<svg xmlns="http://www.w3.org/2000/svg" xmlns:xlink="http://www.w3.org/1999/xlink" width="311" zoomAndPan="magnify" viewBox="0 0 233.25 233.249995" height="311" preserveAspectRatio="xMidYMid meet" version="1.0"><defs><clipPath id="id1"><path d="M 0 0 L 232.503906 0 L 232.503906 232.503906 L 0 232.503906 Z M 0 0 " clip-rule="nonzero"/></clipPath><clipPath id="id2"><path d="M 53 158 L 218.824219 158 L 218.824219 208.679688 L 53 208.679688 Z M 53 158 " clip-rule="nonzero"/></clipPath><clipPath id="id3"><path d="M 192 174 L 216 174 L 216 208.679688 L 192 208.679688 Z M 192 174 " clip-rule="nonzero"/></clipPath><clipPath id="id4"><path d="M 182 173 L 209 173 L 209 208.679688 L 182 208.679688 Z M 182 173 " clip-rule="nonzero"/></clipPath><clipPath id="id5"><path d="M 169 171 L 197 171 L 197 208.679688 L 169 208.679688 Z M 169 171 " clip-rule="nonzero"/></clipPath><clipPath id="id6"><path d="M 156 170 L 185 170 L 185 208.679688 L 156 208.679688 Z M 156 170 " clip-rule="nonzero"/></clipPath><clipPath id="id7"><path d="M 140 168 L 173 168 L 173 208.679688 L 140 208.679688 Z M 140 168 " clip-rule="nonzero"/></clipPath><clipPath id="id8"><path d="M 123 166 L 160 166 L 160 208.679688 L 123 208.679688 Z M 123 166 " clip-rule="nonzero"/></clipPath><clipPath id="id9"><path d="M 103 164 L 144 164 L 144 208.679688 L 103 208.679688 Z M 103 164 " clip-rule="nonzero"/></clipPath><clipPath id="id10"><path d="M 82 161 L 127 161 L 127 208.679688 L 82 208.679688 Z M 82 161 " clip-rule="nonzero"/></clipPath><clipPath id="id11"><path d="M 65 207 L 69 207 L 69 208.679688 L 65 208.679688 Z M 65 207 " clip-rule="nonzero"/></clipPath><clipPath id="id12"><path d="M 52 24.023438 L 144 24.023438 L 144 134 L 52 134 Z M 52 24.023438 " clip-rule="nonzero"/></clipPath><clipPath id="id13"><path d="M 201 190 L 212 190 L 212 208.679688 L 201 208.679688 Z M 201 190 " clip-rule="nonzero"/></clipPath><clipPath id="id14"><path d="M 30 157 L 70 157 L 70 208.679688 L 30 208.679688 Z M 30 157 " clip-rule="nonzero"/></clipPath></defs><g clip-path="url(#id1)"><path fill="#38b6ff" d="M 0 0 L 232.503906 0 L 232.503906 232.503906 L 0 232.503906 Z M 0 0 " fill-opacity="1" fill-rule="nonzero"/><path fill="#ffffff" d="M 0 0 L 232.503906 0 L 232.503906 232.503906 L 0 232.503906 Z M 0 0 " fill-opacity="1" fill-rule="nonzero"/><path fill="#38b6ff" d="M 0 0 L 232.503906 0 L 232.503906 232.503906 L 0 232.503906 Z M 0 0 " fill-opacity="1" fill-rule="nonzero"/></g><path fill="#16213d" d="M 19.933594 148.546875 C 19.90625 148.519531 19.878906 148.488281 19.851562 148.457031 C 19.878906 148.488281 19.90625 148.519531 19.933594 148.546875 Z M 19.933594 148.546875 " fill-opacity="1" fill-rule="nonzero"/><path fill="#16213d" d="M 19.777344 148.359375 C 19.753906 148.328125 19.734375 148.296875 19.714844 148.261719 C 19.734375 148.296875 19.753906 148.328125 19.777344 148.359375 Z M 19.777344 148.359375 " fill-opacity="1" fill-rule="nonzero"/><path fill="#16213d" d="M 20.34375 148.808594 C 20.304688 148.792969 20.269531 148.777344 20.234375 148.761719 C 20.269531 148.777344 20.304688 148.792969 20.34375 148.808594 Z M 20.34375 148.808594 " fill-opacity="1" fill-rule="nonzero"/><path fill="#16213d" d="M 20.585938 148.878906 C 20.542969 148.871094 20.5 148.859375 20.460938 148.847656 C 20.503906 148.859375 20.542969 148.871094 20.585938 148.878906 Z M 20.585938 148.878906 " fill-opacity="1" fill-rule="nonzero"/><path fill="#16213d" d="M 20.125 148.695312 C 20.089844 148.675781 20.058594 148.652344 20.03125 148.628906 C 20.0625 148.652344 20.089844 148.675781 20.125 148.695312 Z M 20.125 148.695312 " fill-opacity="1" fill-rule="nonzero"/><path fill="#16213d" d="M 19.652344 148.136719 C 19.5625 147.933594 19.523438 147.703125 19.554688 147.46875 C 19.648438 146.773438 20.289062 146.285156 20.980469 146.378906 L 21.726562 146.476562 L 17.601562 135.71875 C 21.375 136.636719 26.050781 137.777344 31.148438 139.023438 L 31.011719 138.65625 C 30.765625 138.003906 31.097656 137.269531 31.753906 137.027344 C 32.410156 136.78125 33.140625 137.113281 33.386719 137.769531 L 34.128906 139.753906 C 39.21875 140.996094 44.625 142.320312 49.898438 143.613281 L 49.730469 143.117188 C 49.503906 142.453125 49.859375 141.734375 50.523438 141.507812 C 51.183594 141.28125 51.90625 141.636719 52.132812 142.300781 L 52.820312 144.332031 C 57.507812 145.484375 62.023438 146.59375 66.050781 147.589844 C 66.070312 147.054688 66.425781 146.570312 66.96875 146.414062 C 67.644531 146.222656 68.34375 146.617188 68.535156 147.289062 L 68.8125 148.273438 C 75.417969 149.90625 80.289062 151.128906 81.710938 151.523438 C 81.9375 152.070312 82.304688 153.226562 82.714844 154.621094 L 85.46875 154.988281 C 84.046875 149.898438 83.59375 149.613281 83.21875 149.378906 C 82.992188 149.234375 82.464844 148.90625 15.851562 132.679688 C 15.394531 132.570312 14.914062 132.722656 14.601562 133.074219 C 14.289062 133.429688 14.199219 133.925781 14.367188 134.367188 L 19.628906 148.089844 C 19.632812 148.105469 19.644531 148.121094 19.652344 148.136719 Z M 19.652344 148.136719 " fill-opacity="1" fill-rule="nonzero"/><path fill="#16213d" d="M 34.578125 148.191406 L 37.429688 148.574219 L 34.128906 139.753906 L 33.386719 137.769531 C 33.140625 137.113281 32.410156 136.78125 31.753906 137.027344 C 31.097656 137.273438 30.765625 138.003906 31.011719 138.660156 L 31.148438 139.023438 Z M 34.578125 148.191406 " fill-opacity="1" fill-rule="nonzero"/><path fill="#16213d" d="M 52.257812 150.554688 L 55.0625 150.925781 L 52.820312 144.332031 L 52.128906 142.300781 C 51.90625 141.636719 51.183594 141.28125 50.519531 141.507812 C 49.859375 141.734375 49.503906 142.453125 49.726562 143.117188 L 49.898438 143.613281 Z M 52.257812 150.554688 " fill-opacity="1" fill-rule="nonzero"/><path fill="#16213d" d="M 66.089844 147.980469 L 67.390625 152.574219 L 70.128906 152.9375 L 68.8125 148.273438 L 68.53125 147.289062 C 68.34375 146.617188 67.644531 146.222656 66.964844 146.414062 C 66.421875 146.566406 66.070312 147.054688 66.050781 147.589844 C 66.046875 147.71875 66.054688 147.847656 66.089844 147.980469 Z M 66.089844 147.980469 " fill-opacity="1" fill-rule="nonzero"/><path fill="#16213d" d="M 153.835938 164.496094 L 156.738281 164.929688 L 155.402344 157.496094 C 155.023438 157.496094 154.449219 153.886719 153.671875 147.878906 L 137.917969 60.34375 C 137.355469 64.976562 136.796875 70.84375 136.492188 77.503906 L 151.386719 154.117188 C 151.949219 155.0625 152.523438 155.996094 153.125 156.914062 C 153.511719 157.5 153.347656 158.285156 152.761719 158.667969 C 152.617188 158.761719 152.464844 158.8125 152.304688 158.84375 L 153.40625 164.511719 C 153.546875 164.484375 153.6875 164.476562 153.835938 164.496094 Z M 153.835938 164.496094 " fill-opacity="1" fill-rule="nonzero"/><path fill="#f9b457" d="M 35.285156 165.152344 C 34.070312 166.433594 32.84375 167.703125 31.605469 168.960938 C 31.546875 168.851562 31.488281 168.746094 31.425781 168.636719 C 33.53125 172.492188 35.644531 176.226562 37.699219 179.765625 C 39.277344 178.039062 40.851562 176.3125 42.421875 174.578125 Z M 35.285156 165.152344 " fill-opacity="1" fill-rule="nonzero"/><path fill="#f9b457" d="M 31.1875 159.738281 C 30.761719 159.179688 30.875 158.382812 31.433594 157.960938 C 31.992188 157.535156 32.785156 157.648438 33.210938 158.207031 L 35.878906 161.734375 C 38.8125 158.574219 41.679688 155.355469 44.46875 152.070312 L 31.894531 150.394531 L 25.800781 157.945312 C 25.746094 157.839844 25.691406 157.730469 25.636719 157.625 C 27.277344 160.867188 28.960938 164.074219 30.65625 167.214844 C 31.820312 166.023438 32.976562 164.824219 34.121094 163.613281 Z M 31.1875 159.738281 " fill-opacity="1" fill-rule="nonzero"/><path fill="#f9b457" d="M 51.539062 186.617188 C 49.519531 188.660156 47.488281 190.683594 45.449219 192.695312 C 48.339844 197.375 50.832031 201.261719 52.640625 204.03125 C 54.910156 201.710938 57.167969 199.378906 59.421875 197.03125 Z M 51.539062 186.617188 " fill-opacity="1" fill-rule="nonzero"/><path fill="#f9b457" d="M 31.113281 168.058594 C 30.972656 167.800781 30.832031 167.539062 30.691406 167.277344 C 30.832031 167.539062 30.972656 167.800781 31.113281 168.058594 Z M 31.113281 168.058594 " fill-opacity="1" fill-rule="nonzero"/><g clip-path="url(#id2)"><path fill="#f9b457" d="M 98.320312 159.25 C 98.265625 159.25 98.207031 159.246094 98.152344 159.238281 L 96.746094 159.050781 C 85.601562 171.84375 74.105469 184.441406 62.367188 196.71875 L 68.796875 205.210938 C 82.664062 190.53125 95.996094 175.195312 108.613281 159.414062 C 109.339844 159.515625 110.070312 159.617188 110.804688 159.71875 C 97.839844 175.984375 84.121094 191.785156 69.832031 206.890625 C 69.875 207.316406 69.703125 207.753906 69.339844 208.027344 C 69.109375 208.203125 68.839844 208.285156 68.574219 208.285156 C 68.554688 208.285156 68.535156 208.28125 68.515625 208.277344 C 68.386719 208.414062 68.261719 208.546875 68.132812 208.679688 L 65.5 208.679688 C 66.011719 208.148438 66.519531 207.613281 67.027344 207.078125 L 60.585938 198.566406 C 58.300781 200.945312 56.007812 203.308594 53.707031 205.660156 C 54.988281 207.601562 55.722656 208.679688 55.722656 208.679688 L 204.96875 208.679688 L 218.621094 175.648438 C 198.183594 172.445312 177.761719 169.367188 158.214844 166.503906 C 158.214844 166.507812 158.214844 166.507812 158.214844 166.507812 C 158.605469 166.5625 158.996094 166.621094 159.390625 166.679688 C 148.785156 181.027344 137.582031 195.097656 125.945312 208.679688 L 123.4375 208.679688 C 134.910156 195.347656 145.96875 181.539062 156.453125 167.449219 L 153.460938 167.007812 C 152.800781 166.90625 152.339844 166.3125 152.390625 165.65625 C 133.613281 162.921875 115.75 160.394531 99.574219 158.152344 C 99.488281 158.789062 98.945312 159.25 98.320312 159.25 Z M 211.335938 192.191406 L 203.546875 207.699219 C 203.324219 208.144531 202.875 208.402344 202.410156 208.402344 C 202.21875 208.402344 202.023438 208.355469 201.84375 208.265625 C 201.214844 207.953125 200.964844 207.1875 201.277344 206.5625 L 209.066406 191.054688 C 209.382812 190.429688 210.144531 190.175781 210.769531 190.488281 C 211.398438 190.804688 211.648438 191.566406 211.335938 192.191406 Z M 215.976562 175.238281 L 194.296875 208.679688 L 192.027344 208.679688 L 213.914062 174.914062 C 214.601562 175.023438 215.289062 175.128906 215.976562 175.238281 Z M 208.253906 174.035156 C 200.359375 185.507812 192.503906 197.078125 184.738281 208.679688 L 182.449219 208.679688 C 190.28125 196.972656 198.203125 185.292969 206.167969 173.714844 C 206.863281 173.820312 207.558594 173.929688 208.253906 174.035156 Z M 196.875 172.285156 C 189.015625 184.679688 180.664062 196.851562 171.925781 208.679688 L 169.570312 208.679688 C 178.417969 196.757812 186.863281 184.480469 194.820312 171.972656 C 195.503906 172.078125 196.191406 172.183594 196.875 172.285156 Z M 184.65625 170.433594 C 175.988281 183.1875 167.183594 195.984375 158.335938 208.679688 L 156.015625 208.679688 C 164.9375 195.882812 173.820312 182.984375 182.566406 170.121094 C 183.265625 170.222656 183.960938 170.328125 184.65625 170.433594 Z M 170.792969 168.359375 C 171.492188 168.464844 172.191406 168.570312 172.894531 168.671875 C 163.359375 182.300781 153.292969 195.699219 142.828125 208.679688 L 140.375 208.679688 C 150.960938 195.605469 161.148438 182.101562 170.792969 168.359375 Z M 143.625 164.386719 C 131.300781 179.363281 118.578125 194.203125 105.660156 208.679688 L 103.109375 208.679688 C 116.140625 194.109375 128.980469 179.160156 141.421875 164.066406 C 142.15625 164.175781 142.890625 164.28125 143.625 164.386719 Z M 126.316406 161.90625 C 113.339844 178.203125 99.40625 193.875 84.738281 208.679688 L 82.054688 208.679688 C 96.902344 193.792969 111.003906 178.015625 124.132812 161.597656 C 124.859375 161.699219 125.585938 161.804688 126.316406 161.90625 Z M 126.316406 161.90625 " fill-opacity="1" fill-rule="nonzero"/></g><path fill="#f9b457" d="M 21.445312 149 C 21.546875 149.214844 21.644531 149.429688 21.746094 149.644531 C 22.753906 151.792969 23.796875 153.941406 24.863281 156.078125 L 29.6875 150.097656 Z M 21.445312 149 " fill-opacity="1" fill-rule="nonzero"/><path fill="#f9b457" d="M 52.179688 183.261719 C 60.734375 174.542969 69.070312 165.578125 77.121094 156.433594 L 62.808594 154.519531 C 57.050781 161.121094 51.210938 167.691406 45.324219 174.207031 Z M 52.179688 183.261719 " fill-opacity="1" fill-rule="nonzero"/><path fill="#f9b457" d="M 61.203125 195.179688 C 72.554688 183.304688 83.683594 171.117188 94.480469 158.75 L 79.398438 156.734375 C 71 166.3125 62.285156 175.683594 53.339844 184.796875 Z M 61.203125 195.179688 " fill-opacity="1" fill-rule="nonzero"/><path fill="#f9b457" d="M 25.464844 157.28125 C 25.289062 156.929688 25.109375 156.578125 24.933594 156.222656 C 25.109375 156.578125 25.289062 156.929688 25.464844 157.28125 Z M 25.464844 157.28125 " fill-opacity="1" fill-rule="nonzero"/><path fill="#f9b457" d="M 44.152344 172.660156 C 49.671875 166.554688 55.140625 160.398438 60.546875 154.21875 L 46.71875 152.371094 C 43.585938 156.085938 40.355469 159.714844 37.046875 163.273438 Z M 44.152344 172.660156 " fill-opacity="1" fill-rule="nonzero"/><path fill="#f9b457" d="M 50.378906 185.085938 L 43.589844 176.121094 C 41.964844 177.914062 40.335938 179.703125 38.703125 181.488281 C 40.699219 184.894531 42.625 188.101562 44.425781 191.03125 C 46.417969 189.0625 48.402344 187.082031 50.378906 185.085938 Z M 50.378906 185.085938 " fill-opacity="1" fill-rule="nonzero"/><g clip-path="url(#id3)"><path fill="#fcc983" d="M 194.296875 208.679688 L 215.976562 175.238281 C 215.289062 175.128906 214.601562 175.023438 213.914062 174.917969 L 192.027344 208.679688 Z M 194.296875 208.679688 " fill-opacity="1" fill-rule="nonzero"/></g><g clip-path="url(#id4)"><path fill="#fcc983" d="M 184.738281 208.679688 C 192.503906 197.078125 200.359375 185.507812 208.253906 174.035156 C 207.558594 173.929688 206.863281 173.820312 206.167969 173.714844 C 198.203125 185.292969 190.28125 196.972656 182.449219 208.679688 Z M 184.738281 208.679688 " fill-opacity="1" fill-rule="nonzero"/></g><g clip-path="url(#id5)"><path fill="#fcc983" d="M 171.925781 208.679688 C 180.664062 196.851562 189.015625 184.679688 196.875 172.285156 C 196.191406 172.183594 195.503906 172.078125 194.820312 171.972656 C 186.863281 184.480469 178.417969 196.757812 169.570312 208.679688 Z M 171.925781 208.679688 " fill-opacity="1" fill-rule="nonzero"/></g><g clip-path="url(#id6)"><path fill="#fcc983" d="M 158.335938 208.679688 C 167.183594 195.984375 175.988281 183.1875 184.65625 170.433594 C 183.960938 170.328125 183.265625 170.222656 182.570312 170.121094 C 173.824219 182.984375 164.9375 195.882812 156.015625 208.679688 Z M 158.335938 208.679688 " fill-opacity="1" fill-rule="nonzero"/></g><g clip-path="url(#id7)"><path fill="#fcc983" d="M 172.894531 168.671875 C 172.191406 168.570312 171.492188 168.464844 170.792969 168.359375 C 161.148438 182.101562 150.960938 195.605469 140.378906 208.679688 L 142.828125 208.679688 C 153.292969 195.699219 163.359375 182.300781 172.894531 168.671875 Z M 172.894531 168.671875 " fill-opacity="1" fill-rule="nonzero"/></g><g clip-path="url(#id8)"><path fill="#fcc983" d="M 156.980469 167.515625 C 156.917969 167.515625 156.855469 167.511719 156.789062 167.5 L 156.453125 167.449219 C 145.96875 181.539062 134.910156 195.347656 123.4375 208.679688 L 125.945312 208.679688 C 137.582031 195.097656 148.785156 181.027344 159.390625 166.679688 C 158.996094 166.621094 158.605469 166.5625 158.214844 166.507812 C 158.089844 167.097656 157.570312 167.515625 156.980469 167.515625 Z M 156.980469 167.515625 " fill-opacity="1" fill-rule="nonzero"/></g><g clip-path="url(#id9)"><path fill="#fcc983" d="M 105.660156 208.679688 C 118.578125 194.203125 131.300781 179.363281 143.625 164.386719 C 142.890625 164.28125 142.15625 164.175781 141.421875 164.066406 C 128.980469 179.160156 116.140625 194.109375 103.109375 208.679688 Z M 105.660156 208.679688 " fill-opacity="1" fill-rule="nonzero"/></g><g clip-path="url(#id10)"><path fill="#fcc983" d="M 82.054688 208.679688 L 84.738281 208.679688 C 99.40625 193.875 113.339844 178.203125 126.316406 161.90625 C 125.585938 161.804688 124.859375 161.699219 124.132812 161.597656 C 111.003906 178.015625 96.902344 193.792969 82.054688 208.679688 Z M 82.054688 208.679688 " fill-opacity="1" fill-rule="nonzero"/></g><g clip-path="url(#id11)"><path fill="#fcc983" d="M 67.558594 207.78125 L 67.027344 207.082031 C 66.519531 207.613281 66.007812 208.148438 65.5 208.679688 L 68.132812 208.679688 C 68.261719 208.546875 68.386719 208.414062 68.515625 208.277344 C 68.152344 208.261719 67.796875 208.09375 67.558594 207.78125 Z M 67.558594 207.78125 " fill-opacity="1" fill-rule="nonzero"/></g><path fill="#fcc983" d="M 69.832031 206.890625 C 84.117188 191.785156 97.839844 175.984375 110.804688 159.71875 C 110.070312 159.617188 109.339844 159.515625 108.613281 159.414062 C 95.996094 175.195312 82.664062 190.53125 68.796875 205.210938 L 69.582031 206.25 C 69.730469 206.445312 69.808594 206.667969 69.832031 206.890625 Z M 69.832031 206.890625 " fill-opacity="1" fill-rule="nonzero"/><path fill="#fcc983" d="M 62.367188 196.71875 C 74.101562 184.441406 85.601562 171.84375 96.746094 159.050781 L 94.480469 158.75 C 83.679688 171.117188 72.554688 183.304688 61.203125 195.183594 Z M 62.367188 196.71875 " fill-opacity="1" fill-rule="nonzero"/><path fill="#fcc983" d="M 59.421875 197.03125 C 57.167969 199.378906 54.90625 201.710938 52.640625 204.03125 C 53.027344 204.628906 53.382812 205.171875 53.707031 205.660156 C 56.007812 203.308594 58.300781 200.945312 60.582031 198.566406 Z M 59.421875 197.03125 " fill-opacity="1" fill-rule="nonzero"/><path fill="#fcc983" d="M 53.339844 184.796875 C 62.285156 175.683594 71 166.3125 79.398438 156.734375 L 77.121094 156.433594 C 69.070312 165.578125 60.734375 174.542969 52.179688 183.261719 Z M 53.339844 184.796875 " fill-opacity="1" fill-rule="nonzero"/><path fill="#fcc983" d="M 51.539062 186.617188 L 50.378906 185.085938 C 48.402344 187.082031 46.417969 189.0625 44.425781 191.03125 C 44.421875 191.03125 44.421875 191.03125 44.421875 191.03125 C 44.769531 191.597656 45.113281 192.152344 45.445312 192.695312 C 45.449219 192.695312 45.449219 192.695312 45.449219 192.695312 C 47.488281 190.683594 49.519531 188.660156 51.539062 186.617188 Z M 51.539062 186.617188 " fill-opacity="1" fill-rule="nonzero"/><path fill="#fcc983" d="M 45.324219 174.207031 C 51.210938 167.691406 57.050781 161.117188 62.808594 154.519531 L 60.546875 154.21875 C 55.140625 160.398438 49.671875 166.554688 44.152344 172.660156 Z M 45.324219 174.207031 " fill-opacity="1" fill-rule="nonzero"/><path fill="#fcc983" d="M 42.421875 174.578125 C 40.851562 176.3125 39.277344 178.039062 37.699219 179.765625 C 38.035156 180.34375 38.367188 180.917969 38.699219 181.488281 C 38.699219 181.488281 38.699219 181.488281 38.703125 181.484375 C 40.335938 179.703125 41.964844 177.914062 43.589844 176.121094 Z M 42.421875 174.578125 " fill-opacity="1" fill-rule="nonzero"/><path fill="#fcc983" d="M 37.046875 163.273438 C 40.355469 159.714844 43.585938 156.085938 46.71875 152.371094 L 44.46875 152.070312 C 41.675781 155.355469 38.8125 158.574219 35.878906 161.734375 Z M 37.046875 163.273438 " fill-opacity="1" fill-rule="nonzero"/><path fill="#fcc983" d="M 35.285156 165.152344 L 34.121094 163.613281 C 32.976562 164.824219 31.820312 166.023438 30.65625 167.214844 C 30.667969 167.234375 30.679688 167.257812 30.691406 167.277344 C 30.832031 167.539062 30.972656 167.800781 31.113281 168.058594 C 31.21875 168.25 31.320312 168.445312 31.425781 168.636719 C 31.488281 168.746094 31.546875 168.851562 31.605469 168.960938 C 32.84375 167.703125 34.070312 166.433594 35.285156 165.152344 Z M 35.285156 165.152344 " fill-opacity="1" fill-rule="nonzero"/><path fill="#fcc983" d="M 31.894531 150.394531 L 29.6875 150.097656 L 24.863281 156.078125 C 24.886719 156.128906 24.910156 156.175781 24.9375 156.222656 C 25.109375 156.578125 25.289062 156.929688 25.464844 157.28125 C 25.523438 157.394531 25.582031 157.507812 25.636719 157.625 C 25.691406 157.730469 25.746094 157.839844 25.800781 157.945312 Z M 31.894531 150.394531 " fill-opacity="1" fill-rule="nonzero"/><path fill="#c3d2e1" d="M 153.671875 147.878906 C 154.449219 153.886719 155.023438 157.496094 155.402344 157.496094 C 160.839844 157.511719 165.96875 157.207031 170.773438 156.683594 C 170.769531 156.660156 170.765625 156.640625 170.761719 156.617188 C 170.726562 155.917969 171.261719 155.320312 171.960938 155.28125 C 172.214844 155.265625 197.195312 153.78125 214.84375 141.953125 C 174.296875 115.203125 147.273438 65.347656 139.507812 49.726562 C 139.425781 50.164062 139.285156 50.945312 139.101562 52.035156 C 146.269531 81.242188 151.085938 127.878906 153.671875 147.878906 Z M 153.671875 147.878906 " fill-opacity="1" fill-rule="nonzero"/><path fill="#c3d2e1" d="M 138.570312 47.8125 C 138.554688 47.785156 138.546875 47.761719 138.53125 47.734375 C 138.527344 47.761719 138.523438 47.785156 138.523438 47.808594 C 138.539062 47.8125 138.554688 47.8125 138.570312 47.8125 Z M 138.570312 47.8125 " fill-opacity="1" fill-rule="nonzero"/><path fill="#ebedf2" d="M 137.105469 48.804688 C 137.238281 48.144531 137.859375 47.71875 138.523438 47.808594 C 138.523438 47.785156 138.527344 47.761719 138.53125 47.734375 C 139.949219 37.828125 141.453125 30.421875 142.144531 27.226562 C 136.503906 30.902344 108.125 51.015625 73.296875 103.75 C 73.417969 103.800781 73.53125 103.863281 73.632812 103.953125 L 77.28125 107.097656 C 77.8125 107.554688 77.871094 108.355469 77.414062 108.882812 C 77.164062 109.175781 76.808594 109.324219 76.453125 109.324219 C 76.15625 109.324219 75.863281 109.222656 75.625 109.015625 L 71.976562 105.875 C 71.960938 105.859375 71.949219 105.84375 71.933594 105.828125 C 70.558594 107.929688 69.179688 110.082031 67.785156 112.289062 C 67.804688 112.296875 67.824219 112.300781 67.839844 112.3125 L 77.085938 117.644531 C 77.691406 117.992188 77.902344 118.769531 77.550781 119.375 C 77.316406 119.78125 76.890625 120.011719 76.453125 120.011719 C 76.238281 120.011719 76.019531 119.957031 75.820312 119.839844 L 66.574219 114.507812 C 66.527344 114.484375 66.488281 114.449219 66.449219 114.421875 C 65.113281 116.5625 63.765625 118.757812 62.414062 120.996094 C 62.546875 121.007812 62.675781 121.035156 62.804688 121.089844 L 76.960938 127.292969 C 77.605469 127.574219 77.894531 128.324219 77.613281 128.964844 C 77.40625 129.441406 76.941406 129.722656 76.453125 129.722656 C 76.28125 129.722656 76.109375 129.691406 75.945312 129.617188 L 61.785156 123.414062 C 61.554688 123.3125 61.371094 123.148438 61.238281 122.949219 C 59.25 126.277344 57.246094 129.703125 55.230469 133.246094 C 55.671875 133.46875 56.128906 133.6875 56.601562 133.914062 C 80.179688 144.972656 139.644531 155.484375 150.382812 157.324219 C 136.597656 135.621094 133.667969 107.546875 133.664062 87.675781 C 133.65625 65.882812 137.070312 48.972656 137.105469 48.804688 Z M 137.105469 48.804688 " fill-opacity="1" fill-rule="nonzero"/><path fill="#16213d" d="M 153.125 156.914062 C 152.523438 155.996094 151.949219 155.0625 151.386719 154.117188 C 137.316406 130.546875 135.480469 99.640625 136.492188 77.503906 C 136.796875 70.84375 137.355469 64.976562 137.917969 60.34375 C 138.351562 56.773438 138.785156 53.9375 139.101562 52.035156 C 139.285156 50.945312 139.425781 50.164062 139.507812 49.726562 C 139.554688 49.488281 139.582031 49.339844 139.589844 49.316406 C 139.730469 48.628906 139.289062 47.957031 138.601562 47.816406 C 138.589844 47.816406 138.582031 47.816406 138.570312 47.816406 C 138.554688 47.8125 138.539062 47.8125 138.523438 47.808594 C 137.859375 47.71875 137.238281 48.144531 137.105469 48.804688 C 137.070312 48.972656 133.65625 65.882812 133.664062 87.675781 C 133.667969 107.546875 136.597656 135.621094 150.382812 157.324219 C 150.589844 157.652344 150.792969 157.980469 151.003906 158.304688 C 151.25 158.675781 151.652344 158.878906 152.066406 158.878906 C 152.144531 158.878906 152.226562 158.859375 152.304688 158.84375 C 152.464844 158.8125 152.617188 158.765625 152.761719 158.671875 C 153.347656 158.285156 153.511719 157.5 153.125 156.914062 Z M 153.125 156.914062 " fill-opacity="1" fill-rule="nonzero"/><path fill="#16213d" d="M 61.785156 123.414062 L 75.941406 129.617188 C 76.109375 129.691406 76.28125 129.726562 76.453125 129.726562 C 76.941406 129.726562 77.40625 129.441406 77.613281 128.964844 C 77.894531 128.324219 77.605469 127.574219 76.960938 127.296875 L 62.804688 121.09375 C 62.675781 121.035156 62.546875 121.007812 62.414062 120.996094 C 62.023438 121.644531 61.632812 122.296875 61.238281 122.953125 C 61.367188 123.148438 61.554688 123.3125 61.785156 123.414062 Z M 61.785156 123.414062 " fill-opacity="1" fill-rule="nonzero"/><path fill="#16213d" d="M 66.574219 114.511719 L 75.820312 119.839844 C 76.019531 119.957031 76.238281 120.011719 76.453125 120.011719 C 76.890625 120.011719 77.316406 119.78125 77.550781 119.375 C 77.902344 118.769531 77.691406 117.992188 77.085938 117.644531 L 67.839844 112.3125 C 67.824219 112.304688 67.804688 112.296875 67.785156 112.289062 C 67.339844 112.996094 66.894531 113.707031 66.449219 114.421875 C 66.488281 114.453125 66.527344 114.484375 66.574219 114.511719 Z M 66.574219 114.511719 " fill-opacity="1" fill-rule="nonzero"/><path fill="#16213d" d="M 71.976562 105.875 L 75.625 109.015625 C 75.863281 109.222656 76.160156 109.324219 76.453125 109.324219 C 76.808594 109.324219 77.164062 109.175781 77.414062 108.882812 C 77.871094 108.355469 77.8125 107.554688 77.28125 107.097656 L 73.632812 103.953125 C 73.53125 103.867188 73.417969 103.800781 73.296875 103.75 C 72.84375 104.4375 72.390625 105.128906 71.933594 105.828125 C 71.949219 105.84375 71.960938 105.859375 71.976562 105.875 Z M 71.976562 105.875 " fill-opacity="1" fill-rule="nonzero"/><g clip-path="url(#id12)"><path fill="#16213d" d="M 62.414062 120.996094 C 63.765625 118.757812 65.113281 116.5625 66.449219 114.421875 C 66.894531 113.703125 67.34375 112.992188 67.785156 112.289062 C 69.179688 110.082031 70.558594 107.929688 71.933594 105.828125 C 72.390625 105.128906 72.84375 104.441406 73.296875 103.753906 C 108.125 51.015625 136.503906 30.902344 142.144531 27.226562 C 142.78125 26.8125 143.132812 26.601562 143.167969 26.582031 C 143.777344 26.230469 143.984375 25.453125 143.632812 24.847656 C 143.28125 24.242188 142.503906 24.035156 141.898438 24.382812 C 141.476562 24.628906 131.355469 30.550781 115.257812 46.832031 C 100.457031 61.796875 77.644531 88.730469 53 132.035156 C 52.652344 132.644531 52.863281 133.417969 53.472656 133.765625 C 53.671875 133.878906 53.886719 133.933594 54.101562 133.933594 C 54.542969 133.933594 54.96875 133.703125 55.203125 133.289062 C 55.210938 133.277344 55.21875 133.261719 55.230469 133.246094 C 57.246094 129.707031 59.25 126.28125 61.238281 122.953125 C 61.632812 122.296875 62.023438 121.644531 62.414062 120.996094 Z M 62.414062 120.996094 " fill-opacity="1" fill-rule="nonzero"/></g><path fill="#16213d" d="M 153.460938 167.007812 L 156.453125 167.449219 L 156.789062 167.5 C 156.855469 167.511719 156.917969 167.515625 156.980469 167.515625 C 157.570312 167.515625 158.089844 167.097656 158.214844 166.507812 C 158.214844 166.507812 158.214844 166.507812 158.214844 166.503906 C 158.21875 166.480469 158.230469 166.457031 158.230469 166.433594 C 158.335938 165.742188 157.855469 165.097656 157.164062 164.992188 L 156.742188 164.929688 L 153.835938 164.496094 C 153.6875 164.476562 153.546875 164.484375 153.40625 164.511719 C 152.894531 164.609375 152.476562 165.019531 152.394531 165.566406 C 152.390625 165.597656 152.390625 165.625 152.390625 165.65625 C 152.339844 166.3125 152.800781 166.90625 153.460938 167.007812 Z M 153.460938 167.007812 " fill-opacity="1" fill-rule="nonzero"/><g clip-path="url(#id13)"><path fill="#16213d" d="M 210.769531 190.488281 C 210.144531 190.175781 209.382812 190.429688 209.066406 191.054688 L 201.277344 206.5625 C 200.964844 207.1875 201.214844 207.953125 201.84375 208.265625 C 202.023438 208.355469 202.21875 208.402344 202.410156 208.402344 C 202.875 208.402344 203.324219 208.144531 203.546875 207.699219 L 211.335938 192.191406 C 211.648438 191.566406 211.398438 190.804688 210.769531 190.488281 Z M 210.769531 190.488281 " fill-opacity="1" fill-rule="nonzero"/></g><path fill="#16213d" d="M 70.128906 152.9375 L 67.390625 152.574219 L 55.0625 150.925781 L 52.257812 150.554688 L 37.429688 148.574219 L 34.578125 148.191406 L 21.726562 146.476562 L 20.980469 146.375 C 20.289062 146.285156 19.648438 146.773438 19.554688 147.464844 C 19.523438 147.703125 19.5625 147.933594 19.652344 148.136719 C 19.667969 148.179688 19.691406 148.21875 19.714844 148.261719 C 19.734375 148.292969 19.753906 148.328125 19.773438 148.359375 C 19.800781 148.394531 19.824219 148.425781 19.851562 148.457031 C 19.878906 148.488281 19.90625 148.519531 19.933594 148.546875 C 19.964844 148.574219 19.996094 148.601562 20.027344 148.628906 C 20.058594 148.652344 20.089844 148.675781 20.125 148.695312 C 20.160156 148.71875 20.195312 148.738281 20.234375 148.757812 C 20.269531 148.777344 20.304688 148.792969 20.339844 148.808594 C 20.378906 148.824219 20.417969 148.835938 20.460938 148.847656 C 20.5 148.859375 20.542969 148.871094 20.585938 148.878906 C 20.605469 148.882812 20.625 148.886719 20.644531 148.890625 L 21.445312 149 L 29.6875 150.097656 L 31.894531 150.394531 L 44.46875 152.070312 L 46.714844 152.371094 L 60.546875 154.21875 L 62.808594 154.519531 L 77.121094 156.429688 L 79.398438 156.734375 L 94.476562 158.746094 L 96.742188 159.050781 L 98.148438 159.238281 C 98.207031 159.246094 98.261719 159.25 98.320312 159.25 C 98.945312 159.25 99.488281 158.789062 99.574219 158.152344 C 99.574219 158.152344 99.574219 158.148438 99.574219 158.148438 C 99.667969 157.453125 99.179688 156.816406 98.484375 156.722656 L 85.46875 154.984375 L 82.710938 154.617188 Z M 70.128906 152.9375 " fill-opacity="1" fill-rule="nonzero"/><path fill="#16213d" d="M 170.765625 156.617188 C 170.765625 156.640625 170.773438 156.660156 170.773438 156.683594 C 170.84375 157.324219 171.382812 157.816406 172.03125 157.816406 C 172.050781 157.816406 172.074219 157.816406 172.097656 157.8125 C 173.167969 157.757812 198.441406 156.261719 216.707031 143.753906 C 217.285156 143.359375 217.433594 142.570312 217.039062 141.992188 C 216.640625 141.414062 215.851562 141.265625 215.273438 141.664062 C 215.132812 141.761719 214.988281 141.855469 214.84375 141.953125 C 197.195312 153.78125 172.214844 155.265625 171.960938 155.28125 C 171.261719 155.320312 170.726562 155.917969 170.765625 156.617188 Z M 170.765625 156.617188 " fill-opacity="1" fill-rule="nonzero"/><g clip-path="url(#id14)"><path fill="#16213d" d="M 53.339844 184.796875 L 52.179688 183.261719 L 45.324219 174.207031 L 44.152344 172.660156 L 37.046875 163.273438 L 35.878906 161.734375 L 33.210938 158.207031 C 32.785156 157.648438 31.992188 157.535156 31.433594 157.960938 C 30.875 158.382812 30.761719 159.179688 31.1875 159.738281 L 34.121094 163.613281 L 35.285156 165.152344 L 42.421875 174.578125 L 43.589844 176.121094 L 50.375 185.085938 L 51.535156 186.617188 L 59.421875 197.03125 L 60.582031 198.566406 L 67.027344 207.082031 L 67.558594 207.78125 C 67.796875 208.09375 68.148438 208.261719 68.515625 208.277344 C 68.535156 208.28125 68.550781 208.285156 68.574219 208.285156 C 68.839844 208.285156 69.109375 208.203125 69.335938 208.027344 C 69.703125 207.753906 69.871094 207.316406 69.828125 206.890625 C 69.808594 206.667969 69.730469 206.445312 69.582031 206.253906 L 68.796875 205.214844 L 62.363281 196.71875 L 61.203125 195.179688 Z M 53.339844 184.796875 " fill-opacity="1" fill-rule="nonzero"/></g></svg>