<svg xmlns="http://www.w3.org/2000/svg" xmlns:xlink="http://www.w3.org/1999/xlink" width="311" zoomAndPan="magnify" viewBox="0 0 233.25 233.249995" height="311" preserveAspectRatio="xMidYMid meet" version="1.0"><defs><clipPath id="id1"><path d="M 0 0 L 232.503906 0 L 232.503906 232.503906 L 0 232.503906 Z M 0 0 " clip-rule="nonzero"/></clipPath><clipPath id="id2"><path d="M 37.824219 15.4375 L 179.867188 15.4375 L 179.867188 217.269531 L 37.824219 217.269531 Z M 37.824219 15.4375 " clip-rule="nonzero"/></clipPath></defs><g clip-path="url(#id1)"><path fill="#a6b6f8" d="M 0 0 L 232.503906 0 L 232.503906 232.503906 L 0 232.503906 Z M 0 0 " fill-opacity="1" fill-rule="nonzero"/><path fill="#ffffff" d="M 0 0 L 232.503906 0 L 232.503906 232.503906 L 0 232.503906 Z M 0 0 " fill-opacity="1" fill-rule="nonzero"/><path fill="#a6b6f8" d="M 0 0 L 232.503906 0 L 232.503906 232.503906 L 0 232.503906 Z M 0 0 " fill-opacity="1" fill-rule="nonzero"/></g><g clip-path="url(#id2)"><path fill="#000000" d="M 93.542969 193.554688 C 93.285156 197.945312 91.980469 203.28125 92.464844 206.722656 C 88.523438 208.121094 83.3125 207.535156 83.597656 213.441406 C 88.074219 213.144531 92.117188 213.777344 96.496094 213.171875 C 97.097656 212.164062 97.667969 211.121094 97.839844 209.679688 C 96.589844 209.050781 94.449219 209.304688 93.808594 208.066406 C 93.875 205.554688 97.808594 207.058594 98.914062 207.53125 C 99.132812 206.402344 99.859375 205.789062 99.992188 204.574219 C 98.714844 203.160156 95.957031 203.230469 95.691406 200.8125 C 95.785156 200.457031 96.164062 200.386719 96.226562 200.003906 C 98.53125 200.03125 99.015625 201.875 101.0625 202.15625 C 102.742188 199.328125 101.328125 197.308594 100.796875 194.09375 C 98.496094 193.792969 96.113281 193.578125 93.542969 193.554688 Z M 143.792969 190.867188 C 142.613281 193.359375 143.277344 197.695312 139.765625 197.855469 C 139.9375 199.382812 140.613281 200.40625 141.105469 201.617188 C 142.695312 200.710938 145.96875 198.375 147.824219 200.273438 C 147.277344 202.769531 143.769531 202.308594 141.914062 203.5 C 141.945312 204.992188 142.964844 205.492188 143.257812 206.722656 C 145.296875 206.644531 148.96875 205.484375 149.707031 207.261719 C 149.828125 209.710938 146.433594 208.644531 144.332031 208.875 C 144.671875 210.324219 145.128906 211.660156 145.40625 213.171875 C 150.554688 213.59375 156.96875 213.6875 162.605469 213.710938 C 162.535156 209.585938 158.808594 206.296875 155.082031 208.335938 C 152.777344 206.804688 153.125 203.023438 152.664062 200.003906 C 152.195312 196.957031 151.441406 193.804688 151.050781 191.136719 C 148.964844 190.710938 146.265625 190.90625 143.792969 190.867188 Z M 154.007812 160.765625 C 151.640625 161.984375 149.070312 162.996094 146.480469 163.992188 C 146.9375 167.65625 148.285156 170.429688 149.4375 173.398438 C 153.457031 173.476562 155.6875 171.765625 157.230469 169.367188 C 156.394531 166.261719 154.992188 163.722656 154.007812 160.765625 Z M 146.480469 148.40625 C 147.191406 152.261719 147.78125 156.242188 148.363281 160.230469 C 152.609375 158.84375 157.625 155.925781 155.886719 150.285156 C 153.804688 148.605469 150.242188 148.40625 146.480469 148.40625 Z M 47.585938 133.085938 C 46.359375 134.632812 46.777344 137.832031 46.511719 140.34375 C 47.777344 140.777344 48.96875 141.289062 50.542969 141.417969 C 50.96875 139.335938 51.746094 137.605469 52.15625 135.503906 C 51.308594 134.023438 49.246094 133.753906 47.585938 133.085938 Z M 59.140625 142.761719 C 61.933594 143.550781 64.871094 144.195312 68.011719 144.644531 C 68.683594 142.628906 68.007812 139.265625 69.355469 137.921875 C 72.207031 138.21875 70.769531 143.542969 70.160156 145.179688 C 72.363281 145.753906 74.417969 146.480469 76.878906 146.792969 C 77.160156 143.847656 76.519531 139.984375 78.222656 138.460938 C 81.164062 139.046875 79.007812 144.972656 79.027344 147.597656 C 81.988281 148.042969 83.9375 149.496094 87.359375 149.480469 C 87.550781 146.625 86.941406 142.96875 88.433594 141.417969 C 91.605469 142.011719 89.246094 147.382812 89.507812 150.019531 C 91.207031 150.203125 92.382812 150.90625 94.347656 150.824219 C 94.308594 144.992188 95.074219 138.730469 94.347656 133.085938 C 81.714844 133.359375 70.230469 132.480469 60.753906 129.59375 C 59.710938 133.640625 58.425781 137.6875 59.140625 142.761719 Z M 142.453125 130.128906 C 142.347656 135.789062 143.414062 140.273438 144.0625 145.179688 C 146.300781 146.074219 149.917969 145.59375 152.394531 146.253906 C 153.109375 144.851562 152.808594 138.660156 155.082031 137.117188 C 157.300781 138.738281 155.746094 144.851562 154.542969 146.523438 C 156.066406 147.136719 156.632812 148.347656 158.039062 148.40625 C 160.910156 148.519531 163.277344 143.675781 165.832031 145.984375 C 164.824219 149.101562 161.429688 149.824219 158.574219 151.09375 C 157.773438 153.722656 160.710938 153.667969 162.335938 154.316406 C 164.847656 155.320312 167.683594 156.355469 167.710938 158.617188 C 167.617188 158.96875 167.238281 159.039062 167.175781 159.421875 C 163.933594 158.722656 162.128906 156.585938 158.84375 155.929688 C 157.789062 156.757812 157.101562 157.945312 156.15625 158.886719 C 157.273438 162.425781 158.984375 165.375 159.917969 169.097656 C 165.832031 168.4375 169.417969 166.441406 172.28125 163.1875 C 178.792969 155.777344 175.390625 143.40625 169.59375 137.921875 C 162.941406 131.632812 152.773438 129.074219 142.453125 130.128906 Z M 97.035156 131.472656 C 97.367188 151.644531 94.621094 170.957031 93.808594 190.867188 C 99.613281 190.617188 104.234375 191.546875 104.019531 197.316406 C 110.960938 196.828125 118.300781 197.308594 125.25 196.78125 C 130.382812 196.390625 135.769531 196.296875 140.03125 194.898438 C 140.777344 192.6875 140.769531 189.722656 142.71875 188.71875 C 145.363281 188.195312 148.265625 188.105469 150.78125 188.71875 C 150.246094 184.683594 149.832031 180.53125 149.167969 176.625 C 146.859375 174.3125 140.484375 162.8125 145.945312 161.035156 C 145.324219 156.90625 145.035156 152.449219 144.0625 148.671875 C 143.683594 147.382812 142.304688 147.507812 141.644531 146.253906 C 139.859375 142.855469 140.386719 134.152344 139.496094 129.054688 C 126.46875 131.695312 110.453125 129.609375 97.035156 131.472656 Z M 41.136719 129.863281 C 42.65625 130.207031 45.378906 130.414062 46.511719 129.59375 C 48.414062 132.078125 53.128906 131.753906 54.84375 134.429688 C 54.871094 136.96875 53.710938 138.316406 53.5 140.609375 C 54.484375 140.609375 55.46875 140.609375 56.453125 140.609375 C 56.132812 136.796875 57.070312 134.238281 57.53125 131.203125 C 52.796875 129.039062 47.507812 127.433594 41.675781 126.367188 C 41.597656 127.632812 40.890625 128.269531 41.136719 129.863281 Z M 91.929688 125.828125 C 92.449219 127.457031 93.515625 128.542969 94.882812 129.324219 C 101.691406 126.617188 111.40625 128.132812 120.949219 127.710938 C 127.332031 127.429688 133.894531 126.367188 138.957031 126.636719 C 141.148438 126.753906 143.101562 128.167969 144.871094 126.636719 C 145.191406 124.253906 142.652344 124.734375 142.453125 122.875 C 127.300781 123.175781 110.183594 123.867188 94.347656 123.140625 C 93.378906 123.875 92.425781 124.621094 91.929688 125.828125 Z M 86.285156 113.199219 C 85.1875 114.355469 85.796875 118.300781 86.015625 119.917969 C 99.648438 122.0625 117.449219 121.253906 131.96875 120.992188 C 135.570312 120.925781 141.007812 121.117188 144.871094 120.722656 C 146.355469 120.570312 149.710938 120.5 149.167969 118.035156 C 145.945312 116.863281 142.8125 118.953125 139.496094 119.109375 C 131.648438 119.484375 122.859375 117.292969 114.234375 115.886719 C 104.804688 114.347656 95.128906 114.335938 86.285156 113.199219 Z M 169.054688 88.472656 C 166.601562 89.066406 164.09375 89.601562 161.800781 90.355469 C 161.945312 96.503906 161.324219 101.886719 161.53125 108.09375 C 162.785156 108.316406 165.546875 104.773438 167.710938 104.0625 C 168.234375 98.941406 168.953125 94.011719 169.054688 88.472656 Z M 106.171875 86.324219 C 105.992188 86.324219 105.8125 86.324219 105.632812 86.324219 C 106.027344 94.46875 106.109375 104.261719 105.632812 112.390625 C 107.671875 112.773438 110.046875 112.816406 112.082031 113.199219 C 109.996094 104.355469 114.371094 89.050781 106.171875 86.324219 Z M 95.152344 84.710938 C 94.972656 84.710938 94.792969 84.710938 94.613281 84.710938 C 94.820312 93.875 94.203125 102.214844 94.347656 111.316406 C 97.300781 111.769531 100.386719 112.085938 103.753906 112.125 C 103.921875 103.335938 103.40625 93.859375 104.019531 85.515625 C 101.230469 85.082031 97.910156 85.179688 95.152344 84.710938 Z M 83.867188 84.171875 C 83.890625 92.980469 83.402344 101.269531 83.597656 110.242188 C 86.339844 110.722656 89.359375 110.933594 92.195312 111.316406 C 92.558594 102.632812 92.644531 93.667969 92.734375 84.710938 C 89.832031 84.097656 87.386719 84.386719 83.867188 84.171875 Z M 78.222656 83.90625 C 78.007812 84.046875 77.785156 84.183594 77.417969 84.171875 C 74.265625 88.222656 75.507812 96.484375 75.804688 102.984375 C 75.902344 105.128906 75.074219 107.808594 76.609375 109.167969 C 77.695312 102.167969 75.847656 92.015625 77.953125 84.710938 C 78.269531 84.667969 78.179688 84.222656 78.222656 83.90625 Z M 82.253906 83.90625 C 81.625 83.90625 81 83.90625 80.371094 83.90625 C 77.707031 90.605469 78.90625 101.746094 79.566406 109.707031 C 80.4375 109.550781 80.816406 109.886719 81.449219 109.972656 C 81.402344 100.96875 81.484375 92.09375 82.253906 83.90625 Z M 168.25 86.054688 C 168.707031 80.9375 168.925781 73.320312 167.710938 68.316406 C 166.097656 67.726562 164.730469 66.476562 163.140625 66.703125 C 157.851562 67.46875 156.289062 85.921875 163.679688 87.128906 C 165.179688 86.746094 166.4375 86.121094 168.25 86.054688 Z M 158.84375 87.398438 C 159.519531 85.859375 157.300781 84.320312 156.691406 82.292969 C 155 76.621094 157.136719 69.617188 159.382812 65.628906 C 158.089844 65.574219 157.105469 65.214844 155.886719 65.09375 C 151.914062 70.761719 151.484375 85.058594 158.84375 87.398438 Z M 163.140625 44.9375 C 163.160156 51.492188 162.425781 57.296875 162.605469 64.015625 C 165.511719 63.976562 167.113281 65.242188 169.324219 65.898438 C 168.613281 59.882812 169.972656 53.667969 170.128906 47.621094 C 167.867188 46.660156 165.734375 45.570312 163.140625 44.9375 Z M 139.226562 36.875 C 137.730469 37.238281 138.199219 39.367188 138.152344 40.636719 C 137.269531 64.359375 134.96875 92.667969 137.613281 116.691406 C 145.128906 115.28125 152.023438 114.839844 159.382812 113.199219 C 159.019531 104.945312 159.261719 98.300781 159.648438 90.085938 C 158.898438 89.765625 157.796875 89.789062 156.691406 89.816406 C 149.167969 85.832031 148.628906 68.367188 154.8125 62.40625 C 156.65625 62.617188 158.375 62.960938 160.1875 63.210938 C 160.757812 55 161.132812 45.171875 161.53125 37.679688 C 154.332031 37.171875 146.460938 37.34375 139.226562 36.875 Z M 59.410156 105.941406 C 64.214844 106.695312 68.65625 107.804688 73.386719 108.628906 C 73.804688 100.507812 71.511719 88.148438 75.535156 82.292969 C 80.195312 81.21875 85.957031 81.851562 91.390625 82.292969 C 98.972656 82.90625 107.933594 82.605469 111.277344 87.128906 C 115.6875 93.097656 112.21875 104.109375 113.695312 113.46875 C 120.835938 114.476562 127.523438 115.945312 135.195312 116.425781 C 133.226562 90.21875 134.664062 60.808594 136.539062 35.800781 C 119.304688 37.070312 98.402344 34.914062 80.105469 34.722656 C 74.160156 34.660156 68.339844 34.976562 63.441406 33.917969 C 63.050781 33.832031 62.789062 33.578125 62.367188 33.648438 C 58.492188 34.292969 59.605469 45.625 59.410156 50.042969 C 59.097656 57.214844 59.679688 61.820312 59.679688 68.046875 C 59.683594 82.578125 58.824219 93.667969 59.410156 105.941406 Z M 123.910156 19.941406 C 125.582031 25.226562 120.484375 29.023438 120.683594 33.648438 C 121.398438 33.648438 122.117188 33.648438 122.832031 33.648438 C 123.511719 29.578125 125.121094 26.441406 127.132812 23.703125 C 127.644531 23.820312 127.808594 24.285156 128.476562 24.242188 C 131.773438 21.539062 127.164062 17.605469 123.910156 19.941406 Z M 90.046875 18.0625 C 89.15625 18.675781 88.933594 21.140625 89.507812 22.359375 C 90.105469 22.984375 90.558594 22.269531 91.390625 22.359375 C 93.9375 25.007812 95.222656 28.917969 96.496094 32.84375 C 96.898438 30.597656 94.539062 26.136719 93.542969 23.433594 C 95.878906 21.046875 93.832031 16.550781 90.046875 18.0625 Z M 86.824219 23.167969 C 82.21875 11.722656 102.632812 13.914062 96.496094 23.703125 C 98.101562 26.039062 98.582031 29.5 99.722656 32.304688 C 105.402344 32.890625 112.144531 32.421875 118.261719 32.574219 C 118.59375 30.421875 119.058594 28.828125 119.609375 27.199219 C 120.15625 25.574219 121.605469 24 121.757812 22.628906 C 121.871094 21.601562 120.945312 20.632812 121.21875 19.402344 C 122.28125 14.648438 131.453125 15.996094 132.507812 20.210938 C 133.425781 23.875 131.25 25.972656 128.207031 27.46875 C 127.421875 29.277344 126.425781 30.882812 126.058594 33.109375 C 129.8125 33.28125 132.992188 32.878906 136.539062 32.84375 C 143.472656 36.210938 157.765625 32.214844 164.21875 36.066406 C 164.039062 38.039062 163.84375 39.992188 163.949219 42.246094 C 167.511719 43.164062 171.265625 43.890625 173.355469 46.28125 C 171.953125 57.75 172.304688 72.519531 171.742188 85.25 C 171.457031 91.742188 172.101562 101.558594 170.128906 105.671875 C 168.757812 108.539062 163.765625 109.601562 162.335938 112.390625 C 161.832031 113.375 162.554688 114.4375 161.53125 115.617188 C 158.820312 117.027344 155.070312 117.398438 151.589844 118.035156 C 152.800781 121.550781 149.824219 122.792969 147.289062 123.410156 C 147.851562 124.097656 147.953125 125.253906 148.363281 126.097656 C 161.539062 126.730469 175.65625 134.167969 179 146.253906 C 183.09375 161.074219 172.070312 172.65625 158.84375 172.859375 C 157.492188 175.003906 154.730469 175.734375 152.394531 176.894531 C 153.875 185.890625 155.050781 195.199219 156.691406 204.035156 C 162.605469 204.84375 165.933594 208.230469 166.097656 214.785156 C 164.265625 218.714844 159.304688 216.847656 155.351562 216.667969 C 150.714844 216.457031 145.746094 217.917969 143.257812 215.859375 C 141.335938 214.273438 141.035156 209.660156 140.03125 207.53125 C 138.660156 204.628906 137.316406 202.144531 136.269531 199.46875 C 125.375 200.214844 115.914062 200.796875 104.828125 200.8125 C 102.890625 206.132812 101.5 211.996094 98.378906 216.128906 C 92.699219 216.625 84.089844 218.363281 79.835938 215.324219 C 79.996094 208.496094 83.128906 204.640625 89.242188 203.765625 C 90.949219 187.738281 91.28125 170.332031 92.734375 154.046875 C 80.058594 152.300781 69.714844 148.222656 57.53125 145.984375 C 56.480469 145.070312 56.183594 144.152344 54.84375 143.835938 C 52.839844 143.363281 52.445312 145.109375 50.273438 145.179688 C 49.179688 145.21875 47.273438 144.367188 46.511719 144.105469 C 45.335938 143.695312 43.847656 143.542969 43.554688 141.953125 C 42.878906 139.570312 43.453125 136.125 43.554688 133.625 C 37.917969 133.929688 36.96875 130.066406 38.449219 126.097656 C 39.972656 122.015625 41.316406 122.738281 44.898438 123.679688 C 49.144531 124.792969 54.40625 125.941406 57.261719 127.441406 C 60.015625 123.890625 65.304688 127.535156 70.429688 128.25 C 77.234375 129.195312 82.828125 129.640625 90.046875 129.59375 C 88.449219 128.496094 88.226562 125.042969 88.703125 123.410156 C 82.5 124.058594 82.847656 118.15625 82.253906 113.199219 C 77.714844 112.519531 72.832031 111.960938 68.28125 111.046875 C 63.730469 110.132812 58.902344 109.722656 55.648438 107.285156 C 56.945312 101.933594 55.820312 94.945312 56.1875 86.859375 C 56.734375 74.703125 55.464844 61.371094 56.453125 49.234375 C 56.980469 42.769531 55.738281 33.921875 59.949219 31.5 C 70.867188 30.714844 82.898438 32.058594 93.273438 31.765625 C 93.699219 27.316406 87.894531 25.835938 86.824219 23.167969 " fill-opacity="1" fill-rule="evenodd"/></g><path fill="#eab81b" d="M 90.046875 18.0625 C 89.15625 18.675781 88.933594 21.144531 89.507812 22.359375 C 90.105469 22.984375 90.558594 22.269531 91.390625 22.359375 C 93.9375 25.007812 95.222656 28.917969 96.496094 32.839844 C 96.898438 30.597656 94.539062 26.136719 93.542969 23.4375 C 95.878906 21.046875 93.832031 16.550781 90.046875 18.0625 " fill-opacity="1" fill-rule="evenodd"/><path fill="#eab81b" d="M 123.910156 19.941406 C 125.582031 25.226562 120.484375 29.023438 120.683594 33.648438 C 121.398438 33.648438 122.117188 33.648438 122.832031 33.648438 C 123.511719 29.582031 125.121094 26.441406 127.132812 23.703125 C 127.644531 23.820312 127.808594 24.285156 128.476562 24.242188 C 131.773438 21.539062 127.164062 17.605469 123.910156 19.941406 " fill-opacity="1" fill-rule="evenodd"/><path fill="#ff5533" d="M 113.695312 54.609375 C 110.328125 54.152344 106.667969 54.191406 104.558594 55.417969 C 98.417969 58.988281 99.488281 75.269531 106.441406 77.722656 C 107.304688 78.03125 108.539062 77.796875 109.664062 77.992188 C 111.179688 78.253906 112.453125 79.023438 114.234375 78.796875 C 119.304688 78.160156 122.230469 73.25 121.757812 66.167969 C 121.3125 59.433594 119.515625 55.402344 113.695312 54.609375 Z M 71.234375 51.921875 C 68.0625 51.546875 65.101562 51.871094 63.171875 54.074219 C 60.003906 57.699219 59.859375 68.378906 63.710938 71.8125 C 66.808594 74.574219 73.53125 74.835938 76.609375 73.421875 C 82.929688 70.523438 80.257812 56.9375 76.878906 53.804688 C 75.632812 52.648438 73.710938 52.21875 71.234375 51.921875 Z M 59.679688 68.046875 C 59.679688 61.820312 59.097656 57.214844 59.410156 50.042969 C 59.605469 45.628906 58.492188 34.292969 62.367188 33.648438 C 62.789062 33.578125 63.050781 33.832031 63.441406 33.917969 C 68.339844 34.980469 74.160156 34.660156 80.105469 34.722656 C 98.402344 34.914062 119.304688 37.074219 136.539062 35.800781 C 134.664062 60.808594 133.226562 90.21875 135.195312 116.425781 C 127.523438 115.945312 120.835938 114.476562 113.695312 113.46875 C 112.21875 104.113281 115.6875 93.097656 111.277344 87.128906 C 107.933594 82.609375 98.972656 82.90625 91.390625 82.292969 C 85.957031 81.851562 80.195312 81.21875 75.535156 82.292969 C 71.511719 88.152344 73.804688 100.511719 73.386719 108.628906 C 68.65625 107.804688 64.214844 106.695312 59.410156 105.941406 C 58.824219 93.667969 59.683594 82.578125 59.679688 68.046875 " fill-opacity="1" fill-rule="evenodd"/><path fill="#ff5533" d="M 139.226562 36.875 C 137.730469 37.238281 138.199219 39.367188 138.152344 40.636719 C 137.269531 64.359375 134.96875 92.667969 137.613281 116.691406 C 145.128906 115.28125 152.023438 114.839844 159.382812 113.199219 C 159.019531 104.949219 159.261719 98.300781 159.648438 90.085938 C 158.898438 89.765625 157.796875 89.789062 156.695312 89.816406 C 149.167969 85.832031 148.628906 68.367188 154.8125 62.402344 C 156.660156 62.617188 158.375 62.960938 160.1875 63.210938 C 160.757812 55 161.136719 45.171875 161.53125 37.679688 C 154.332031 37.171875 146.460938 37.34375 139.226562 36.875 " fill-opacity="1" fill-rule="evenodd"/><path fill="#dd4d36" d="M 163.140625 44.9375 C 163.160156 51.492188 162.425781 57.296875 162.605469 64.015625 C 165.511719 63.976562 167.113281 65.242188 169.324219 65.898438 C 168.613281 59.878906 169.972656 53.667969 170.128906 47.621094 C 167.867188 46.660156 165.734375 45.570312 163.140625 44.9375 " fill-opacity="1" fill-rule="evenodd"/><path fill="#000000" d="M 73.386719 71.273438 C 80.191406 71.519531 78 59.152344 75.265625 55.6875 C 74.324219 55.375 73.816406 54.628906 72.578125 54.609375 C 75.957031 57.390625 76.902344 67.863281 73.386719 71.273438 Z M 68.011719 54.609375 C 61.414062 53.796875 61.5625 71.945312 69.085938 71.273438 C 75.390625 70.710938 73.785156 55.324219 68.011719 54.609375 Z M 76.878906 53.804688 C 80.257812 56.9375 82.929688 70.523438 76.609375 73.421875 C 73.53125 74.835938 66.808594 74.574219 63.710938 71.8125 C 59.859375 68.378906 60.003906 57.699219 63.171875 54.074219 C 65.101562 51.867188 68.0625 51.546875 71.234375 51.921875 C 73.710938 52.21875 75.632812 52.648438 76.878906 53.804688 " fill-opacity="1" fill-rule="evenodd"/><path fill="#000000" d="M 113.429688 57.03125 C 113.226562 58.089844 114.429688 59.363281 115.039062 61.0625 C 116.394531 64.832031 117.347656 72.597656 114.5 76.113281 C 121.582031 74.535156 120.726562 57.832031 113.429688 57.03125 Z M 109.394531 56.761719 C 108.355469 57.15625 106.722656 56.957031 105.632812 57.296875 C 101.738281 61.414062 101.945312 74.296875 107.78125 75.574219 C 117.222656 77.632812 114.429688 59.136719 109.394531 56.761719 Z M 121.757812 66.167969 C 122.230469 73.25 119.304688 78.160156 114.234375 78.796875 C 112.453125 79.023438 111.179688 78.253906 109.664062 77.992188 C 108.539062 77.796875 107.304688 78.027344 106.441406 77.722656 C 99.488281 75.269531 98.417969 58.988281 104.558594 55.417969 C 106.667969 54.191406 110.328125 54.152344 113.695312 54.609375 C 119.515625 55.402344 121.3125 59.433594 121.757812 66.167969 " fill-opacity="1" fill-rule="evenodd"/><path fill="#eab81b" d="M 69.085938 57.835938 C 64.835938 56.351562 64.207031 66.019531 67.472656 66.703125 C 72.488281 67.757812 72.21875 58.925781 69.085938 57.835938 Z M 69.085938 71.273438 C 61.5625 71.945312 61.414062 53.796875 68.011719 54.609375 C 73.785156 55.324219 75.390625 70.710938 69.085938 71.273438 " fill-opacity="1" fill-rule="evenodd"/><path fill="#eab81b" d="M 73.386719 71.273438 C 80.191406 71.519531 78 59.152344 75.265625 55.683594 C 74.324219 55.375 73.816406 54.628906 72.578125 54.609375 C 75.957031 57.390625 76.902344 67.863281 73.386719 71.273438 " fill-opacity="1" fill-rule="evenodd"/><path fill="#eab81b" d="M 108.050781 59.71875 C 104.851562 61.335938 104.453125 72.820312 109.394531 71.8125 C 113.332031 71.007812 111.753906 59.589844 108.050781 59.71875 Z M 107.78125 75.574219 C 101.945312 74.296875 101.738281 61.414062 105.632812 57.296875 C 106.722656 56.957031 108.355469 57.15625 109.394531 56.761719 C 114.429688 59.136719 117.222656 77.636719 107.78125 75.574219 " fill-opacity="1" fill-rule="evenodd"/><path fill="#eab81b" d="M 113.429688 57.03125 C 113.226562 58.089844 114.429688 59.363281 115.039062 61.058594 C 116.394531 64.832031 117.347656 72.597656 114.5 76.109375 C 121.582031 74.53125 120.726562 57.832031 113.429688 57.03125 " fill-opacity="1" fill-rule="evenodd"/><path fill="#000000" d="M 68.546875 59.449219 C 67.222656 59.949219 66.625 63.3125 67.742188 64.554688 C 69.96875 65.488281 69.613281 60.476562 68.546875 59.449219 Z M 67.472656 66.707031 C 64.207031 66.019531 64.832031 56.355469 69.085938 57.835938 C 72.21875 58.929688 72.488281 67.757812 67.472656 66.707031 " fill-opacity="1" fill-rule="evenodd"/><path fill="#000000" d="M 108.859375 61.867188 C 107.066406 63.125 107 68.660156 108.589844 70.199219 C 110.949219 68.980469 109.808594 63.734375 108.859375 61.867188 Z M 109.394531 71.8125 C 104.453125 72.820312 104.851562 61.335938 108.050781 59.714844 C 111.753906 59.589844 113.332031 71.007812 109.394531 71.8125 " fill-opacity="1" fill-rule="evenodd"/><path fill="#b8cfe8" d="M 68.546875 59.449219 C 67.222656 59.949219 66.625 63.3125 67.742188 64.554688 C 69.96875 65.488281 69.613281 60.472656 68.546875 59.449219 " fill-opacity="1" fill-rule="evenodd"/><path fill="#b8cfe8" d="M 108.859375 61.867188 C 107.066406 63.125 107 68.660156 108.589844 70.199219 C 110.949219 68.980469 109.808594 63.734375 108.859375 61.867188 " fill-opacity="1" fill-rule="evenodd"/><path fill="#eab81b" d="M 158.84375 87.398438 C 159.523438 85.859375 157.300781 84.320312 156.695312 82.292969 C 155 76.617188 157.136719 69.617188 159.382812 65.628906 C 158.089844 65.574219 157.105469 65.214844 155.890625 65.09375 C 151.914062 70.761719 151.484375 85.058594 158.84375 87.398438 " fill-opacity="1" fill-rule="evenodd"/><path fill="#eab81b" d="M 168.25 86.054688 C 168.707031 80.9375 168.925781 73.320312 167.710938 68.316406 C 166.097656 67.726562 164.730469 66.476562 163.140625 66.703125 C 157.851562 67.46875 156.289062 85.921875 163.679688 87.128906 C 165.179688 86.746094 166.4375 86.121094 168.25 86.054688 " fill-opacity="1" fill-rule="evenodd"/><path fill="#fffffb" d="M 82.253906 83.90625 C 81.625 83.90625 81 83.90625 80.371094 83.90625 C 77.707031 90.609375 78.90625 101.746094 79.566406 109.707031 C 80.4375 109.550781 80.816406 109.886719 81.445312 109.972656 C 81.402344 100.96875 81.484375 92.09375 82.253906 83.90625 " fill-opacity="1" fill-rule="evenodd"/><path fill="#d1aaaa" d="M 78.222656 83.90625 C 78.007812 84.046875 77.785156 84.183594 77.417969 84.171875 C 74.265625 88.222656 75.507812 96.488281 75.804688 102.988281 C 75.902344 105.128906 75.070312 107.808594 76.609375 109.167969 C 77.695312 102.167969 75.847656 92.019531 77.953125 84.710938 C 78.269531 84.667969 78.179688 84.222656 78.222656 83.90625 " fill-opacity="1" fill-rule="evenodd"/><path fill="#fffffb" d="M 83.867188 84.171875 C 83.890625 92.980469 83.402344 101.269531 83.597656 110.242188 C 86.339844 110.722656 89.359375 110.933594 92.195312 111.316406 C 92.558594 102.632812 92.644531 93.667969 92.734375 84.710938 C 89.832031 84.097656 87.386719 84.386719 83.867188 84.171875 " fill-opacity="1" fill-rule="evenodd"/><path fill="#fffffb" d="M 95.152344 84.710938 C 94.972656 84.710938 94.792969 84.710938 94.617188 84.710938 C 94.820312 93.875 94.203125 102.214844 94.347656 111.316406 C 97.300781 111.769531 100.386719 112.085938 103.753906 112.125 C 103.921875 103.335938 103.40625 93.859375 104.019531 85.515625 C 101.230469 85.085938 97.910156 85.175781 95.152344 84.710938 " fill-opacity="1" fill-rule="evenodd"/><path fill="#fffffb" d="M 106.171875 86.324219 C 105.992188 86.324219 105.8125 86.324219 105.632812 86.324219 C 106.027344 94.46875 106.109375 104.261719 105.632812 112.390625 C 107.671875 112.773438 110.046875 112.816406 112.082031 113.199219 C 109.996094 104.355469 114.371094 89.050781 106.171875 86.324219 " fill-opacity="1" fill-rule="evenodd"/><path fill="#dd4d36" d="M 169.054688 88.472656 C 166.601562 89.066406 164.09375 89.601562 161.800781 90.355469 C 161.945312 96.503906 161.324219 101.882812 161.53125 108.09375 C 162.785156 108.316406 165.546875 104.773438 167.710938 104.0625 C 168.238281 98.941406 168.953125 94.011719 169.054688 88.472656 " fill-opacity="1" fill-rule="evenodd"/><path fill="#ff5533" d="M 86.285156 113.199219 C 85.1875 114.355469 85.796875 118.300781 86.015625 119.917969 C 99.648438 122.0625 117.449219 121.253906 131.96875 120.992188 C 135.570312 120.925781 141.007812 121.117188 144.871094 120.722656 C 146.359375 120.570312 149.710938 120.5 149.171875 118.035156 C 145.945312 116.863281 142.8125 118.953125 139.496094 119.109375 C 131.648438 119.484375 122.859375 117.292969 114.234375 115.886719 C 104.804688 114.34375 95.128906 114.332031 86.285156 113.199219 " fill-opacity="1" fill-rule="evenodd"/><path fill="#a09595" d="M 91.929688 125.828125 C 92.449219 127.457031 93.515625 128.542969 94.882812 129.324219 C 101.691406 126.617188 111.40625 128.132812 120.949219 127.710938 C 127.332031 127.429688 133.894531 126.367188 138.957031 126.636719 C 141.148438 126.753906 143.101562 128.167969 144.871094 126.636719 C 145.191406 124.253906 142.648438 124.734375 142.453125 122.875 C 127.300781 123.175781 110.183594 123.867188 94.347656 123.144531 C 93.378906 123.875 92.421875 124.621094 91.929688 125.828125 " fill-opacity="1" fill-rule="evenodd"/><path fill="#6b4d4d" d="M 41.136719 129.863281 C 42.65625 130.207031 45.378906 130.414062 46.511719 129.59375 C 48.414062 132.078125 53.128906 131.753906 54.84375 134.429688 C 54.871094 136.96875 53.710938 138.316406 53.5 140.609375 C 54.484375 140.609375 55.46875 140.609375 56.453125 140.609375 C 56.132812 136.796875 57.070312 134.238281 57.53125 131.203125 C 52.796875 129.039062 47.507812 127.433594 41.675781 126.367188 C 41.597656 127.632812 40.890625 128.269531 41.136719 129.863281 " fill-opacity="1" fill-rule="evenodd"/><path fill="#dd4d36" d="M 105.097656 133.621094 C 109.726562 135.027344 118.246094 135.300781 123.371094 134.429688 C 123.308594 132.496094 120.78125 133.199219 119.339844 133.085938 C 114.746094 132.722656 108.695312 132.316406 105.097656 133.621094 Z M 139.496094 129.054688 C 140.382812 134.152344 139.859375 142.855469 141.644531 146.253906 C 142.304688 147.507812 143.683594 147.382812 144.0625 148.671875 C 145.035156 152.449219 145.324219 156.910156 145.945312 161.035156 C 140.484375 162.8125 146.859375 174.3125 149.167969 176.625 C 149.832031 180.53125 150.246094 184.683594 150.78125 188.71875 C 148.265625 188.105469 145.363281 188.195312 142.722656 188.71875 C 140.769531 189.722656 140.777344 192.6875 140.03125 194.898438 C 135.769531 196.296875 130.382812 196.390625 125.25 196.78125 C 118.300781 197.308594 110.960938 196.828125 104.019531 197.316406 C 104.234375 191.546875 99.613281 190.617188 93.808594 190.867188 C 94.621094 170.957031 97.367188 151.644531 97.035156 131.472656 C 110.453125 129.609375 126.46875 131.695312 139.496094 129.054688 " fill-opacity="1" fill-rule="evenodd"/><path fill="#a09595" d="M 142.453125 130.128906 C 142.347656 135.789062 143.417969 140.273438 144.0625 145.179688 C 146.304688 146.074219 149.917969 145.59375 152.394531 146.253906 C 153.109375 144.851562 152.808594 138.660156 155.082031 137.117188 C 157.300781 138.738281 155.746094 144.847656 154.542969 146.523438 C 156.066406 147.136719 156.632812 148.347656 158.039062 148.40625 C 160.910156 148.519531 163.277344 143.675781 165.832031 145.984375 C 164.824219 149.101562 161.429688 149.824219 158.574219 151.09375 C 157.777344 153.722656 160.710938 153.667969 162.335938 154.316406 C 164.847656 155.320312 167.683594 156.355469 167.710938 158.617188 C 167.617188 158.96875 167.238281 159.039062 167.175781 159.421875 C 163.933594 158.722656 162.128906 156.585938 158.84375 155.929688 C 157.789062 156.757812 157.101562 157.945312 156.15625 158.886719 C 157.273438 162.425781 158.984375 165.375 159.917969 169.097656 C 165.832031 168.4375 169.417969 166.441406 172.28125 163.1875 C 178.792969 155.777344 175.394531 143.40625 169.59375 137.921875 C 162.941406 131.632812 152.773438 129.074219 142.453125 130.128906 " fill-opacity="1" fill-rule="evenodd"/><path fill="#a09595" d="M 59.140625 142.761719 C 61.933594 143.550781 64.871094 144.195312 68.011719 144.644531 C 68.683594 142.628906 68.007812 139.265625 69.355469 137.921875 C 72.207031 138.21875 70.769531 143.542969 70.160156 145.179688 C 72.363281 145.753906 74.417969 146.480469 76.878906 146.792969 C 77.160156 143.847656 76.519531 139.984375 78.222656 138.460938 C 81.164062 139.046875 79.007812 144.972656 79.027344 147.597656 C 81.988281 148.042969 83.9375 149.496094 87.359375 149.480469 C 87.550781 146.625 86.941406 142.96875 88.433594 141.417969 C 91.605469 142.011719 89.246094 147.382812 89.507812 150.019531 C 91.207031 150.203125 92.382812 150.90625 94.347656 150.824219 C 94.308594 144.992188 95.074219 138.730469 94.347656 133.085938 C 81.714844 133.359375 70.230469 132.480469 60.753906 129.59375 C 59.710938 133.640625 58.425781 137.6875 59.140625 142.761719 " fill-opacity="1" fill-rule="evenodd"/><path fill="#000000" d="M 105.097656 133.625 C 109.726562 135.027344 118.246094 135.300781 123.371094 134.429688 C 123.308594 132.496094 120.78125 133.199219 119.339844 133.085938 C 114.746094 132.722656 108.695312 132.316406 105.097656 133.625 " fill-opacity="1" fill-rule="evenodd"/><path fill="#6b4d4d" d="M 47.585938 133.085938 C 46.359375 134.632812 46.777344 137.832031 46.511719 140.34375 C 47.777344 140.777344 48.96875 141.289062 50.542969 141.417969 C 50.96875 139.335938 51.746094 137.605469 52.15625 135.503906 C 51.308594 134.023438 49.246094 133.753906 47.585938 133.085938 " fill-opacity="1" fill-rule="evenodd"/><path fill="#6b4d4d" d="M 154.007812 160.765625 C 151.640625 161.984375 149.070312 162.996094 146.480469 163.992188 C 146.9375 167.65625 148.285156 170.429688 149.4375 173.398438 C 153.457031 173.476562 155.6875 171.765625 157.230469 169.367188 C 156.394531 166.261719 154.992188 163.722656 154.007812 160.765625 " fill-opacity="1" fill-rule="evenodd"/><path fill="#ff5533" d="M 143.792969 190.867188 C 142.617188 193.359375 143.273438 197.695312 139.765625 197.855469 C 139.9375 199.382812 140.613281 200.40625 141.105469 201.617188 C 142.695312 200.710938 145.96875 198.375 147.824219 200.273438 C 147.277344 202.769531 143.769531 202.308594 141.914062 203.5 C 141.945312 204.992188 142.964844 205.492188 143.257812 206.722656 C 145.296875 206.644531 148.96875 205.484375 149.703125 207.261719 C 149.828125 209.710938 146.429688 208.644531 144.332031 208.875 C 144.671875 210.324219 145.128906 211.660156 145.40625 213.171875 C 150.554688 213.59375 156.96875 213.6875 162.605469 213.710938 C 162.535156 209.585938 158.808594 206.296875 155.082031 208.335938 C 152.777344 206.804688 153.125 203.023438 152.660156 200.003906 C 152.195312 196.957031 151.441406 193.804688 151.050781 191.136719 C 148.964844 190.710938 146.261719 190.90625 143.792969 190.867188 " fill-opacity="1" fill-rule="evenodd"/><path fill="#ff5533" d="M 93.542969 193.554688 C 93.285156 197.945312 91.980469 203.28125 92.464844 206.722656 C 88.523438 208.121094 83.3125 207.535156 83.597656 213.441406 C 88.074219 213.144531 92.117188 213.777344 96.496094 213.171875 C 97.097656 212.164062 97.667969 211.121094 97.839844 209.679688 C 96.589844 209.050781 94.449219 209.304688 93.808594 208.066406 C 93.875 205.554688 97.808594 207.058594 98.914062 207.53125 C 99.132812 206.402344 99.859375 205.789062 99.992188 204.574219 C 98.714844 203.160156 95.957031 203.230469 95.691406 200.8125 C 95.785156 200.457031 96.164062 200.386719 96.226562 200.003906 C 98.53125 200.03125 99.015625 201.875 101.0625 202.15625 C 102.742188 199.328125 101.328125 197.308594 100.796875 194.09375 C 98.496094 193.792969 96.113281 193.578125 93.542969 193.554688 " fill-opacity="1" fill-rule="evenodd"/></svg>