<svg xmlns="http://www.w3.org/2000/svg" xmlns:xlink="http://www.w3.org/1999/xlink" width="311" zoomAndPan="magnify" viewBox="0 0 233.25 233.249995" height="311" preserveAspectRatio="xMidYMid meet" version="1.0"><defs><clipPath id="id1"><path d="M 0 0 L 232.503906 0 L 232.503906 232.503906 L 0 232.503906 Z M 0 0 " clip-rule="nonzero"/></clipPath><clipPath id="id2"><path d="M 11.625 104 L 220.953125 104 L 220.953125 148 L 11.625 148 Z M 11.625 104 " clip-rule="nonzero"/></clipPath><clipPath id="id3"><path d="M 11.625 101 L 220.953125 101 L 220.953125 145 L 11.625 145 Z M 11.625 101 " clip-rule="nonzero"/></clipPath><clipPath id="id4"><path d="M 112 104 L 220.953125 104 L 220.953125 148 L 112 148 Z M 112 104 " clip-rule="nonzero"/></clipPath><clipPath id="id5"><path d="M 114 102 L 220.953125 102 L 220.953125 145 L 114 145 Z M 114 102 " clip-rule="nonzero"/></clipPath></defs><g clip-path="url(#id1)"><path fill="#b6e2d3" d="M 0 0 L 232.503906 0 L 232.503906 232.503906 L 0 232.503906 Z M 0 0 " fill-opacity="1" fill-rule="nonzero"/><path fill="#ffffff" d="M 0 0 L 232.503906 0 L 232.503906 232.503906 L 0 232.503906 Z M 0 0 " fill-opacity="1" fill-rule="nonzero"/><path fill="#b6e2d3" d="M 0 0 L 232.503906 0 L 232.503906 232.503906 L 0 232.503906 Z M 0 0 " fill-opacity="1" fill-rule="nonzero"/></g><g clip-path="url(#id2)"><path fill="#a7641c" d="M 220.253906 125.929688 C 220.253906 137.804688 173.578125 147.433594 116 147.433594 C 58.425781 147.433594 11.75 137.804688 11.75 125.929688 C 11.75 124.316406 11.644531 121.082031 13.277344 119.566406 C 23.667969 109.953125 66.246094 104.425781 116 104.425781 C 163.867188 104.425781 206.214844 110.792969 218.457031 119.859375 C 220.941406 121.699219 220.253906 123.929688 220.253906 125.929688 Z M 220.253906 125.929688 " fill-opacity="1" fill-rule="nonzero"/></g><g clip-path="url(#id3)"><path fill="#f6a348" d="M 220.28125 123.21875 C 220.28125 123.570312 220.238281 123.921875 220.15625 124.273438 C 220.070312 124.625 219.945312 124.976562 219.78125 125.328125 C 219.613281 125.675781 219.402344 126.027344 219.152344 126.375 C 218.902344 126.722656 218.609375 127.070312 218.277344 127.414062 C 217.945312 127.757812 217.570312 128.101562 217.15625 128.445312 C 216.742188 128.785156 216.289062 129.125 215.792969 129.460938 C 215.296875 129.796875 214.761719 130.132812 214.1875 130.464844 C 213.613281 130.792969 213 131.121094 212.347656 131.449219 C 211.691406 131.773438 211 132.09375 210.273438 132.414062 C 209.542969 132.730469 208.777344 133.046875 207.972656 133.355469 C 207.167969 133.664062 206.328125 133.972656 205.449219 134.273438 C 204.574219 134.574219 203.660156 134.871094 202.710938 135.164062 C 201.765625 135.457031 200.78125 135.746094 199.765625 136.027344 C 198.75 136.3125 197.699219 136.589844 196.617188 136.859375 C 195.535156 137.132812 194.421875 137.398438 193.273438 137.660156 C 192.128906 137.921875 190.953125 138.175781 189.746094 138.421875 C 188.539062 138.671875 187.304688 138.914062 186.042969 139.152344 C 184.777344 139.386719 183.484375 139.617188 182.167969 139.839844 C 180.847656 140.0625 179.503906 140.28125 178.132812 140.488281 C 176.761719 140.699219 175.367188 140.902344 173.949219 141.097656 C 172.53125 141.292969 171.089844 141.480469 169.625 141.664062 C 168.164062 141.84375 166.679688 142.015625 165.175781 142.183594 C 163.667969 142.347656 162.144531 142.507812 160.601562 142.65625 C 159.0625 142.808594 157.5 142.949219 155.925781 143.085938 C 154.347656 143.21875 152.757812 143.347656 151.152344 143.464844 C 149.546875 143.582031 147.925781 143.695312 146.292969 143.796875 C 144.660156 143.898438 143.015625 143.992188 141.363281 144.078125 C 139.707031 144.164062 138.042969 144.238281 136.367188 144.308594 C 134.695312 144.378906 133.015625 144.4375 131.328125 144.488281 C 129.640625 144.539062 127.945312 144.582031 126.25 144.617188 C 124.550781 144.652344 122.851562 144.679688 121.144531 144.695312 C 119.441406 144.714844 117.738281 144.722656 116.03125 144.722656 C 114.324219 144.722656 112.621094 144.714844 110.914062 144.695312 C 109.210938 144.679688 107.511719 144.652344 105.8125 144.617188 C 104.113281 144.582031 102.421875 144.539062 100.734375 144.488281 C 99.046875 144.4375 97.367188 144.378906 95.691406 144.308594 C 94.019531 144.238281 92.355469 144.164062 90.699219 144.078125 C 89.042969 143.992188 87.402344 143.898438 85.769531 143.796875 C 84.136719 143.695312 82.515625 143.582031 80.910156 143.464844 C 79.304688 143.347656 77.710938 143.21875 76.136719 143.085938 C 74.558594 142.949219 73 142.808594 71.457031 142.65625 C 69.914062 142.507812 68.390625 142.347656 66.886719 142.183594 C 65.382812 142.015625 63.898438 141.84375 62.433594 141.664062 C 60.972656 141.480469 59.53125 141.292969 58.113281 141.097656 C 56.691406 140.902344 55.296875 140.699219 53.929688 140.488281 C 52.558594 140.28125 51.214844 140.0625 49.894531 139.839844 C 48.574219 139.617188 47.285156 139.386719 46.019531 139.152344 C 44.753906 138.914062 43.519531 138.671875 42.3125 138.421875 C 41.109375 138.175781 39.929688 137.921875 38.785156 137.660156 C 37.640625 137.398438 36.527344 137.132812 35.445312 136.859375 C 34.359375 136.589844 33.3125 136.3125 32.296875 136.027344 C 31.277344 135.746094 30.296875 135.457031 29.347656 135.164062 C 28.402344 134.871094 27.488281 134.574219 26.613281 134.273438 C 25.734375 133.972656 24.894531 133.664062 24.089844 133.355469 C 23.285156 133.046875 22.519531 132.730469 21.789062 132.414062 C 21.058594 132.09375 20.367188 131.773438 19.714844 131.449219 C 19.0625 131.121094 18.449219 130.792969 17.875 130.464844 C 17.300781 130.132812 16.765625 129.796875 16.269531 129.460938 C 15.773438 129.125 15.320312 128.785156 14.902344 128.445312 C 14.488281 128.101562 14.117188 127.757812 13.78125 127.414062 C 13.449219 127.070312 13.160156 126.722656 12.90625 126.375 C 12.65625 126.027344 12.449219 125.675781 12.28125 125.328125 C 12.113281 124.976562 11.988281 124.625 11.90625 124.273438 C 11.820312 123.921875 11.78125 123.570312 11.78125 123.21875 C 11.78125 122.867188 11.820312 122.515625 11.90625 122.164062 C 11.988281 121.8125 12.113281 121.460938 12.28125 121.113281 C 12.449219 120.761719 12.65625 120.410156 12.90625 120.0625 C 13.160156 119.714844 13.449219 119.371094 13.78125 119.023438 C 14.117188 118.679688 14.488281 118.335938 14.902344 117.996094 C 15.320312 117.652344 15.773438 117.3125 16.269531 116.976562 C 16.765625 116.640625 17.300781 116.304688 17.875 115.976562 C 18.449219 115.644531 19.0625 115.316406 19.714844 114.992188 C 20.367188 114.664062 21.058594 114.34375 21.789062 114.027344 C 22.519531 113.707031 23.285156 113.394531 24.089844 113.082031 C 24.894531 112.773438 25.734375 112.464844 26.613281 112.164062 C 27.488281 111.863281 28.402344 111.566406 29.347656 111.273438 C 30.296875 110.980469 31.277344 110.691406 32.296875 110.410156 C 33.3125 110.128906 34.359375 109.851562 35.445312 109.578125 C 36.527344 109.304688 37.640625 109.039062 38.785156 108.777344 C 39.929688 108.519531 41.109375 108.261719 42.3125 108.015625 C 43.519531 107.765625 44.753906 107.523438 46.019531 107.285156 C 47.285156 107.050781 48.574219 106.820312 49.894531 106.597656 C 51.214844 106.375 52.558594 106.15625 53.929688 105.949219 C 55.296875 105.738281 56.691406 105.535156 58.113281 105.339844 C 59.53125 105.144531 60.972656 104.957031 62.433594 104.777344 C 63.898438 104.59375 65.382812 104.421875 66.886719 104.253906 C 68.390625 104.089844 69.914062 103.929688 71.457031 103.78125 C 73 103.628906 74.558594 103.488281 76.136719 103.351562 C 77.710938 103.21875 79.304688 103.09375 80.910156 102.972656 C 82.515625 102.855469 84.136719 102.746094 85.769531 102.640625 C 87.402344 102.539062 89.042969 102.445312 90.699219 102.359375 C 92.355469 102.277344 94.019531 102.199219 95.691406 102.128906 C 97.367188 102.0625 99.046875 102 100.734375 101.949219 C 102.421875 101.898438 104.113281 101.855469 105.8125 101.820312 C 107.511719 101.785156 109.210938 101.757812 110.914062 101.742188 C 112.621094 101.726562 114.324219 101.714844 116.03125 101.714844 C 117.738281 101.714844 119.441406 101.726562 121.144531 101.742188 C 122.851562 101.757812 124.550781 101.785156 126.25 101.820312 C 127.945312 101.855469 129.640625 101.898438 131.328125 101.949219 C 133.015625 102 134.695312 102.0625 136.367188 102.128906 C 138.042969 102.199219 139.707031 102.277344 141.363281 102.359375 C 143.015625 102.445312 144.660156 102.539062 146.292969 102.640625 C 147.925781 102.746094 149.546875 102.855469 151.152344 102.972656 C 152.757812 103.09375 154.347656 103.21875 155.925781 103.351562 C 157.5 103.488281 159.0625 103.628906 160.601562 103.78125 C 162.144531 103.929688 163.667969 104.089844 165.175781 104.253906 C 166.679688 104.421875 168.164062 104.59375 169.625 104.777344 C 171.089844 104.957031 172.53125 105.144531 173.949219 105.339844 C 175.367188 105.535156 176.761719 105.738281 178.132812 105.949219 C 179.503906 106.15625 180.847656 106.375 182.167969 106.597656 C 183.484375 106.820312 184.777344 107.050781 186.042969 107.285156 C 187.304688 107.523438 188.539062 107.765625 189.746094 108.015625 C 190.953125 108.261719 192.128906 108.519531 193.273438 108.777344 C 194.421875 109.039062 195.535156 109.304688 196.617188 109.578125 C 197.699219 109.851562 198.75 110.128906 199.765625 110.410156 C 200.78125 110.691406 201.765625 110.980469 202.710938 111.273438 C 203.660156 111.566406 204.574219 111.863281 205.449219 112.164062 C 206.328125 112.464844 207.167969 112.773438 207.972656 113.082031 C 208.777344 113.394531 209.542969 113.707031 210.273438 114.027344 C 211 114.34375 211.691406 114.664062 212.347656 114.992188 C 213 115.316406 213.613281 115.644531 214.1875 115.976562 C 214.761719 116.304688 215.296875 116.640625 215.792969 116.976562 C 216.289062 117.3125 216.742188 117.652344 217.15625 117.996094 C 217.570312 118.335938 217.945312 118.679688 218.277344 119.023438 C 218.609375 119.371094 218.902344 119.714844 219.152344 120.0625 C 219.402344 120.410156 219.613281 120.761719 219.78125 121.113281 C 219.945312 121.460938 220.070312 121.8125 220.15625 122.164062 C 220.238281 122.515625 220.28125 122.867188 220.28125 123.21875 Z M 220.28125 123.21875 " fill-opacity="1" fill-rule="nonzero"/></g><path fill="#f8b051" d="M 156.140625 63.3125 C 140.128906 60.113281 127.828125 65.03125 127.828125 65.03125 C 108.519531 37.347656 90.207031 40.453125 90.207031 40.453125 C 57.246094 43.195312 58.492188 115.429688 58.492188 115.429688 C 58.492188 118.585938 84.195312 121.144531 115.910156 121.144531 C 147.617188 121.144531 173.324219 118.585938 173.324219 115.429688 C 175.648438 68.339844 156.140625 63.3125 156.140625 63.3125 Z M 156.140625 63.3125 " fill-opacity="1" fill-rule="nonzero"/><path fill="#e83c37" d="M 116.003906 104.535156 C 84.238281 104.535156 59.171875 102.175781 59.171875 99.019531 C 59.171875 99.019531 58.566406 104.210938 58.484375 107.085938 C 58.371094 110.953125 58.484375 112.382812 58.484375 112.382812 C 58.484375 115.539062 84.234375 118.097656 116 118.097656 C 147.765625 118.097656 173.515625 115.539062 173.515625 112.382812 C 173.515625 112.382812 173.675781 108.371094 173.605469 106.414062 C 173.492188 103.359375 173.515625 103.050781 173.191406 98.820312 C 173.191406 101.976562 147.765625 104.535156 116.003906 104.535156 Z M 116.003906 104.535156 " fill-opacity="1" fill-rule="nonzero"/><path fill="#131328" d="M 172.542969 156.628906 C 172.457031 155.480469 169.296875 154.785156 165.484375 155.082031 L 164.488281 155.160156 C 160.5625 147.636719 152.261719 149.550781 140.484375 153.074219 C 127.996094 156.8125 100.3125 156.996094 86.15625 153.074219 C 74.316406 149.796875 66.0625 147.726562 62.152344 155.167969 L 61.050781 155.082031 C 57.238281 154.785156 54.078125 155.480469 53.992188 156.628906 L 53.019531 169.128906 C 52.929688 170.28125 55.941406 171.453125 59.753906 171.746094 L 60.503906 171.804688 C 62.847656 182.394531 71.425781 190.996094 82.796875 192.804688 C 96.648438 195.003906 109.710938 186.347656 113.320312 173.140625 C 116.929688 186.347656 129.992188 195.003906 143.84375 192.804688 C 155.21875 190.996094 163.796875 182.390625 166.140625 171.796875 L 166.78125 171.746094 C 170.589844 171.453125 173.605469 170.28125 173.515625 169.128906 Z M 172.542969 156.628906 " fill-opacity="1" fill-rule="nonzero"/><path fill="#b9bdba" d="M 157.285156 165.835938 C 159.417969 174.675781 153.972656 183.570312 145.121094 185.699219 C 136.265625 187.832031 127.359375 182.390625 125.230469 173.550781 C 123.097656 164.707031 132.339844 164.007812 141.195312 161.875 C 150.046875 159.746094 155.152344 156.996094 157.285156 165.835938 Z M 157.285156 165.835938 " fill-opacity="1" fill-rule="nonzero"/><path fill="#ffffff" d="M 71.027344 165.835938 C 68.894531 174.675781 74.34375 183.570312 83.195312 185.699219 C 92.046875 187.832031 100.953125 182.390625 103.085938 173.550781 C 105.21875 164.707031 95.972656 164.007812 87.121094 161.875 C 78.265625 159.746094 73.160156 156.996094 71.027344 165.835938 Z M 71.027344 165.835938 " fill-opacity="1" fill-rule="nonzero"/><g clip-path="url(#id4)"><path fill="#8f4c15" d="M 218.457031 119.859375 C 208.195312 112.257812 176.773438 106.558594 138.679688 104.914062 C 131.699219 120.105469 122.773438 134.417969 112.070312 147.417969 C 113.375 147.425781 114.683594 147.433594 116.003906 147.433594 C 173.578125 147.433594 220.253906 137.808594 220.253906 125.929688 C 220.253906 123.929688 220.941406 121.699219 218.457031 119.859375 Z M 218.457031 119.859375 " fill-opacity="1" fill-rule="nonzero"/></g><g clip-path="url(#id5)"><path fill="#f28b30" d="M 139.875 102.28125 C 133.195312 117.40625 124.585938 131.6875 114.238281 144.714844 C 114.835938 144.71875 115.429688 144.722656 116.027344 144.722656 C 173.605469 144.722656 220.28125 135.09375 220.28125 123.21875 C 220.28125 113.035156 185.960938 104.503906 139.875 102.28125 Z M 139.875 102.28125 " fill-opacity="1" fill-rule="nonzero"/></g><path fill="#f39546" d="M 156.140625 63.3125 C 154.910156 63.066406 153.707031 62.875 152.527344 62.71875 C 148.3125 83.191406 140.816406 102.882812 130.386719 120.960938 C 155.089844 120.324219 173.324219 118.089844 173.324219 115.429688 C 175.648438 68.339844 156.140625 63.3125 156.140625 63.3125 Z M 156.140625 63.3125 " fill-opacity="1" fill-rule="nonzero"/><path fill="#b33129" d="M 173.605469 106.414062 C 173.492188 103.359375 173.515625 103.050781 173.191406 98.820312 C 173.191406 101.160156 159.226562 103.167969 139.074219 104.050781 C 136.945312 108.746094 134.628906 113.355469 132.132812 117.867188 C 156.042969 117.175781 173.515625 114.984375 173.515625 112.382812 C 173.515625 112.382812 173.675781 108.371094 173.605469 106.414062 Z M 173.605469 106.414062 " fill-opacity="1" fill-rule="nonzero"/><path fill="#131328" d="M 172.542969 156.628906 C 172.457031 155.480469 169.296875 154.785156 165.484375 155.082031 L 164.488281 155.160156 C 160.5625 147.636719 152.261719 149.550781 140.484375 153.074219 C 132.378906 155.5 117.875 156.425781 104.820312 155.707031 C 103.089844 157.578125 101.332031 159.425781 99.527344 161.230469 C 90.140625 170.605469 79.84375 178.925781 68.855469 186.125 C 72.628906 189.535156 77.390625 191.945312 82.796875 192.800781 C 96.648438 195 109.710938 186.347656 113.320312 173.136719 C 116.929688 186.347656 129.992188 195 143.84375 192.800781 C 155.21875 190.996094 163.796875 182.390625 166.140625 171.796875 L 166.78125 171.746094 C 170.589844 171.453125 173.605469 170.277344 173.515625 169.128906 Z M 172.542969 156.628906 " fill-opacity="1" fill-rule="nonzero"/><path fill="#dadada" d="M 157.285156 165.835938 C 159.417969 174.675781 153.972656 183.570312 145.121094 185.699219 C 136.265625 187.832031 127.359375 182.390625 125.230469 173.550781 C 123.097656 164.707031 132.339844 164.007812 141.195312 161.875 C 150.046875 159.746094 155.152344 156.996094 157.285156 165.835938 Z M 157.285156 165.835938 " fill-opacity="1" fill-rule="nonzero"/><path fill="#dadada" d="M 96.53125 164.148438 C 89.949219 170.441406 82.941406 176.234375 75.59375 181.503906 C 77.640625 183.492188 80.21875 184.984375 83.195312 185.699219 C 92.046875 187.832031 100.953125 182.390625 103.085938 173.550781 C 104.425781 167.988281 101.265625 165.648438 96.53125 164.148438 Z M 96.53125 164.148438 " fill-opacity="1" fill-rule="nonzero"/></svg>