<svg xmlns="http://www.w3.org/2000/svg" xmlns:xlink="http://www.w3.org/1999/xlink" width="311" zoomAndPan="magnify" viewBox="0 0 233.25 233.249995" height="311" preserveAspectRatio="xMidYMid meet" version="1.0"><defs><clipPath id="id1"><path d="M 0 0 L 232.503906 0 L 232.503906 232.503906 L 0 232.503906 Z M 0 0 " clip-rule="nonzero"/></clipPath><clipPath id="id2"><path d="M 61 212 L 168 212 L 168 232.269531 L 61 232.269531 Z M 61 212 " clip-rule="nonzero"/></clipPath></defs><g clip-path="url(#id1)"><path fill="#f4f6fc" d="M 0 0 L 232.503906 0 L 232.503906 232.503906 L 0 232.503906 Z M 0 0 " fill-opacity="1" fill-rule="nonzero"/><path fill="#ffffff" d="M 0 0 L 232.503906 0 L 232.503906 232.503906 L 0 232.503906 Z M 0 0 " fill-opacity="1" fill-rule="nonzero"/><path fill="#f4f6fc" d="M 0 0 L 232.503906 0 L 232.503906 232.503906 L 0 232.503906 Z M 0 0 " fill-opacity="1" fill-rule="nonzero"/></g><g clip-path="url(#id2)"><path fill="#86097f" d="M 156.941406 212.753906 C 156.308594 214.886719 155.632812 216.824219 154.960938 218.640625 C 158.601562 223.222656 161.253906 224.089844 163.035156 223.972656 C 163.90625 223.933594 165.171875 223.578125 166.242188 224.328125 C 167.390625 225.078125 167.707031 226.617188 167.785156 227.765625 C 158.644531 227.804688 149.5 227.882812 140.355469 227.921875 C 140.394531 225.394531 140.394531 222.867188 140.4375 220.339844 C 139.761719 219.46875 138.257812 217.492188 137.230469 214.609375 Z M 78.253906 214.53125 C 78.097656 216.625 78.015625 218.519531 78.015625 220.179688 C 72.4375 227.171875 68.953125 228.476562 66.777344 228.199219 C 66.183594 228.121094 64.597656 227.804688 63.253906 228.671875 C 61.945312 229.503906 61.433594 231.082031 61.195312 232.269531 C 72.316406 232.269531 83.4375 232.269531 94.523438 232.269531 L 95.035156 221.007812 C 96.261719 220.457031 98.242188 219.390625 100.222656 217.453125 Z M 78.253906 214.53125 " fill-opacity="1" fill-rule="nonzero"/></g><path fill="#55c5d1" d="M 147.679688 151.800781 C 150.132812 151.921875 152.585938 152 155.039062 152.117188 M 155.039062 152.117188 C 156.425781 155.476562 157.691406 159.070312 158.722656 162.980469 C 163.828125 182.535156 160.820312 200.390625 157.019531 212.792969 C 154.804688 213.664062 151.636719 214.769531 147.679688 215.203125 C 143.285156 215.675781 139.605469 215.125 137.230469 214.570312 C 136.558594 212.636719 136.042969 210.34375 136.160156 207.738281 C 136.28125 204.695312 137.191406 202.246094 137.980469 200.707031 C 136.28125 200.230469 133.824219 199.285156 131.492188 197.269531 C 125.75 192.332031 125.472656 185.0625 125.472656 183.640625 C 124.921875 186.917969 122.703125 197.546875 113.363281 204.417969 C 110.511719 206.511719 107.664062 207.777344 105.25 208.566406 C 104.890625 210.148438 103.980469 213.265625 101.449219 216.269531 C 101.054688 216.742188 100.65625 217.136719 100.261719 217.535156 C 97.726562 218.203125 93.253906 219.035156 87.832031 218.085938 C 83.597656 217.335938 80.351562 215.796875 78.292969 214.609375 C 79.046875 204.183594 81.777344 188.777344 90.878906 172.855469 C 96.621094 162.785156 103.308594 155.316406 108.8125 150.183594 C 121.753906 150.695312 134.734375 151.289062 147.679688 151.800781 " fill-opacity="1" fill-rule="nonzero"/><path fill="#d36643" d="M 174 122.925781 C 172.851562 125.769531 171.46875 128.773438 169.804688 131.890625 M 169.804688 131.890625 C 165.015625 140.820312 159.472656 147.417969 154.960938 152.039062 C 151.597656 154.171875 145.820312 157.175781 138.179688 158.082031 C 123.058594 159.898438 111.738281 152.277344 108.730469 150.101562 C 108.730469 147.773438 108.730469 145.441406 108.730469 143.109375 C 104.0625 141.136719 98.003906 137.976562 91.832031 132.839844 C 87.792969 129.484375 84.625 126.046875 82.253906 123.082031 C 81.699219 123.4375 80.628906 124.03125 79.125 124.230469 C 77.699219 124.425781 76.511719 124.191406 75.878906 123.992188 C 77.1875 126.679688 78.730469 129.484375 80.429688 132.40625 C 82.292969 135.527344 84.152344 138.410156 85.972656 141.015625 C 89.019531 138.371094 92.542969 138.332031 93.890625 139.832031 C 94.839844 140.898438 94.601562 142.675781 94.441406 143.308594 C 97.292969 149.472656 94.207031 156.582031 88.503906 158.675781 C 83.519531 160.492188 77.460938 158.160156 74.8125 152.867188 C 52.011719 153.855469 34.714844 143.941406 31.867188 131.339844 C 31.3125 128.851562 30.757812 123.753906 34.242188 116.722656 C 34.4375 109.097656 36.257812 103.214844 38.238281 98.988281 C 47.699219 78.5625 73.425781 66.753906 103.625 66.871094 C 106.355469 67.03125 109.046875 67.1875 111.777344 67.34375 L 111.777344 53.71875 L 138.535156 53.71875 L 138.535156 68.886719 C 138.535156 68.886719 138.535156 68.886719 138.574219 68.886719 C 143.046875 67.703125 148.351562 66.632812 154.328125 66.121094 C 163.511719 65.292969 171.507812 65.921875 177.71875 66.871094 C 178.15625 64.699219 178.511719 62.328125 178.75 59.722656 C 179.066406 56.523438 179.105469 53.558594 179.027344 50.953125 C 176.453125 50.476562 167.707031 48.660156 167.191406 44.789062 C 166.558594 40.050781 178.15625 31.910156 184.6875 35.785156 C 188.089844 37.796875 188.84375 42.339844 189.039062 43.839844 C 208.394531 58.972656 216.746094 78.128906 211.007812 90.058594 C 209.820312 92.507812 207.484375 95.90625 202.261719 98.867188 C 200.441406 101.753906 196.402344 107.28125 189.121094 111.191406 C 184.25 113.800781 179.699219 114.75 176.691406 115.105469 C 175.980469 117.511719 175.109375 120.121094 174 122.925781 " fill-opacity="1" fill-rule="nonzero"/><path fill="#86097f" d="M 140.792969 65.488281 C 140.59375 58.8125 140.4375 53.71875 136.476562 49.6875 C 135.410156 48.582031 134.261719 47.753906 133.113281 47.121094 C 133.074219 47.121094 133.074219 47.082031 133.035156 47.082031 C 129.511719 45.144531 125.988281 45.066406 125.195312 45.027344 C 124.367188 45.027344 120.527344 44.949219 116.886719 47.003906 C 116.84375 47.042969 116.765625 47.042969 116.726562 47.082031 C 115.816406 47.59375 114.945312 48.265625 114.113281 49.054688 C 110.433594 52.652344 110.316406 57.3125 110.078125 65.015625 C 109.839844 74.023438 109.601562 81.566406 114.945312 86.03125 C 118.507812 88.992188 122.941406 89.230469 124.246094 89.230469 C 124.921875 89.269531 131.410156 89.386719 136.199219 84.726562 C 141.265625 79.945312 141.070312 73.113281 140.792969 65.488281 Z M 124.878906 84.171875 C 120.722656 83.660156 116.332031 80.066406 116.765625 76.867188 C 117.203125 73.429688 123.058594 71.730469 126.898438 71.691406 C 130.460938 71.652344 135.726562 73.074219 136.320312 75.878906 C 136.992188 79.273438 130.855469 84.882812 124.878906 84.171875 Z M 138.101562 59.761719 C 139.367188 61.378906 137.742188 66.949219 133.785156 67.34375 C 130.777344 67.660156 127.886719 64.777344 128.125 62.84375 C 128.523438 59.878906 136.476562 57.746094 138.101562 59.761719 Z M 114.789062 59.839844 C 116.570312 57.589844 125.433594 60 125.871094 63.277344 C 126.148438 65.410156 122.941406 68.609375 119.578125 68.253906 C 115.222656 67.859375 113.402344 61.65625 114.789062 59.839844 Z M 114.789062 59.839844 " fill-opacity="1" fill-rule="nonzero"/><path fill="#55c5d1" d="M 139.207031 75.878906 C 138.496094 72.242188 131.726562 70.464844 127.175781 70.503906 C 122.226562 70.546875 114.746094 72.71875 114.195312 77.140625 C 113.679688 81.25 119.261719 85.871094 124.601562 86.503906 C 132.203125 87.414062 140.078125 80.261719 139.207031 75.878906 Z M 124.878906 84.171875 C 120.722656 83.660156 116.332031 80.066406 116.765625 76.867188 C 117.203125 73.429688 123.058594 71.730469 126.898438 71.691406 C 130.460938 71.652344 135.726562 73.074219 136.320312 75.878906 C 136.992188 79.273438 130.855469 84.882812 124.878906 84.171875 Z M 138.296875 56.085938 C 137.347656 55.140625 136.238281 54.664062 135.488281 54.429688 C 135.726562 55.257812 135.882812 56.484375 135.25 57.351562 C 134.417969 58.535156 132.796875 58.140625 130.738281 58.734375 C 129.433594 59.128906 127.847656 59.917969 126.699219 60.984375 C 125.472656 59.761719 123.652344 58.851562 122.1875 58.417969 C 119.933594 57.746094 118.191406 58.179688 117.242188 56.878906 C 116.527344 55.929688 116.726562 54.585938 116.964844 53.679688 C 116.132812 53.914062 114.945312 54.429688 113.875 55.496094 C 111.144531 58.21875 111.027344 63.199219 113.164062 66.554688 C 113.519531 67.148438 115.738281 70.464844 119.578125 70.664062 C 122.425781 70.820312 125.195312 69.203125 126.78125 67.226562 C 128.285156 68.847656 130.621094 70.070312 132.996094 69.914062 C 136.515625 69.714844 138.535156 66.675781 138.851562 66.160156 C 140.910156 63.117188 140.792969 58.617188 138.296875 56.085938 Z M 119.578125 68.292969 C 115.183594 67.820312 113.402344 61.617188 114.789062 59.839844 C 116.570312 57.589844 125.433594 60 125.871094 63.277344 C 126.148438 65.449219 122.941406 68.648438 119.578125 68.292969 Z M 133.785156 67.34375 C 130.777344 67.660156 127.886719 64.777344 128.125 62.84375 C 128.523438 59.878906 136.476562 57.707031 138.101562 59.761719 C 139.328125 61.378906 137.742188 66.949219 133.785156 67.34375 Z M 116.726562 47.121094 C 117.953125 46.371094 121.042969 44.75 125.238281 44.828125 C 129.117188 44.910156 131.886719 46.410156 133.113281 47.160156 C 130.539062 49.332031 129.195312 51.542969 128.480469 53.242188 C 127.570312 55.457031 127.335938 57.507812 126.621094 57.507812 C 125.949219 57.550781 125.511719 55.769531 125 54.507812 C 124.128906 52.375 122.070312 49.570312 116.726562 47.121094 Z M 116.726562 47.121094 " fill-opacity="1" fill-rule="nonzero"/><path fill="#000000" d="M 105.800781 88.675781 C 111.738281 88.28125 117.480469 89.347656 122.863281 91.875 C 123.140625 91.996094 122.902344 92.429688 122.625 92.3125 C 117.28125 89.824219 111.660156 88.796875 105.800781 89.191406 C 105.484375 89.191406 105.484375 88.714844 105.800781 88.675781 Z M 132.242188 123.558594 C 126.105469 124.902344 119.855469 125.570312 113.558594 125.375 C 107.1875 125.175781 100.378906 123.875 96.855469 117.949219 C 96.699219 117.671875 96.261719 117.910156 96.421875 118.183594 C 99.3125 123.042969 104.496094 125.019531 109.917969 125.613281 C 117.359375 126.402344 125.078125 125.570312 132.359375 124.03125 C 132.679688 123.953125 132.558594 123.476562 132.242188 123.558594 Z M 173.839844 116.882812 C 166.519531 121.34375 158.167969 123.121094 149.65625 122.136719 C 149.339844 122.097656 149.339844 122.609375 149.65625 122.609375 C 158.246094 123.636719 166.71875 121.78125 174.078125 117.277344 C 174.355469 117.15625 174.078125 116.722656 173.839844 116.882812 Z M 133.863281 137.144531 C 136.515625 136.160156 139.128906 135.050781 141.742188 133.90625 C 142.019531 133.789062 141.78125 133.355469 141.503906 133.472656 C 137.585938 135.210938 133.46875 137.066406 129.3125 138.210938 C 123.414062 139.832031 120.210938 135.683594 117.558594 131.140625 C 117.398438 130.867188 116.964844 131.101562 117.121094 131.378906 C 118.546875 133.828125 120.289062 136.632812 122.78125 138.132812 C 122.742188 138.171875 122.742188 138.253906 122.742188 138.332031 C 123.496094 141.058594 123.179688 146.035156 127.136719 146.230469 C 127.453125 146.230469 127.453125 145.757812 127.136719 145.757812 C 123.613281 145.601562 123.851562 140.976562 123.257812 138.449219 C 124.167969 138.925781 125.15625 139.199219 126.265625 139.238281 C 128.878906 139.320312 131.53125 138.015625 133.863281 137.144531 Z M 161.253906 123.992188 C 159.949219 127.074219 160.027344 130.746094 158.285156 133.628906 C 155.632812 137.976562 149.65625 136.199219 145.265625 134.578125 C 145.226562 134.382812 145.027344 134.382812 144.90625 134.460938 C 144.394531 134.261719 143.878906 134.066406 143.445312 133.90625 C 143.128906 133.789062 143.007812 134.261719 143.324219 134.382812 C 143.800781 134.539062 144.316406 134.738281 144.828125 134.972656 C 145.460938 139.28125 143.445312 143.464844 139.683594 145.640625 C 139.40625 145.796875 139.644531 146.230469 139.921875 146.074219 C 143.800781 143.820312 145.859375 139.554688 145.34375 135.171875 C 148.628906 136.394531 152.902344 137.855469 155.953125 136.515625 C 155.714844 139.476562 154.40625 145.246094 150.886719 145.285156 C 150.566406 145.285156 150.566406 145.796875 150.886719 145.757812 C 154.882812 145.71875 156.226562 139.398438 156.464844 136.238281 C 156.585938 136.160156 156.742188 136.078125 156.863281 136 C 160.542969 133.394531 160.148438 127.980469 161.730469 124.230469 C 161.808594 123.953125 161.375 123.714844 161.253906 123.992188 Z M 161.253906 123.992188 " fill-opacity="1" fill-rule="nonzero"/><path fill="#55c5d1" d="M 156.308594 105.109375 C 156.148438 102.34375 155.871094 99.660156 155.515625 97.128906 M 155.515625 97.089844 C 153.535156 83.460938 149.0625 73.074219 146.054688 67.226562 C 146.730469 66.832031 147.917969 66.238281 149.539062 66.042969 C 150.886719 65.882812 152.03125 66.082031 152.746094 66.277344 C 156.542969 74.140625 161.847656 87.808594 162.441406 105.542969 C 163.273438 128.375 155.792969 145.757812 151.558594 153.972656 C 151.480469 155.59375 150.488281 157.054688 148.984375 157.6875 C 148.3125 157.964844 147.640625 158.042969 146.925781 157.964844 C 146.332031 159.664062 145.777344 161.359375 145.183594 163.058594 L 116.726562 160.609375 L 117.597656 156.1875 C 117.359375 155.792969 117.164062 155.355469 117.082031 154.882812 C 118.230469 144.613281 118.863281 127.585938 113.285156 107.71875 C 108.019531 88.875 99.351562 75.207031 93.296875 67.109375 C 93.53125 66.714844 94.007812 65.964844 94.878906 65.527344 C 96.304688 64.855469 98.164062 65.292969 99.507812 66.632812 C 103.902344 72.558594 108.375 79.75 112.214844 88.203125 C 120.128906 105.503906 122.78125 122.175781 123.257812 135.882812 C 126.066406 141.292969 131.449219 144.929688 137.46875 145.363281 C 143.085938 145.757812 148.511719 143.269531 152.113281 139.003906 C 154.566406 131.179688 156.464844 121.503906 156.464844 110.441406 C 156.464844 108.625 156.425781 106.847656 156.308594 105.109375 " fill-opacity="1" fill-rule="nonzero"/><path fill="#f3f3f3" d="M 121.359375 63.710938 C 120.960938 63.988281 120.488281 64.183594 120.011719 64.183594 C 119.578125 64.183594 119.179688 64.027344 118.785156 63.789062 C 118.074219 63.394531 117.4375 62.804688 117.242188 62.050781 C 117.082031 61.460938 117.203125 60.828125 117.359375 60.195312 L 122.980469 61.617188 C 122.664062 62.488281 122.109375 63.238281 121.359375 63.710938 Z M 130.421875 62.210938 C 130.5 62.960938 130.898438 63.671875 131.492188 64.183594 C 132.085938 64.660156 132.835938 64.9375 133.589844 64.898438 C 133.785156 64.898438 133.945312 64.855469 134.140625 64.777344 C 134.378906 64.699219 134.617188 64.5 134.816406 64.304688 C 135.765625 63.316406 136.199219 61.816406 135.921875 60.472656 Z M 122.664062 73.902344 C 121.515625 75.324219 121.59375 77.183594 121.714844 78.167969 C 121.992188 78.722656 122.464844 79.195312 123.019531 79.511719 C 124.328125 80.261719 125.949219 80.222656 127.375 79.710938 C 128.757812 79.15625 129.945312 78.167969 130.9375 77.023438 C 131.808594 76.035156 132.519531 74.890625 133.074219 73.707031 C 128.917969 71.136719 124.484375 71.574219 122.664062 73.902344 Z M 206.179688 78.644531 C 205.546875 73.269531 204.792969 67.976562 202.578125 63 C 202.0625 61.855469 200.359375 62.84375 200.875 63.988281 C 202.933594 68.648438 203.605469 73.625 204.199219 78.644531 C 204.359375 79.90625 206.335938 79.90625 206.179688 78.644531 Z M 205.464844 81.566406 C 204.953125 81.449219 204.398438 81.722656 204.238281 82.238281 C 204.121094 82.710938 204.003906 83.1875 203.882812 83.660156 C 203.765625 84.171875 204.042969 84.765625 204.554688 84.882812 C 205.070312 85.003906 205.625 84.726562 205.785156 84.214844 C 205.902344 83.738281 206.019531 83.265625 206.140625 82.792969 C 206.257812 82.277344 205.980469 81.683594 205.464844 81.566406 Z M 53.4375 139.398438 C 49.675781 136.355469 46.75 132.5625 44.886719 128.0625 C 44.414062 126.914062 42.511719 127.429688 42.988281 128.574219 C 44.96875 133.394531 48.015625 137.5 52.050781 140.78125 C 53.042969 141.570312 54.425781 140.1875 53.4375 139.398438 Z M 58.148438 141.886719 C 57.632812 141.730469 57.078125 141.570312 56.5625 141.414062 C 56.050781 141.253906 55.457031 141.570312 55.335938 142.085938 C 55.21875 142.597656 55.496094 143.152344 56.011719 143.308594 C 56.523438 143.464844 57.078125 143.625 57.59375 143.78125 C 58.109375 143.941406 58.703125 143.625 58.820312 143.109375 C 58.9375 142.558594 58.660156 142.042969 58.148438 141.886719 Z M 75.007812 77.183594 C 73.386719 77.734375 71.921875 78.523438 70.535156 79.550781 C 69.507812 80.300781 70.496094 82 71.527344 81.25 C 72.753906 80.34375 74.097656 79.632812 75.523438 79.078125 C 76.710938 78.644531 76.195312 76.746094 75.007812 77.183594 Z M 75.007812 77.183594 " fill-opacity="1" fill-rule="nonzero"/><path fill="#000000" d="M 114.945312 86.109375 C 114.945312 86.070312 115.421875 86.542969 116.371094 87.136719 C 120.289062 89.585938 124.5625 89.347656 125.75 89.269531 C 126.820312 89.191406 130.304688 88.875 133.746094 86.703125 C 135.410156 85.636719 136.160156 84.765625 136.199219 84.804688 C 136.320312 84.925781 131.214844 92.746094 125.195312 92.707031 C 119.695312 92.707031 114.867188 86.1875 114.945312 86.109375 Z M 115.976562 59.800781 C 115.738281 59.246094 115.976562 58.535156 116.371094 58.101562 C 118.113281 56.167969 124.683594 58.300781 124.878906 60.433594 C 124.921875 60.984375 124.5625 61.617188 124.089844 61.894531 C 123.773438 62.09375 123.414062 62.09375 122.980469 62.011719 C 122.308594 63.433594 120.882812 64.898438 119.21875 64.34375 C 117.320312 63.75 116.6875 62.210938 116.964844 60.433594 C 116.449219 60.3125 116.132812 60.15625 115.976562 59.800781 Z M 117.480469 60.550781 C 117.242188 62.050781 117.753906 63.355469 119.378906 63.871094 C 120.765625 64.304688 121.992188 63.039062 122.546875 61.855469 C 122.386719 61.816406 122.226562 61.734375 122.070312 61.695312 L 122.070312 61.734375 C 122.070312 62.289062 121.632812 62.722656 121.082031 62.722656 C 120.527344 62.722656 120.089844 62.289062 120.089844 61.734375 C 120.089844 61.5 120.171875 61.300781 120.328125 61.105469 C 119.101562 60.789062 118.152344 60.667969 117.480469 60.550781 Z M 122.664062 56.324219 C 123.652344 56.917969 124.5625 57.667969 125.355469 58.496094 C 125.59375 58.734375 125.910156 58.378906 125.710938 58.140625 C 124.878906 57.273438 123.929688 56.523438 122.902344 55.890625 C 122.625 55.730469 122.386719 56.167969 122.664062 56.324219 Z M 128.640625 59.328125 C 129.234375 57.863281 129.945312 56.484375 130.777344 55.179688 C 130.9375 54.902344 130.539062 54.664062 130.34375 54.941406 C 129.472656 56.285156 128.757812 57.707031 128.164062 59.207031 C 128.046875 59.484375 128.523438 59.601562 128.640625 59.328125 Z M 128.5625 57.589844 C 128.640625 57.351562 128.71875 57.074219 128.800781 56.839844 C 128.878906 56.523438 128.402344 56.402344 128.324219 56.71875 C 128.246094 56.957031 128.164062 57.234375 128.085938 57.46875 C 128.007812 57.746094 128.480469 57.863281 128.5625 57.589844 Z M 122.226562 64.738281 C 121.753906 65.210938 121.238281 65.648438 120.722656 66.042969 C 120.488281 66.238281 120.722656 66.675781 120.960938 66.476562 C 121.515625 66.042969 122.070312 65.609375 122.585938 65.09375 C 122.820312 64.855469 122.464844 64.5 122.226562 64.738281 Z M 122.78125 66.320312 C 122.941406 66.160156 123.097656 65.964844 123.21875 65.765625 C 123.375 65.488281 122.980469 65.253906 122.78125 65.527344 C 122.664062 65.6875 122.546875 65.84375 122.425781 65.964844 C 122.1875 66.199219 122.546875 66.554688 122.78125 66.320312 Z M 132.996094 66.398438 C 132.28125 65.882812 131.570312 65.332031 130.898438 64.816406 C 130.660156 64.621094 130.382812 65.054688 130.660156 65.253906 C 131.371094 65.765625 132.085938 66.320312 132.757812 66.832031 C 132.996094 66.988281 133.269531 66.554688 132.996094 66.398438 Z M 131.570312 66.199219 C 131.332031 66.003906 130.976562 66.359375 131.214844 66.554688 C 131.410156 66.714844 131.648438 66.871094 131.886719 66.988281 C 132.164062 67.109375 132.441406 66.714844 132.125 66.554688 C 131.925781 66.4375 131.726562 66.320312 131.570312 66.199219 Z M 125 69.953125 C 128.125 69.992188 129.035156 65.648438 129.195312 62.527344 C 128.757812 62.171875 128.601562 61.5 128.679688 60.945312 C 129.15625 58.417969 135.84375 56.757812 137.148438 58.457031 C 137.507812 58.890625 137.507812 59.644531 137.269531 60.117188 C 137.070312 60.511719 136.714844 60.710938 136.238281 60.828125 C 136.398438 62.367188 135.84375 64.460938 134.261719 65.054688 C 132.519531 65.726562 130.816406 64.265625 130.34375 62.683594 C 130.105469 62.761719 129.90625 62.804688 129.75 62.761719 C 129.550781 66.121094 128.601562 70.503906 125.078125 70.464844 C 124.683594 70.425781 124.683594 69.953125 125 69.953125 Z M 134.023438 61.300781 C 133.945312 61.339844 133.824219 61.339844 133.746094 61.378906 C 133.90625 61.578125 134.023438 61.816406 134.023438 62.050781 C 134.023438 62.605469 133.589844 63.039062 133.035156 63.039062 C 132.480469 63.039062 132.042969 62.605469 132.042969 62.050781 C 132.042969 62.011719 132.042969 61.972656 132.042969 61.933594 C 131.53125 62.132812 131.09375 62.328125 130.738281 62.449219 C 131.171875 63.828125 132.757812 65.292969 134.261719 64.421875 C 135.410156 63.789062 135.804688 62.171875 135.726562 60.90625 C 135.25 61.023438 134.695312 61.144531 134.023438 61.300781 Z M 125.472656 67.503906 C 125.511719 67.742188 125.59375 68.015625 125.632812 68.253906 C 125.710938 68.570312 126.1875 68.453125 126.105469 68.136719 C 126.066406 67.898438 125.988281 67.621094 125.949219 67.386719 C 125.871094 67.070312 125.394531 67.1875 125.472656 67.503906 Z M 126.9375 67.703125 C 126.976562 67.503906 127.019531 67.34375 127.058594 67.148438 C 127.097656 66.832031 126.621094 66.714844 126.582031 67.03125 C 126.542969 67.226562 126.503906 67.386719 126.464844 67.582031 C 126.382812 67.859375 126.859375 68.015625 126.9375 67.703125 Z M 131.847656 76.195312 C 130.699219 77.8125 129.273438 79.234375 127.414062 79.945312 C 125.59375 80.617188 123.496094 80.421875 122.148438 79.117188 C 121.992188 79.394531 121.753906 79.632812 121.4375 79.867188 C 120.722656 80.34375 119.695312 80.617188 118.824219 80.261719 C 117.398438 79.671875 117.082031 77.539062 117.320312 76.15625 C 117.636719 74.179688 119.261719 73.074219 119.617188 72.835938 C 121.316406 71.691406 122.386719 72.285156 125.988281 71.53125 C 129.273438 70.820312 129.195312 70.148438 130.738281 70.269531 C 134.222656 70.503906 137.585938 74.257812 136.992188 76.074219 C 136.636719 77.140625 134.734375 77.8125 133.351562 77.417969 C 132.597656 77.140625 132.203125 76.707031 131.847656 76.195312 Z M 130.261719 74.496094 C 130.027344 74.378906 129.75 74.257812 129.511719 74.140625 C 129.550781 74.378906 129.589844 74.652344 129.628906 74.890625 C 129.90625 74.773438 130.144531 74.691406 130.421875 74.574219 C 130.34375 74.574219 130.304688 74.535156 130.261719 74.496094 Z M 123.613281 75.363281 C 123.496094 75.484375 123.375 75.640625 123.296875 75.757812 L 123.296875 75.800781 C 123.414062 76.195312 123.535156 76.589844 123.613281 76.984375 C 124.050781 76.828125 124.484375 76.667969 124.921875 76.511719 C 124.878906 75.917969 124.800781 75.324219 124.761719 74.691406 C 124.722656 74.378906 125.238281 74.378906 125.238281 74.691406 C 125.277344 75.246094 125.355469 75.800781 125.394531 76.3125 C 125.988281 76.113281 126.582031 75.917969 127.175781 75.71875 C 127.136719 75.324219 127.136719 74.890625 127.097656 74.496094 C 127.058594 74.179688 127.570312 74.179688 127.570312 74.496094 C 127.613281 74.851562 127.613281 75.207031 127.652344 75.5625 C 128.125 75.402344 128.640625 75.246094 129.117188 75.046875 C 129.035156 74.691406 128.996094 74.335938 128.917969 73.980469 C 127.097656 73.585938 124.800781 74.0625 123.613281 75.363281 Z M 122.703125 77.378906 C 122.863281 77.300781 123.019531 77.222656 123.21875 77.183594 C 123.140625 76.90625 123.058594 76.667969 122.980469 76.390625 C 122.863281 76.746094 122.78125 77.0625 122.703125 77.378906 Z M 123.890625 79.632812 C 123.691406 78.960938 123.535156 78.328125 123.335938 77.65625 C 123.058594 77.773438 122.820312 77.894531 122.585938 78.011719 C 122.546875 78.25 122.464844 78.445312 122.386719 78.644531 C 122.820312 79.117188 123.335938 79.433594 123.890625 79.632812 Z M 125.316406 79.828125 C 125.316406 79.789062 125.277344 79.789062 125.277344 79.75 C 125.15625 78.839844 125.078125 77.933594 125 76.984375 C 124.601562 77.140625 124.167969 77.300781 123.773438 77.457031 C 123.96875 78.207031 124.207031 79 124.40625 79.75 C 124.722656 79.828125 125 79.828125 125.316406 79.828125 Z M 127.453125 79.316406 C 127.414062 79.273438 127.375 79.234375 127.375 79.15625 C 127.375 78.167969 127.292969 77.222656 127.253906 76.234375 C 126.660156 76.429688 126.066406 76.628906 125.511719 76.828125 C 125.59375 77.8125 125.671875 78.761719 125.789062 79.75 L 125.789062 79.789062 C 126.34375 79.710938 126.898438 79.550781 127.453125 79.316406 Z M 129.667969 77.933594 C 129.710938 77.894531 129.75 77.851562 129.789062 77.8125 C 129.667969 77.8125 129.511719 77.734375 129.472656 77.578125 C 129.390625 76.90625 129.3125 76.234375 129.234375 75.5625 C 128.71875 75.757812 128.246094 75.917969 127.730469 76.074219 C 127.808594 77.101562 127.847656 78.128906 127.886719 79.117188 C 128.5625 78.800781 129.15625 78.40625 129.667969 77.933594 Z M 131.570312 75.757812 C 131.371094 75.484375 131.171875 75.207031 130.855469 74.929688 C 130.460938 75.089844 130.105469 75.246094 129.710938 75.402344 C 129.828125 76.113281 129.90625 76.867188 129.984375 77.617188 L 129.984375 77.65625 C 130.578125 77.0625 131.09375 76.429688 131.570312 75.757812 Z M 113.835938 72.046875 C 114.195312 71.335938 114.511719 70.625 114.789062 69.875 C 114.90625 69.558594 114.429688 69.4375 114.3125 69.753906 C 114.035156 70.464844 113.757812 71.136719 113.402344 71.808594 C 113.242188 72.085938 113.679688 72.324219 113.835938 72.046875 Z M 115.816406 71.691406 C 116.054688 71.097656 116.292969 70.503906 116.527344 69.953125 C 116.648438 69.675781 116.171875 69.519531 116.054688 69.835938 C 115.816406 70.425781 115.578125 71.019531 115.339844 71.574219 C 115.222656 71.847656 115.699219 71.96875 115.816406 71.691406 Z M 135.210938 69.597656 C 135.527344 69.003906 135.804688 68.414062 136.121094 67.820312 C 136.28125 67.542969 135.84375 67.304688 135.6875 67.582031 C 135.371094 68.175781 135.09375 68.769531 134.777344 69.359375 C 134.65625 69.636719 135.09375 69.875 135.210938 69.597656 Z M 137.585938 69.597656 C 137.863281 68.964844 138.140625 68.292969 138.417969 67.660156 C 138.535156 67.386719 138.101562 67.109375 137.980469 67.425781 C 137.703125 68.058594 137.425781 68.726562 137.148438 69.359375 C 137.070312 69.636719 137.46875 69.875 137.585938 69.597656 Z M 82.09375 122.886719 C 87.675781 120.359375 91.394531 115.144531 91.949219 109.058594 C 91.988281 108.742188 91.472656 108.742188 91.472656 109.058594 C 90.921875 114.984375 87.277344 120.042969 81.855469 122.453125 C 81.578125 122.609375 81.816406 123.003906 82.09375 122.886719 Z M 86.210938 121.425781 C 88.070312 119.882812 89.613281 118.066406 90.800781 115.972656 C 90.960938 115.695312 90.523438 115.460938 90.367188 115.734375 C 89.21875 117.789062 87.675781 119.605469 85.855469 121.109375 C 85.617188 121.304688 85.933594 121.621094 86.210938 121.425781 Z M 75.878906 124.070312 C 76.039062 124.347656 76.472656 124.109375 76.316406 123.832031 C 71.644531 116.171875 64.597656 109.769531 55.140625 109.769531 C 54.824219 109.769531 54.824219 110.246094 55.140625 110.246094 C 64.441406 110.246094 71.328125 116.566406 75.878906 124.070312 Z M 64.796875 110.957031 C 66.65625 112.023438 68.398438 113.285156 69.980469 114.75 C 70.21875 114.945312 70.574219 114.628906 70.339844 114.394531 C 68.714844 112.929688 66.972656 111.628906 65.074219 110.523438 C 64.796875 110.402344 64.519531 110.796875 64.796875 110.957031 Z M 201.191406 98.277344 C 199.6875 98.277344 198.222656 98.277344 196.71875 98.277344 C 196.402344 98.277344 196.402344 98.75 196.71875 98.75 C 198.222656 98.75 199.6875 98.75 201.191406 98.75 C 201.507812 98.789062 201.507812 98.277344 201.191406 98.277344 Z M 199.015625 99.222656 C 198.660156 99.34375 198.300781 99.382812 197.90625 99.304688 C 197.589844 99.261719 197.589844 99.777344 197.90625 99.777344 C 198.34375 99.816406 198.738281 99.777344 199.132812 99.660156 C 199.449219 99.617188 199.332031 99.144531 199.015625 99.222656 Z M 188.011719 47.003906 C 186.984375 48.425781 185.835938 49.964844 183.933594 50.082031 C 183.617188 50.082031 183.617188 50.597656 183.933594 50.558594 C 186.03125 50.4375 187.300781 48.820312 188.445312 47.238281 C 188.644531 46.960938 188.210938 46.726562 188.011719 47.003906 Z M 187.734375 48.660156 C 187.496094 49.136719 187.140625 49.53125 186.746094 49.804688 C 186.507812 50.003906 186.746094 50.398438 186.984375 50.242188 C 187.496094 49.886719 187.894531 49.449219 188.167969 48.898438 C 188.289062 48.660156 187.851562 48.382812 187.734375 48.660156 Z M 176.257812 68.214844 C 174.871094 71.296875 174.433594 74.535156 174.871094 77.894531 C 174.910156 78.207031 175.386719 78.089844 175.347656 77.773438 C 174.910156 74.574219 175.347656 71.453125 176.652344 68.492188 C 176.808594 68.175781 176.375 67.9375 176.257812 68.214844 Z M 174.515625 72.796875 C 174.59375 71.886719 174.792969 71.058594 175.148438 70.230469 C 175.265625 69.953125 174.832031 69.675781 174.710938 69.992188 C 174.316406 70.902344 174.078125 71.847656 174 72.835938 C 174 73.113281 174.476562 73.113281 174.515625 72.796875 Z M 133.824219 90.335938 C 137.824219 87.019531 142.652344 85.320312 147.519531 83.699219 C 147.835938 83.582031 147.679688 83.105469 147.402344 83.226562 C 142.453125 84.882812 137.546875 86.582031 133.507812 89.980469 C 133.230469 90.21875 133.589844 90.574219 133.824219 90.335938 Z M 139.921875 88.320312 C 140.59375 87.964844 141.226562 87.609375 141.898438 87.253906 C 142.175781 87.097656 141.941406 86.664062 141.664062 86.820312 C 140.988281 87.175781 140.355469 87.53125 139.683594 87.886719 C 139.367188 88.042969 139.644531 88.480469 139.921875 88.320312 Z M 135.210938 94.5625 C 140.832031 100.289062 141.1875 108.308594 141.304688 115.855469 C 141.304688 116.171875 141.820312 116.171875 141.78125 115.855469 C 141.664062 108.152344 141.265625 100.015625 135.566406 94.207031 C 135.328125 93.96875 134.972656 94.324219 135.210938 94.5625 Z M 163.628906 80.34375 C 169.566406 86.503906 173.445312 94.050781 174.988281 102.464844 C 175.027344 102.777344 175.503906 102.660156 175.464844 102.34375 C 173.921875 93.890625 169.960938 86.226562 163.984375 80.027344 C 163.75 79.789062 163.390625 80.144531 163.628906 80.34375 Z M 170.953125 87.570312 C 171.546875 88.636719 172.140625 89.664062 172.734375 90.730469 C 172.890625 91.007812 173.328125 90.769531 173.167969 90.492188 C 172.574219 89.425781 171.980469 88.398438 171.386719 87.332031 C 171.230469 87.019531 170.792969 87.292969 170.953125 87.570312 Z M 76.078125 149.867188 C 77.582031 147.378906 79.363281 145.085938 81.382812 142.992188 C 81.617188 142.753906 81.261719 142.398438 81.023438 142.636719 C 78.96875 144.769531 77.1875 147.101562 75.640625 149.628906 C 75.484375 149.90625 75.917969 150.140625 76.078125 149.867188 Z M 76.316406 146.667969 C 76.59375 146.035156 76.910156 145.363281 77.1875 144.730469 C 77.304688 144.453125 76.867188 144.175781 76.75 144.492188 C 76.472656 145.125 76.15625 145.796875 75.878906 146.429688 C 75.761719 146.707031 76.195312 146.941406 76.316406 146.667969 Z M 92.660156 145.480469 C 93.335938 144.890625 93.890625 144.136719 94.285156 143.308594 C 94.402344 143.03125 94.007812 142.753906 93.847656 143.070312 C 93.492188 143.863281 92.976562 144.53125 92.304688 145.125 C 92.066406 145.363281 92.425781 145.71875 92.660156 145.480469 Z M 88.742188 149.15625 C 88.464844 149.035156 88.1875 149.472656 88.503906 149.589844 C 90.484375 150.457031 92.542969 150.65625 94.679688 150.261719 C 94.996094 150.222656 94.878906 149.707031 94.5625 149.785156 C 92.542969 150.140625 90.605469 149.945312 88.742188 149.15625 Z M 91.394531 154.054688 C 89.140625 154.527344 86.921875 154.25 84.902344 153.222656 C 84.625 153.066406 84.390625 153.5 84.667969 153.660156 C 86.84375 154.765625 89.179688 155.082031 91.554688 154.566406 C 91.832031 154.449219 91.671875 153.972656 91.394531 154.054688 Z M 34.714844 117.710938 C 34.636719 117.394531 34.160156 117.511719 34.242188 117.828125 C 34.476562 118.9375 34.714844 120.042969 34.953125 121.148438 C 35.03125 121.464844 35.507812 121.34375 35.429688 121.03125 C 35.191406 119.921875 34.953125 118.816406 34.714844 117.710938 Z M 35.585938 116.132812 C 35.507812 115.816406 35.03125 115.972656 35.113281 116.25 C 35.230469 116.644531 35.347656 117.078125 35.46875 117.472656 C 35.546875 117.789062 36.023438 117.632812 35.941406 117.355469 C 35.824219 116.960938 35.707031 116.527344 35.585938 116.132812 Z M 57.515625 83.265625 C 57.832031 83.265625 57.832031 82.792969 57.515625 82.792969 C 55.890625 82.710938 54.269531 82.910156 52.726562 83.382812 C 52.40625 83.460938 52.566406 83.9375 52.84375 83.859375 C 54.386719 83.382812 55.929688 83.226562 57.515625 83.265625 Z M 53.636719 82.238281 C 54.464844 82.238281 55.257812 82.238281 56.089844 82.238281 C 56.40625 82.238281 56.40625 81.765625 56.089844 81.765625 C 55.257812 81.765625 54.464844 81.765625 53.636719 81.765625 C 53.320312 81.722656 53.320312 82.238281 53.636719 82.238281 Z M 153.496094 71.136719 C 153.933594 69.875 154.765625 68.847656 155.910156 68.136719 C 156.1875 67.976562 155.953125 67.542969 155.675781 67.703125 C 154.445312 68.492188 153.535156 69.597656 153.023438 70.980469 C 152.941406 71.335938 153.417969 71.453125 153.496094 71.136719 Z M 155.4375 69.875 C 156.03125 69.28125 156.585938 68.6875 157.179688 68.097656 C 157.414062 67.859375 157.058594 67.503906 156.820312 67.742188 C 156.226562 68.332031 155.675781 68.925781 155.082031 69.519531 C 154.882812 69.753906 155.199219 70.109375 155.4375 69.875 Z M 86.449219 70.269531 C 87.316406 70.386719 88.109375 70.703125 88.78125 71.257812 C 89.019531 71.453125 89.375 71.097656 89.140625 70.902344 C 88.386719 70.308594 87.515625 69.914062 86.566406 69.792969 C 86.289062 69.753906 86.132812 70.230469 86.449219 70.269531 Z M 87.636719 69.359375 C 88.308594 69.675781 88.941406 70.070312 89.457031 70.625 C 89.691406 70.863281 90.011719 70.503906 89.8125 70.269531 C 89.257812 69.714844 88.625 69.242188 87.871094 68.925781 C 87.59375 68.808594 87.359375 69.203125 87.636719 69.359375 Z M 169.132812 46.527344 C 170.875 44.394531 172.734375 42.417969 174.753906 40.5625 C 174.988281 40.367188 174.632812 40.011719 174.394531 40.207031 C 172.378906 42.0625 170.476562 44.039062 168.773438 46.171875 C 168.578125 46.410156 168.933594 46.765625 169.132812 46.527344 Z M 179.144531 41.589844 C 176.730469 43.644531 174.671875 46.015625 172.972656 48.699219 C 172.8125 48.976562 173.207031 49.214844 173.40625 48.9375 C 175.109375 46.289062 177.125 43.960938 179.5 41.945312 C 179.738281 41.75 179.382812 41.394531 179.144531 41.589844 Z M 90.761719 99.066406 C 91.433594 95.746094 92.621094 92.667969 94.363281 89.78125 C 94.523438 89.507812 94.085938 89.269531 93.929688 89.546875 C 92.148438 92.46875 90.921875 95.589844 90.246094 98.949219 C 90.246094 99.222656 90.722656 99.382812 90.761719 99.066406 Z M 90.246094 95.078125 C 90.605469 94.246094 90.960938 93.457031 91.316406 92.628906 C 91.433594 92.351562 91 92.074219 90.878906 92.390625 C 90.523438 93.21875 90.167969 94.007812 89.8125 94.839844 C 89.691406 95.117188 90.128906 95.390625 90.246094 95.078125 Z M 108.851562 121.542969 C 108.96875 122.292969 113.917969 122.453125 114.113281 121.742188 C 114.195312 121.34375 112.964844 120.554688 111.738281 120.4375 C 110.234375 120.277344 108.769531 121.109375 108.851562 121.542969 Z M 169.488281 115.300781 C 169.410156 114.90625 167.984375 114.667969 166.796875 115.023438 C 165.371094 115.460938 164.34375 116.800781 164.578125 117.15625 C 164.976562 117.828125 169.605469 116.050781 169.488281 115.300781 Z M 130.027344 79.671875 C 128.640625 80.539062 127.136719 81.132812 125.511719 81.410156 C 125.195312 81.449219 125.316406 81.921875 125.632812 81.882812 C 127.292969 81.605469 128.839844 81.011719 130.261719 80.105469 C 130.539062 79.90625 130.304688 79.472656 130.027344 79.671875 Z M 128.523438 81.449219 C 128.007812 81.605469 127.53125 81.765625 127.019531 81.921875 C 126.699219 82 126.859375 82.476562 127.136719 82.394531 C 127.652344 82.238281 128.125 82.078125 128.640625 81.921875 C 128.957031 81.804688 128.839844 81.328125 128.523438 81.449219 Z M 132.085938 159.664062 C 140 159.265625 147.957031 157.410156 154.644531 152.988281 C 154.921875 152.828125 154.644531 152.394531 154.40625 152.550781 C 147.796875 156.9375 139.960938 158.753906 132.125 159.148438 C 123.613281 159.582031 115.894531 155.160156 109.007812 150.578125 C 108.730469 150.417969 108.492188 150.8125 108.769531 151.011719 C 115.699219 155.632812 123.457031 160.097656 132.085938 159.664062 Z M 135.210938 177.4375 C 132.28125 180.953125 127.96875 183.679688 123.140625 182.96875 C 122.820312 182.929688 122.703125 183.402344 123.019531 183.441406 C 128.046875 184.195312 132.519531 181.507812 135.566406 177.792969 C 135.765625 177.558594 135.410156 177.203125 135.210938 177.4375 Z M 125.710938 181.625 C 126.304688 177.953125 126.265625 174.277344 125.59375 170.605469 C 125.554688 170.289062 125.078125 170.40625 125.117188 170.722656 C 125.789062 174.316406 125.832031 177.875 125.238281 181.46875 C 125.195312 181.785156 125.671875 181.941406 125.710938 181.625 Z M 126.898438 176.570312 C 126.898438 177.476562 126.898438 178.386719 126.898438 179.296875 C 126.898438 179.609375 127.375 179.609375 127.375 179.296875 C 127.375 178.386719 127.375 177.476562 127.375 176.570312 C 127.375 176.253906 126.898438 176.253906 126.898438 176.570312 Z M 89.929688 196.242188 C 87.871094 195.808594 86.050781 194.859375 84.507812 193.4375 C 84.269531 193.238281 83.914062 193.554688 84.152344 193.792969 C 85.773438 195.292969 87.675781 196.28125 89.8125 196.753906 C 90.089844 196.753906 90.246094 196.28125 89.929688 196.242188 Z M 85.339844 196.675781 C 85.0625 196.558594 84.785156 196.953125 85.101562 197.109375 C 85.617188 197.347656 86.132812 197.585938 86.683594 197.820312 C 86.960938 197.941406 87.238281 197.546875 86.921875 197.386719 C 86.367188 197.148438 85.855469 196.914062 85.339844 196.675781 Z M 154.171875 191.621094 C 156.070312 191.226562 157.8125 190.472656 159.394531 189.40625 C 159.671875 189.210938 159.394531 188.816406 159.15625 188.972656 C 157.574219 190.039062 155.871094 190.75 154.011719 191.144531 C 153.734375 191.183594 153.851562 191.660156 154.171875 191.621094 Z M 158.367188 190.828125 C 157.851562 191.226562 157.296875 191.582031 156.78125 191.976562 C 156.542969 192.171875 156.78125 192.566406 157.019531 192.410156 C 157.535156 192.015625 158.089844 191.660156 158.601562 191.265625 C 158.878906 191.066406 158.644531 190.632812 158.367188 190.828125 Z M 103.785156 203.824219 C 103.785156 204.617188 103.785156 205.40625 103.785156 206.195312 C 103.785156 206.511719 104.257812 206.511719 104.257812 206.195312 C 104.257812 205.40625 104.257812 204.617188 104.257812 203.824219 C 104.257812 203.511719 103.785156 203.511719 103.785156 203.824219 Z M 103.070312 205.328125 C 103.070312 205.761719 103.070312 206.195312 103.070312 206.628906 C 103.070312 206.945312 103.546875 206.945312 103.546875 206.628906 C 103.546875 206.195312 103.546875 205.761719 103.546875 205.328125 C 103.546875 205.011719 103.070312 205.011719 103.070312 205.328125 Z M 140.117188 197.585938 C 139.84375 198.21875 139.484375 198.769531 139.011719 199.285156 C 138.8125 199.519531 139.128906 199.875 139.367188 199.640625 C 139.84375 199.085938 140.238281 198.492188 140.554688 197.820312 C 140.671875 197.546875 140.238281 197.308594 140.117188 197.585938 Z M 140.078125 200.269531 C 140.238281 199.996094 140.394531 199.679688 140.515625 199.402344 C 140.671875 199.125 140.238281 198.886719 140.078125 199.164062 C 139.921875 199.441406 139.761719 199.757812 139.644531 200.035156 C 139.523438 200.308594 139.960938 200.546875 140.078125 200.269531 Z M 108.019531 152.316406 C 101.132812 160.453125 95.195312 169.300781 90.246094 178.742188 C 90.089844 179.019531 90.523438 179.253906 90.683594 178.980469 C 95.589844 169.578125 101.527344 160.769531 108.375 152.632812 C 108.574219 152.394531 108.21875 152.078125 108.019531 152.316406 Z M 158.207031 195.609375 C 158.089844 200.980469 157.375 206.234375 156.03125 211.449219 C 155.953125 211.765625 156.425781 211.882812 156.503906 211.570312 C 157.851562 206.316406 158.5625 201.023438 158.722656 195.609375 C 158.683594 195.292969 158.207031 195.292969 158.207031 195.609375 Z M 99.707031 217.414062 C 92.542969 219.3125 85.179688 218.519531 78.53125 215.203125 C 78.253906 215.042969 78.015625 215.480469 78.292969 215.636719 C 85.0625 219.035156 92.503906 219.824219 99.824219 217.890625 C 100.140625 217.808594 100.023438 217.335938 99.707031 217.414062 Z M 95.351562 220.496094 C 89.8125 221.285156 84.351562 220.535156 79.203125 218.324219 C 78.925781 218.203125 78.648438 218.640625 78.96875 218.757812 C 84.269531 221.050781 89.773438 221.761719 95.511719 220.96875 C 95.789062 220.929688 95.628906 220.457031 95.351562 220.496094 Z M 94.324219 229.304688 C 83.796875 230.886719 73.148438 229.582031 62.582031 230.09375 C 62.265625 230.09375 62.265625 230.609375 62.582031 230.570312 C 73.226562 230.054688 83.875 231.359375 94.480469 229.738281 C 94.757812 229.738281 94.601562 229.265625 94.324219 229.304688 Z M 156.347656 213.820312 C 156.664062 213.703125 156.503906 213.226562 156.226562 213.347656 C 150.210938 215.398438 144.039062 215.914062 137.742188 214.847656 C 137.425781 214.808594 137.308594 215.28125 137.625 215.320312 C 143.957031 216.386719 150.25 215.914062 156.347656 213.820312 Z M 155.792969 215.714844 C 156.109375 215.597656 155.953125 215.125 155.675781 215.242188 C 150.371094 216.980469 144.949219 217.730469 139.367188 217.414062 C 139.050781 217.414062 139.050781 217.890625 139.367188 217.890625 C 144.988281 218.246094 150.410156 217.492188 155.792969 215.714844 Z M 166.875 226.382812 C 158.445312 226.144531 149.972656 226.261719 141.542969 226.777344 C 141.226562 226.777344 141.226562 227.289062 141.542969 227.25 C 149.972656 226.738281 158.40625 226.617188 166.875 226.855469 C 167.191406 226.894531 167.191406 226.382812 166.875 226.382812 Z M 150.132812 142.675781 C 143.445312 147.296875 134.855469 147.851562 127.691406 144.019531 C 127.414062 143.863281 127.175781 144.296875 127.453125 144.453125 C 134.777344 148.324219 143.5625 147.851562 150.410156 143.109375 C 150.609375 142.914062 150.371094 142.519531 150.132812 142.675781 Z M 138.21875 148.246094 C 137.425781 148.523438 136.636719 148.640625 135.804688 148.601562 C 135.488281 148.601562 135.488281 149.074219 135.804688 149.074219 C 136.675781 149.117188 137.507812 148.996094 138.335938 148.71875 C 138.613281 148.601562 138.496094 148.128906 138.21875 148.246094 Z M 114.707031 98.632812 C 118.230469 109.335938 119.8125 120.554688 121.398438 131.695312 C 121.4375 132.011719 121.910156 131.890625 121.871094 131.578125 C 120.25 120.042969 118.625 108.429688 114.789062 97.367188 C 111.066406 86.542969 105.011719 76.785156 98.996094 67.148438 C 98.835938 66.871094 98.402344 67.109375 98.558594 67.386719 C 104.8125 77.378906 111.027344 87.453125 114.707031 98.632812 Z M 154.25 135.683594 C 154.171875 136 154.644531 136.121094 154.722656 135.804688 C 161.769531 114.078125 157.8125 90.375 149.777344 69.480469 C 149.65625 69.203125 149.183594 69.320312 149.300781 69.597656 C 157.296875 90.492188 161.253906 114.039062 154.25 135.683594 Z M 154.25 135.683594 " fill-opacity="1" fill-rule="nonzero"/></svg>