<svg xmlns="http://www.w3.org/2000/svg" xmlns:xlink="http://www.w3.org/1999/xlink" width="311" zoomAndPan="magnify" viewBox="0 0 233.25 233.249995" height="311" preserveAspectRatio="xMidYMid meet" version="1.0"><defs><clipPath id="id1"><path d="M 0 0 L 232.503906 0 L 232.503906 232.503906 L 0 232.503906 Z M 0 0 " clip-rule="nonzero"/></clipPath></defs><g clip-path="url(#id1)"><path fill="#f9b457" d="M 0 0 L 232.503906 0 L 232.503906 232.503906 L 0 232.503906 Z M 0 0 " fill-opacity="1" fill-rule="nonzero"/><path fill="#ffffff" d="M 0 0 L 232.503906 0 L 232.503906 232.503906 L 0 232.503906 Z M 0 0 " fill-opacity="1" fill-rule="nonzero"/><path fill="#f9b457" d="M 0 0 L 232.503906 0 L 232.503906 232.503906 L 0 232.503906 Z M 0 0 " fill-opacity="1" fill-rule="nonzero"/></g><path fill="#ec008b" d="M 39.117188 96.625 C 40.265625 73.253906 60.148438 55.253906 83.496094 56.40625 C 98.09375 57.132812 110.550781 65.121094 117.621094 76.714844 C 125.777344 65.882812 138.992188 59.164062 153.550781 59.878906 C 176.921875 61.035156 194.914062 80.914062 193.757812 104.28125 C 193.675781 105.828125 193.519531 107.382812 193.273438 108.886719 C 187.671875 152.902344 111.746094 195.078125 111.746094 195.078125 C 111.746094 195.078125 42.925781 147.34375 39.332031 103.621094 C 39.078125 101.332031 38.988281 98.988281 39.117188 96.625 " fill-opacity="1" fill-rule="nonzero"/><path fill="#231f1f" d="M 39.960938 108.382812 C 39.9375 108.152344 39.867188 107.796875 39.84375 107.507812 C 40 108.332031 40.085938 108.734375 39.960938 108.382812 " fill-opacity="1" fill-rule="nonzero"/><path fill="#231f1f" d="M 39.296875 96.636719 C 39.230469 98.15625 39.222656 100.113281 39.355469 102.078125 C 39.5 104.039062 39.675781 105.992188 39.84375 107.507812 C 39.589844 106.179688 39.222656 103.699219 39.054688 101.425781 C 38.972656 100.285156 38.976562 99.199219 39.011719 98.339844 C 39.082031 97.484375 39.171875 96.859375 39.296875 96.636719 " fill-opacity="1" fill-rule="nonzero"/><path fill="#231f1f" d="M 39.320312 109.0625 C 39.320312 109.0625 39.285156 108.824219 39.226562 108.464844 C 39.199219 108.289062 39.167969 108.082031 39.132812 107.855469 C 39.109375 107.636719 39.082031 107.394531 39.054688 107.15625 C 39 106.675781 38.945312 106.199219 38.90625 105.835938 C 38.878906 105.480469 38.859375 105.246094 38.859375 105.246094 C 39.042969 106.347656 39.121094 106.804688 39.132812 107.234375 C 39.144531 107.667969 39.148438 108.074219 39.320312 109.0625 " fill-opacity="1" fill-rule="nonzero"/><path fill="#231f1f" d="M 39.492188 107.613281 L 39.691406 107.777344 L 39.914062 109.8125 C 39.914062 109.8125 39.808594 109.261719 39.699219 108.714844 C 39.648438 108.4375 39.59375 108.164062 39.550781 107.957031 C 39.511719 107.753906 39.492188 107.613281 39.492188 107.613281 " fill-opacity="1" fill-rule="nonzero"/><path fill="#231f1f" d="M 172.195312 145.976562 C 171.878906 146.21875 171.65625 146.34375 171.699219 146.136719 L 172.195312 145.976562 " fill-opacity="1" fill-rule="nonzero"/><path fill="#231f1f" d="M 178.339844 139.730469 C 178.832031 139.125 179.183594 138.695312 179.460938 138.320312 C 179.15625 138.765625 178.863281 139.105469 178.339844 139.730469 " fill-opacity="1" fill-rule="nonzero"/><path fill="#231f1f" d="M 166.855469 151.820312 L 167.914062 150.691406 C 167.597656 151.066406 167.21875 151.460938 166.855469 151.820312 " fill-opacity="1" fill-rule="nonzero"/><path fill="#231f1f" d="M 90.882812 177.777344 C 89.871094 176.730469 88.910156 175.746094 88.183594 174.992188 C 90.382812 176.761719 90.386719 177.125 90.882812 177.777344 " fill-opacity="1" fill-rule="nonzero"/><path fill="#231f1f" d="M 195.691406 103.335938 L 195.5625 102.9375 C 195.636719 102.511719 195.703125 102.292969 195.691406 103.335938 " fill-opacity="1" fill-rule="nonzero"/><path fill="#231f1f" d="M 181.445312 139.414062 C 181.359375 139.394531 181.363281 139.292969 181.421875 139.132812 C 181.523438 139.015625 181.625 138.894531 181.722656 138.78125 L 181.445312 139.414062 " fill-opacity="1" fill-rule="nonzero"/><path fill="#231f1f" d="M 162.679688 156.34375 L 162.625 156.410156 L 161.648438 157.214844 C 162.121094 156.734375 162.453125 156.460938 162.679688 156.34375 " fill-opacity="1" fill-rule="nonzero"/><path fill="#231f1f" d="M 194.355469 90.519531 C 194.273438 89.949219 194.214844 89.386719 194.199219 88.882812 C 194.484375 90.109375 194.515625 90.707031 194.355469 90.519531 " fill-opacity="1" fill-rule="nonzero"/><path fill="#231f1f" d="M 179.585938 138.140625 L 179.601562 138.132812 C 179.5625 138.183594 179.5 138.265625 179.460938 138.320312 C 179.507812 138.253906 179.542969 138.207031 179.585938 138.140625 " fill-opacity="1" fill-rule="nonzero"/><path fill="#231f1f" d="M 173.175781 149.265625 C 173.648438 148.773438 174.082031 148.320312 174.585938 147.792969 C 174.035156 148.457031 173.527344 148.96875 173.175781 149.265625 " fill-opacity="1" fill-rule="nonzero"/><path fill="#231f1f" d="M 90.882812 177.777344 C 91.171875 178.074219 91.457031 178.363281 91.746094 178.660156 C 91.308594 178.28125 91.066406 178.011719 90.882812 177.777344 " fill-opacity="1" fill-rule="nonzero"/><path fill="#231f1f" d="M 43.007812 118.09375 C 43.453125 119.238281 43.464844 119.539062 43.457031 119.792969 C 43.257812 119.144531 43.09375 118.566406 43.007812 118.09375 " fill-opacity="1" fill-rule="nonzero"/><path fill="#231f1f" d="M 40.269531 93.738281 L 40.203125 94.214844 C 40.222656 94.011719 40.246094 93.859375 40.269531 93.738281 " fill-opacity="1" fill-rule="nonzero"/><path fill="#231f1f" d="M 67.695312 59.972656 C 67.90625 59.933594 68.132812 59.890625 68.300781 59.882812 C 67.945312 60.039062 67.71875 60.050781 67.695312 59.972656 " fill-opacity="1" fill-rule="nonzero"/><path fill="#231f1f" d="M 121.269531 69.605469 L 121.398438 69.421875 C 121.398438 69.421875 121.257812 69.527344 121.066406 69.707031 C 120.867188 69.882812 120.601562 70.117188 120.339844 70.351562 C 119.8125 70.820312 119.277344 71.289062 119.277344 71.289062 L 119.167969 71.488281 C 119.167969 71.488281 119.289062 71.359375 119.488281 71.1875 C 119.683594 71.011719 119.949219 70.777344 120.214844 70.539062 Z M 79.175781 54.878906 C 77.476562 55.125 76.773438 55.109375 76.230469 55.089844 C 75.683594 55.0625 75.300781 54.941406 74.265625 55.089844 C 75.601562 54.765625 76.203125 54.78125 76.769531 54.796875 C 77.34375 54.84375 77.894531 54.933594 79.175781 54.878906 Z M 140.613281 59.882812 C 140.199219 59.992188 139.917969 60.085938 139.738281 60.167969 C 139.558594 60.242188 139.476562 60.289062 139.464844 60.316406 C 139.433594 60.371094 139.679688 60.347656 139.960938 60.3125 C 140.523438 60.257812 141.234375 60.203125 140.160156 60.523438 L 141.890625 60.082031 C 141.199219 60.316406 140.726562 60.441406 140.378906 60.515625 C 140.023438 60.585938 139.792969 60.625 139.582031 60.636719 C 139.167969 60.660156 138.835938 60.628906 137.871094 60.964844 L 139.167969 60.519531 C 140.140625 59.976562 137.09375 60.9375 136.804688 60.902344 C 136.992188 60.820312 137.207031 60.730469 137.445312 60.636719 C 137.683594 60.558594 137.941406 60.476562 138.210938 60.402344 C 138.742188 60.242188 139.292969 60.09375 139.753906 59.972656 C 140.6875 59.757812 141.277344 59.707031 140.613281 59.882812 Z M 82.417969 55.011719 C 81.90625 55.046875 81.511719 55.070312 81.179688 55.089844 C 80.84375 55.121094 80.582031 55.136719 80.339844 55.140625 C 79.855469 55.160156 79.449219 55.109375 78.761719 55.125 C 78.976562 55.050781 79.542969 55.007812 80.230469 54.980469 C 80.578125 54.964844 80.949219 54.953125 81.324219 54.949219 C 81.695312 54.964844 82.074219 54.984375 82.417969 55.011719 Z M 125.546875 67.324219 C 125.699219 67.328125 125.105469 67.847656 124.398438 68.414062 C 124.035156 68.6875 123.683594 69.011719 123.363281 69.273438 C 123.042969 69.539062 122.773438 69.75 122.621094 69.847656 C 122.789062 69.871094 123.292969 69.507812 123.929688 68.988281 C 124.574219 68.488281 125.390625 67.882812 126.109375 67.339844 C 126.304688 67.214844 126.628906 67.023438 127.101562 66.695312 C 126.800781 66.878906 126.46875 67.085938 126.109375 67.339844 C 125.539062 67.703125 125.832031 67.308594 125.78125 67.238281 C 125.78125 67.238281 125.945312 67.078125 126.117188 66.9375 C 126.289062 66.796875 126.46875 66.65625 126.46875 66.65625 C 126.46875 66.65625 125.929688 66.984375 125.433594 67.363281 C 124.921875 67.734375 124.417969 68.105469 124.417969 68.105469 Z M 155.449219 59.535156 L 153.609375 59.054688 C 153.609375 59.054688 152.867188 59.050781 152.132812 59.042969 C 151.765625 59.039062 151.398438 59.039062 151.125 59.035156 C 150.847656 59.03125 150.664062 59.042969 150.664062 59.042969 C 150.664062 59.042969 150.742188 59.042969 150.871094 59.050781 C 151.003906 59.058594 151.191406 59.074219 151.414062 59.09375 C 151.871094 59.132812 152.464844 59.179688 153.066406 59.230469 C 153.667969 59.261719 154.265625 59.375 154.710938 59.429688 C 155.15625 59.492188 155.449219 59.535156 155.449219 59.535156 Z M 193.445312 93.820312 C 193.6875 95.207031 193.796875 95.589844 193.542969 95.488281 C 193.546875 96.171875 193.808594 97.25 193.789062 97.945312 C 193.269531 95.269531 193.617188 95.394531 193.445312 93.820312 C 193.386719 93.457031 193.277344 93.054688 193.183594 92.542969 C 193.316406 93.09375 193.410156 93.476562 193.445312 93.820312 Z M 190.636719 85.398438 C 190.613281 85.613281 190.710938 86.0625 190.890625 86.632812 C 190.980469 86.914062 191.089844 87.230469 191.210938 87.5625 C 191.324219 87.894531 191.441406 88.25 191.558594 88.609375 C 191.679688 88.964844 191.800781 89.324219 191.917969 89.667969 C 192.015625 90.019531 192.117188 90.355469 192.207031 90.667969 C 192.386719 91.285156 192.523438 91.796875 192.542969 92.082031 C 192.386719 91.441406 192.089844 90.621094 191.839844 89.75 C 191.691406 89.324219 191.539062 88.886719 191.394531 88.457031 C 191.246094 88.035156 191.113281 87.617188 190.960938 87.242188 C 190.414062 85.730469 190.042969 84.71875 190.636719 85.398438 Z M 115.441406 73.085938 C 115.148438 72.75 115.246094 73.039062 115.578125 73.605469 C 115.742188 73.886719 115.960938 74.234375 116.222656 74.625 C 116.464844 75.027344 116.746094 75.464844 117.023438 75.859375 C 117.023438 75.859375 116.847656 75.761719 116.652344 75.625 C 116.457031 75.496094 116.238281 75.328125 116.238281 75.328125 C 116.257812 75.257812 116.144531 74.960938 115.90625 74.589844 C 115.792969 74.410156 115.644531 74.183594 115.511719 73.984375 C 115.375 73.785156 115.222656 73.570312 115.074219 73.355469 C 114.921875 73.140625 114.765625 72.921875 114.621094 72.714844 C 114.464844 72.511719 114.304688 72.324219 114.167969 72.15625 C 113.894531 71.816406 113.683594 71.5625 113.617188 71.472656 C 113.515625 71.09375 113.691406 71.222656 114.035156 71.582031 C 114.375 71.941406 114.90625 72.511719 115.441406 73.085938 Z M 46.558594 74.359375 L 47.390625 73.3125 C 47.886719 72.828125 47.703125 73.234375 47.90625 73.089844 C 46.957031 74.3125 45.660156 75.898438 46.558594 74.359375 Z M 61.296875 61.867188 C 61.746094 61.582031 62.144531 61.347656 62.308594 61.203125 L 62.558594 61.160156 C 62.132812 61.523438 61.691406 61.703125 61.296875 61.867188 C 60.804688 62.191406 60.238281 62.558594 59.652344 62.941406 C 59.523438 63.160156 60.070312 62.949219 60.742188 62.675781 C 61.074219 62.53125 61.441406 62.378906 61.761719 62.238281 C 62.09375 62.113281 62.382812 62.007812 62.558594 61.957031 C 62.261719 62.089844 61.96875 62.203125 61.675781 62.324219 C 61.390625 62.457031 61.101562 62.589844 60.800781 62.726562 C 60.503906 62.867188 60.191406 63.019531 59.875 63.203125 C 59.5625 63.402344 59.238281 63.625 58.894531 63.886719 C 59.125 63.828125 58.972656 63.984375 59.882812 63.398438 L 58.898438 64.0625 C 58.398438 64.382812 57.925781 64.746094 57.925781 64.746094 C 56.722656 65.386719 56.625 65.320312 57.089844 64.882812 C 57.324219 64.667969 57.695312 64.359375 58.136719 64.011719 C 58.601562 63.683594 59.125 63.3125 59.652344 62.941406 C 59.6875 62.847656 59.828125 62.703125 60.21875 62.40625 C 60.558594 62.171875 60.921875 62.03125 61.296875 61.867188 Z M 50.164062 71.167969 C 50.40625 71.105469 50.5625 71.164062 50.980469 70.863281 C 51.191406 70.714844 51.46875 70.480469 51.855469 70.097656 C 52.242188 69.703125 52.753906 69.183594 53.445312 68.476562 C 53.371094 68.144531 52.574219 68.894531 53.425781 67.621094 C 52.40625 68.472656 51.710938 69.3125 51.285156 69.820312 C 51.925781 69.1875 52.628906 68.382812 52.9375 68.351562 C 52.6875 68.628906 52.425781 68.898438 52.167969 69.164062 C 51.914062 69.429688 51.664062 69.6875 51.429688 69.9375 C 51.191406 70.179688 50.957031 70.410156 50.742188 70.613281 C 50.527344 70.816406 50.339844 71.011719 50.164062 71.167969 C 50 71.207031 49.789062 71.316406 49.40625 71.691406 C 49.480469 71.738281 49.769531 71.53125 50.164062 71.167969 Z M 48.765625 73.582031 C 48.765625 73.582031 49.023438 73.242188 49.285156 72.898438 C 49.414062 72.726562 49.546875 72.554688 49.644531 72.429688 C 49.75 72.304688 49.816406 72.222656 49.816406 72.222656 C 49.816406 72.222656 49.734375 72.28125 49.613281 72.367188 C 49.492188 72.457031 49.332031 72.582031 49.175781 72.703125 C 48.855469 72.949219 48.535156 73.199219 48.535156 73.199219 Z M 68.027344 59.332031 C 67.664062 59.558594 68.164062 59.464844 68.832031 59.289062 C 69.492188 59.113281 70.34375 58.910156 70.660156 58.800781 C 70.660156 58.800781 70 58.921875 69.339844 59.039062 C 69.007812 59.089844 68.683594 59.183594 68.4375 59.234375 C 68.191406 59.292969 68.027344 59.332031 68.027344 59.332031 Z M 66.101562 59.410156 C 66.101562 59.410156 65.78125 59.519531 65.464844 59.625 C 65.304688 59.679688 65.144531 59.734375 65.023438 59.773438 C 64.90625 59.816406 64.824219 59.847656 64.824219 59.847656 C 64.824219 59.847656 64.917969 59.835938 65.054688 59.824219 C 65.195312 59.8125 65.378906 59.796875 65.5625 59.78125 C 65.933594 59.757812 66.300781 59.726562 66.300781 59.726562 Z M 93.078125 58.191406 C 93.078125 58.191406 93.328125 58.269531 93.703125 58.390625 C 94.085938 58.507812 94.570312 58.71875 95.0625 58.902344 C 95.554688 59.09375 96.050781 59.277344 96.414062 59.433594 C 96.773438 59.597656 97.015625 59.707031 97.015625 59.707031 C 96.121094 59.773438 93.492188 58.40625 91.546875 58 C 90.941406 57.605469 92.402344 58.15625 93.078125 58.191406 Z M 123.558594 70.65625 C 123.640625 70.648438 123.488281 70.859375 123.199219 71.183594 C 122.90625 71.503906 122.519531 71.984375 122.070312 72.460938 C 121.847656 72.703125 121.617188 72.949219 121.382812 73.183594 C 121.15625 73.429688 120.941406 73.671875 120.734375 73.894531 C 120.527344 74.113281 120.328125 74.3125 120.144531 74.472656 C 119.941406 74.664062 119.75 74.828125 119.613281 74.914062 C 120.03125 74.433594 120.460938 73.9375 120.875 73.460938 C 121.261719 73 121.699219 72.613281 122.050781 72.234375 C 122.414062 71.855469 122.742188 71.523438 123 71.253906 C 123.269531 70.992188 123.46875 70.789062 123.558594 70.65625 Z M 193.613281 98.207031 C 193.613281 98.207031 193.609375 98.148438 193.605469 98.042969 C 193.597656 97.9375 193.585938 97.792969 193.5625 97.617188 C 193.519531 97.265625 193.460938 96.796875 193.402344 96.328125 C 193.355469 95.859375 193.277344 95.394531 193.210938 95.046875 C 193.152344 94.695312 193.113281 94.464844 193.113281 94.464844 C 193.113281 94.464844 193.144531 94.6875 193.199219 95.015625 C 193.253906 95.347656 193.328125 95.785156 193.367188 96.234375 C 193.414062 96.675781 193.460938 97.121094 193.496094 97.453125 C 193.539062 97.785156 193.546875 98.007812 193.546875 98.007812 Z M 186.882812 127.964844 C 187.054688 126.773438 186.304688 127.882812 185.359375 129.359375 C 184.414062 130.832031 183.222656 132.652344 182.734375 133.035156 C 182.78125 133.210938 182.585938 133.828125 182.773438 133.800781 C 182.960938 133.765625 183.570312 133.085938 185.074219 130.570312 C 183.890625 132.816406 183.332031 133.40625 182.964844 133.808594 C 182.59375 134.207031 182.441406 134.441406 181.859375 135.875 C 182.199219 135.371094 182.558594 134.84375 182.914062 134.324219 C 183.261719 133.804688 183.625 133.320312 183.929688 132.867188 C 184.546875 131.960938 185.054688 131.28125 185.167969 131.097656 C 185.167969 131.097656 185.078125 131.25 184.9375 131.480469 C 184.796875 131.714844 184.613281 132.023438 184.425781 132.328125 C 184.238281 132.636719 184.050781 132.941406 183.910156 133.171875 C 183.765625 133.402344 183.667969 133.554688 183.667969 133.554688 C 184.984375 132.449219 185.804688 129.664062 186.882812 127.964844 Z M 144.925781 172.386719 L 145.652344 172.121094 L 144.613281 172.617188 L 144.925781 172.386719 L 144.761719 172.445312 C 144.761719 172.445312 145.960938 171.542969 147.167969 170.644531 C 148.363281 169.730469 149.5625 168.816406 149.5625 168.816406 C 149.5625 168.816406 148.40625 169.714844 147.25 170.613281 Z M 144.046875 173.300781 L 141.082031 175.308594 L 142.652344 174.394531 C 142.652344 174.394531 141.515625 175.121094 140.375 175.847656 C 139.230469 176.5625 138.085938 177.277344 138.085938 177.277344 C 140.464844 175.304688 143.503906 173.382812 144.046875 173.300781 Z M 138.566406 177.472656 C 139.464844 176.847656 139.863281 176.589844 140.058594 176.484375 C 140.855469 175.988281 141.5 175.652344 141.355469 175.925781 C 139.449219 177.191406 140.554688 176.230469 140.058594 176.484375 C 139.570312 176.796875 139.050781 177.128906 138.566406 177.472656 Z M 106.152344 191.117188 C 106.007812 191.082031 106.019531 191.191406 106.164062 191.394531 C 106.503906 191.679688 106.789062 191.9375 106.898438 192.097656 C 106.582031 191.863281 106.308594 191.589844 106.164062 191.394531 C 105.28125 190.640625 103.890625 189.621094 103.214844 189.207031 C 103.492188 189.609375 104.925781 190.675781 105.417969 191.167969 C 103.082031 189.855469 99.078125 185.335938 99.785156 187.171875 C 98.972656 186.382812 96.167969 183.757812 97.308594 184.457031 C 99.609375 186.433594 104.203125 189.894531 106.152344 191.117188 C 106.292969 191.15625 106.519531 191.273438 106.941406 191.582031 C 106.796875 191.515625 106.5 191.339844 106.152344 191.117188 Z M 83.9375 172.621094 L 83.351562 172.285156 L 82.230469 171.210938 Z M 62.027344 150.191406 L 63.738281 152.25 L 62.679688 151.457031 Z M 134.570312 181.605469 C 136.027344 180.5625 139.777344 177.777344 139.261719 178.175781 C 139.058594 178.613281 135.574219 181.0625 134.570312 181.605469 Z M 152.359375 168.421875 C 152.359375 168.421875 153.183594 167.75 154.007812 167.074219 C 154.824219 166.394531 155.648438 165.710938 155.648438 165.710938 C 155.335938 165.726562 153.375 167.523438 152.359375 168.421875 Z M 134.007812 182.453125 L 135.300781 181.722656 C 134.09375 182.550781 133.917969 182.597656 134.007812 182.453125 L 132.921875 183.054688 C 135.472656 181.101562 134.199219 182.164062 134.007812 182.453125 Z M 157.925781 163.859375 L 158.992188 162.84375 C 160.175781 161.554688 160.125 160.964844 162.234375 159.664062 C 162.234375 159.664062 161.425781 160.460938 160.621094 161.261719 C 159.808594 162.050781 158.992188 162.84375 158.992188 162.84375 C 158.730469 163.132812 158.386719 163.46875 157.925781 163.859375 Z M 154.335938 165.417969 C 155.761719 164.328125 156.550781 163.769531 157.273438 163.292969 C 157.996094 162.824219 158.648438 162.4375 159.804688 161.660156 C 157.265625 164.175781 156.15625 164.390625 156.339844 163.949219 C 154.335938 165.417969 154.878906 165.316406 153.894531 166.207031 Z M 154.742188 166.105469 C 152.730469 167.574219 149.101562 170.199219 149.285156 169.769531 C 149.421875 170.195312 152.335938 168.078125 153.1875 167.351562 C 153.667969 166.917969 154.042969 166.632812 154.742188 166.105469 Z M 173.308594 64.699219 L 173.800781 65.238281 L 173.214844 64.929688 C 173.214844 64.929688 173.359375 65.023438 173.574219 65.164062 C 173.792969 65.296875 174.074219 65.5 174.34375 65.699219 C 174.898438 66.097656 175.453125 66.496094 175.453125 66.496094 C 173.878906 65.636719 172.601562 64.804688 171.488281 64.097656 C 170.925781 63.753906 170.425781 63.394531 169.945312 63.113281 C 169.464844 62.832031 169.023438 62.574219 168.613281 62.363281 C 168.980469 62.53125 169.492188 62.804688 170.042969 63.101562 C 170.589844 63.40625 171.15625 63.777344 171.679688 64.070312 C 172.710938 64.6875 173.484375 65.152344 173.308594 64.699219 Z M 172.789062 149.007812 C 171.621094 149.828125 169.230469 152.476562 167.4375 154.171875 C 167.175781 154.8125 169.175781 153.261719 171.152344 151.117188 C 173.640625 148.773438 171.714844 149.890625 172.789062 149.007812 Z M 180.449219 140.148438 C 180.449219 140.148438 180.546875 140.007812 180.648438 139.867188 C 180.746094 139.726562 180.84375 139.582031 180.84375 139.582031 C 180.84375 139.582031 180.425781 140.0625 180.003906 140.535156 C 179.585938 141 179.167969 141.472656 179.167969 141.472656 Z M 188.828125 79.222656 C 189.28125 80.050781 189.472656 80.46875 189.839844 81.050781 C 189.726562 80.558594 188.96875 78.804688 189.703125 79.980469 C 190.082031 80.882812 191.480469 83.792969 191.242188 83.945312 C 190.304688 81.28125 188.660156 79.945312 188.828125 79.222656 Z M 146.816406 58.589844 C 146.992188 58.585938 147.152344 58.578125 147.355469 58.582031 C 147.179688 58.589844 146.992188 58.59375 146.816406 58.589844 C 146.269531 58.605469 145.8125 58.648438 145.40625 58.707031 C 145 58.773438 144.640625 58.867188 144.296875 58.941406 C 143.953125 59.019531 143.617188 59.085938 143.253906 59.125 C 142.898438 59.164062 142.507812 59.179688 142.058594 59.183594 C 144.113281 58.386719 145.574219 58.554688 146.816406 58.589844 Z M 175.304688 67.765625 C 175.304688 67.765625 175.828125 68.179688 176.351562 68.601562 C 176.613281 68.804688 176.859375 69.035156 177.046875 69.199219 C 177.238281 69.363281 177.359375 69.472656 177.359375 69.472656 L 177.15625 69.375 C 177.15625 69.375 177.03125 69.265625 176.84375 69.101562 C 176.660156 68.9375 176.414062 68.71875 176.148438 68.515625 C 175.632812 68.105469 175.117188 67.691406 175.117188 67.691406 Z M 191.171875 88.851562 L 190.597656 87.933594 L 190.292969 86.617188 C 190.292969 86.617188 190.523438 87.167969 190.753906 87.722656 C 190.964844 88.289062 191.171875 88.851562 191.171875 88.851562 Z M 84.660156 174.734375 C 84.089844 173.984375 85.683594 175.585938 86.179688 175.996094 L 83.890625 173.867188 C 83.503906 173.648438 84.335938 174.410156 84.660156 174.734375 Z M 193.386719 87.988281 L 193.6875 88.9375 C 193.832031 89.417969 193.957031 89.902344 193.957031 89.902344 C 194.082031 90.285156 194.199219 90.679688 194.285156 91.125 L 193.957031 89.902344 C 193.644531 88.921875 193.226562 88.269531 193.386719 87.988281 Z M 109.421875 64.238281 C 106.820312 62.363281 104.226562 60.242188 101.710938 58.929688 C 101.710938 58.929688 101.910156 59.074219 102.105469 59.21875 C 102.300781 59.363281 102.484375 59.523438 102.484375 59.523438 C 102.484375 59.523438 102.335938 59.429688 102.109375 59.289062 C 101.875 59.160156 101.566406 58.988281 101.257812 58.816406 C 100.636719 58.472656 100.011719 58.132812 100.011719 58.132812 L 99.9375 58.367188 C 97.828125 57.367188 95.363281 56.449219 93.183594 55.902344 C 92.636719 55.757812 92.128906 55.585938 91.628906 55.484375 C 91.136719 55.375 90.679688 55.269531 90.261719 55.164062 C 89.84375 55.0625 89.472656 54.953125 89.152344 54.867188 C 88.828125 54.789062 88.554688 54.710938 88.351562 54.628906 L 88.832031 55.09375 C 88.832031 55.09375 87.621094 54.84375 86.40625 54.589844 C 85.175781 54.414062 83.949219 54.234375 83.949219 54.234375 C 83.949219 54.234375 84.648438 54.355469 85.355469 54.480469 C 85.703125 54.542969 86.054688 54.605469 86.3125 54.652344 C 86.578125 54.699219 86.746094 54.746094 86.746094 54.746094 C 86.0625 54.664062 85.320312 54.632812 84.5625 54.5625 C 84.183594 54.535156 83.796875 54.492188 83.402344 54.476562 C 83.007812 54.464844 82.617188 54.453125 82.21875 54.4375 C 81.425781 54.394531 80.621094 54.414062 79.835938 54.421875 C 79.046875 54.410156 78.28125 54.476562 77.542969 54.515625 C 76.804688 54.539062 76.101562 54.632812 75.453125 54.695312 C 75.128906 54.730469 74.816406 54.753906 74.523438 54.792969 C 74.230469 54.839844 73.953125 54.882812 73.691406 54.921875 C 73.175781 55.003906 72.726562 55.070312 72.378906 55.128906 C 72.027344 55.203125 71.773438 55.257812 71.625 55.289062 L 72.144531 55.316406 C 71.710938 55.457031 71.3125 55.542969 70.90625 55.617188 C 70.496094 55.683594 70.085938 55.753906 69.621094 55.867188 L 70.382812 55.878906 C 68.367188 56.417969 66.738281 56.957031 65.332031 57.566406 C 64.980469 57.714844 64.636719 57.859375 64.300781 58.003906 C 63.972656 58.160156 63.652344 58.316406 63.335938 58.472656 C 63.015625 58.625 62.707031 58.78125 62.394531 58.933594 L 61.484375 59.429688 C 61.183594 59.597656 60.878906 59.765625 60.566406 59.9375 C 60.261719 60.113281 59.960938 60.300781 59.644531 60.488281 C 59.332031 60.675781 59.007812 60.871094 58.679688 61.070312 C 58.359375 61.28125 58.023438 61.5 57.679688 61.722656 C 56.292969 62.613281 54.765625 63.703125 52.953125 65.152344 C 51.078125 66.847656 54.046875 64.277344 54.1875 64.390625 C 53.6875 64.867188 52.832031 65.632812 52.003906 66.308594 C 51.210938 67.019531 50.4375 67.636719 50.171875 67.867188 C 50.535156 67.710938 51.429688 66.976562 51.960938 66.535156 C 52.226562 66.308594 52.425781 66.1875 52.417969 66.234375 C 52.410156 66.28125 52.203125 66.515625 51.722656 67.078125 C 50.910156 67.734375 51.222656 67.546875 51.398438 67.503906 C 51.488281 67.484375 51.542969 67.496094 51.410156 67.671875 C 51.273438 67.847656 50.941406 68.171875 50.308594 68.824219 C 50.308594 68.824219 49.984375 69.007812 49.65625 69.191406 C 49.320312 69.371094 49.007812 69.574219 49.007812 69.574219 C 48.363281 70.367188 48.363281 70.503906 48.253906 70.734375 C 48.136719 70.964844 47.929688 71.308594 46.925781 72.558594 C 46.332031 73.261719 46.199219 73.386719 46.242188 73.21875 C 46.289062 73.0625 46.515625 72.617188 46.742188 72.257812 C 46.964844 71.890625 47.144531 71.582031 47.035156 71.652344 C 46.933594 71.730469 46.5 72.160156 45.632812 73.382812 C 45.191406 73.988281 44.832031 74.671875 44.472656 75.414062 C 44.089844 76.144531 43.785156 76.976562 43.398438 77.851562 C 42.691406 79.625 41.863281 81.707031 40.804688 84.363281 C 40.46875 85.546875 40.382812 85.996094 40.4375 86.109375 C 40.480469 86.222656 40.621094 85.988281 40.75 85.820312 C 41.023438 85.476562 41.066406 85.308594 40.152344 88.542969 C 40.152344 88.542969 40.171875 88.480469 40.207031 88.367188 C 40.242188 88.25 40.285156 88.089844 40.359375 87.90625 C 40.492188 87.523438 40.675781 87.011719 40.855469 86.507812 C 41.023438 85.996094 41.257812 85.511719 41.402344 85.136719 C 41.554688 84.769531 41.660156 84.523438 41.660156 84.523438 C 41.539062 85.0625 41.585938 85.1875 41.539062 85.511719 C 41.515625 85.671875 41.46875 85.890625 41.363281 86.226562 C 41.273438 86.578125 41.136719 87.046875 40.917969 87.734375 C 40.507812 88.5625 39.890625 90.261719 39.617188 91.808594 C 39.796875 91.042969 39.921875 90.558594 40.007812 90.285156 C 40.105469 90.007812 40.160156 89.9375 40.179688 90.011719 C 40.203125 90.144531 40.15625 90.84375 40.097656 91.554688 C 40.03125 92.261719 40.015625 92.988281 40.074219 93.175781 C 40.105469 93.273438 40.152344 93.238281 40.230469 93 C 40.269531 92.882812 40.3125 92.714844 40.367188 92.484375 C 40.425781 92.261719 40.5 91.984375 40.59375 91.632812 C 40.59375 91.632812 40.570312 91.765625 40.53125 91.960938 C 40.5 92.160156 40.441406 92.414062 40.410156 92.683594 C 40.339844 93.210938 40.269531 93.738281 40.269531 93.738281 C 40.320312 93.480469 40.371094 93.417969 40.386719 93.5625 C 40.386719 93.5625 40.367188 93.734375 40.335938 94 C 40.304688 94.261719 40.261719 94.613281 40.246094 94.96875 C 40.203125 95.671875 40.15625 96.378906 40.15625 96.378906 C 40.207031 95.945312 40.273438 95.359375 40.34375 94.765625 C 40.421875 94.164062 40.535156 93.554688 40.625 93.054688 C 40.710938 92.558594 40.820312 92.183594 40.894531 92.046875 C 40.972656 91.914062 41.015625 92.027344 41.011719 92.507812 C 41.011719 92.507812 40.90625 93.511719 40.796875 94.519531 C 40.742188 95.527344 40.683594 96.539062 40.683594 96.539062 C 41.007812 95.476562 40.996094 96.953125 41.210938 96.726562 C 41.210938 96.726562 41.292969 96 41.421875 94.90625 C 41.484375 94.363281 41.609375 93.734375 41.714844 93.058594 C 41.820312 92.382812 42.007812 91.671875 42.152344 90.960938 C 42.316406 90.253906 42.527344 89.550781 42.699219 88.894531 C 42.898438 88.242188 43.109375 87.640625 43.273438 87.125 C 43.441406 86.605469 43.625 86.191406 43.730469 85.894531 C 43.84375 85.597656 43.90625 85.425781 43.90625 85.425781 C 43.625 85.808594 43.003906 87.371094 43.054688 86.738281 C 43.277344 85.988281 43.453125 85.464844 43.605469 85.0625 C 43.761719 84.660156 43.914062 84.382812 44.050781 84.105469 C 44.1875 83.835938 44.324219 83.5625 44.476562 83.191406 C 44.640625 82.816406 44.847656 82.351562 45.101562 81.660156 L 44.390625 82.761719 C 44.554688 82.574219 44.746094 82.210938 44.503906 82.804688 C 44.222656 83.800781 43.9375 84.167969 43.816406 84.132812 C 43.90625 83.054688 45.351562 80.421875 45.925781 79.738281 C 47.773438 76.410156 45.925781 78.832031 46.277344 78.066406 C 46.949219 77.304688 47.8125 75.960938 48.761719 74.609375 C 49.242188 73.941406 49.746094 73.273438 50.238281 72.664062 C 50.75 72.078125 51.210938 71.519531 51.664062 71.128906 C 51.664062 71.128906 51.347656 71.351562 51.050781 71.601562 C 50.75 71.847656 50.445312 72.09375 50.445312 72.09375 C 52.125 69.636719 54.308594 68.046875 55.6875 67.039062 C 55.6875 67.039062 55.515625 67.097656 55.355469 67.164062 C 55.195312 67.234375 55.035156 67.300781 55.035156 67.300781 C 56.625 66.007812 57.769531 64.964844 58.921875 64.125 C 59.5 63.710938 60.058594 63.3125 60.695312 63.015625 C 61.007812 62.855469 61.332031 62.710938 61.675781 62.578125 C 62.015625 62.441406 62.390625 62.351562 62.78125 62.253906 L 62.328125 62.324219 C 63.765625 61.441406 66.09375 60.296875 67.699219 59.972656 C 67.703125 59.875 67.9375 59.671875 68.582031 59.429688 C 69.539062 59.421875 71.148438 58.691406 73.597656 58.152344 C 73.1875 58.199219 72.90625 58.21875 72.691406 58.222656 C 72.472656 58.222656 72.320312 58.199219 72.160156 58.171875 C 71.851562 58.132812 71.515625 58.0625 70.648438 58.246094 C 71.570312 57.898438 72.265625 57.738281 72.828125 57.621094 C 73.394531 57.53125 73.832031 57.53125 74.246094 57.535156 C 75.078125 57.53125 75.835938 57.648438 77.441406 57.464844 C 78.40625 57.289062 77.96875 57.269531 77.226562 57.277344 C 76.484375 57.3125 75.4375 57.414062 75.195312 57.371094 C 77.707031 57.085938 80.289062 56.746094 82.679688 56.667969 C 82.980469 56.660156 83.273438 56.640625 83.566406 56.640625 C 83.855469 56.648438 84.144531 56.660156 84.425781 56.667969 C 84.984375 56.691406 85.527344 56.722656 86.046875 56.769531 C 87.074219 56.910156 88 57.132812 88.757812 57.433594 L 86.570312 57.367188 C 87.550781 57.59375 88.308594 57.742188 88.792969 57.832031 C 89.273438 57.945312 89.480469 57.96875 89.367188 57.910156 C 88.730469 57.792969 88.53125 57.695312 88.316406 57.59375 C 88.695312 57.613281 89.0625 57.671875 89.414062 57.734375 C 89.769531 57.796875 90.117188 57.859375 90.457031 57.917969 C 90.796875 57.988281 91.128906 58.046875 91.445312 58.128906 C 91.757812 58.222656 92.070312 58.3125 92.378906 58.402344 C 92.984375 58.597656 93.574219 58.753906 94.136719 58.992188 C 94.695312 59.226562 95.246094 59.457031 95.789062 59.6875 C 96.34375 59.90625 96.859375 60.210938 97.402344 60.472656 C 97.945312 60.742188 98.503906 61 99.046875 61.320312 C 99.605469 61.621094 100.179688 61.929688 100.785156 62.253906 C 101.378906 62.601562 102 62.953125 102.667969 63.308594 C 102.351562 62.960938 101.617188 62.492188 101.644531 62.367188 C 102.273438 62.679688 102.71875 62.953125 103.082031 63.242188 C 103.433594 63.542969 103.71875 63.835938 104.046875 64.152344 C 104.371094 64.472656 104.761719 64.785156 105.265625 65.230469 C 105.527344 65.441406 105.820312 65.671875 106.171875 65.929688 C 106.347656 66.050781 106.539062 66.183594 106.742188 66.324219 C 106.9375 66.472656 107.152344 66.628906 107.378906 66.796875 C 107.378906 66.796875 107.234375 66.625 107.09375 66.445312 C 106.953125 66.269531 106.796875 66.105469 106.796875 66.105469 C 108.027344 66.976562 108.71875 67.886719 108.527344 67.789062 C 108.671875 67.671875 109.167969 68.035156 109.890625 68.660156 C 110.636719 69.257812 111.503906 70.214844 112.464844 71.21875 C 112.914062 71.75 113.382812 72.292969 113.84375 72.835938 C 114.3125 73.382812 114.710938 73.9375 115.160156 74.472656 C 115.726562 75.183594 116.195312 75.847656 116.617188 76.371094 C 116.828125 76.632812 117.019531 76.859375 117.195312 77.046875 C 117.277344 77.144531 117.359375 77.226562 117.4375 77.300781 C 117.515625 77.347656 117.582031 77.527344 117.660156 77.300781 C 118.0625 76.941406 118.703125 76.28125 119.496094 75.410156 C 119.710938 75.191406 119.925781 74.96875 120.148438 74.738281 C 120.277344 74.609375 120.355469 74.539062 120.445312 74.445312 C 120.539062 74.359375 120.628906 74.269531 120.722656 74.175781 C 121.09375 73.820312 121.453125 73.429688 121.859375 73.082031 C 122.644531 72.378906 123.394531 71.652344 124.09375 71.078125 C 124.777344 70.488281 125.335938 69.972656 125.699219 69.648438 C 126.6875 68.640625 126.132812 68.929688 125.398438 69.363281 C 125.214844 69.472656 125.019531 69.585938 124.835938 69.695312 C 124.65625 69.8125 124.492188 69.921875 124.355469 70 C 124.085938 70.152344 123.933594 70.191406 124.074219 69.945312 C 125.789062 68.519531 126.910156 68.074219 129.632812 66.222656 C 129.6875 66.292969 129.394531 66.574219 129.003906 66.914062 C 128.632812 67.273438 128.171875 67.695312 127.871094 68 C 127.566406 68.3125 127.417969 68.503906 127.667969 68.421875 C 127.792969 68.378906 128.019531 68.265625 128.367188 68.066406 C 128.546875 67.960938 128.753906 67.835938 129 67.691406 C 129.121094 67.617188 129.25 67.535156 129.394531 67.449219 C 129.539062 67.367188 129.695312 67.285156 129.859375 67.195312 L 130.492188 66.589844 C 129.960938 66.933594 129.25 67.425781 128.507812 67.902344 C 127.714844 68.304688 127.902344 68.109375 128.316406 67.765625 C 128.527344 67.597656 128.796875 67.390625 129.027344 67.207031 C 129.257812 67.023438 129.476562 66.886719 129.542969 66.808594 C 129.542969 66.808594 129.902344 66.605469 130.441406 66.300781 C 130.707031 66.148438 131.015625 65.964844 131.355469 65.777344 C 131.699219 65.609375 132.070312 65.425781 132.4375 65.242188 C 132.804688 65.058594 133.171875 64.878906 133.519531 64.707031 C 133.875 64.554688 134.207031 64.417969 134.488281 64.296875 C 135.058594 64.054688 135.4375 63.894531 135.4375 63.894531 C 135.730469 63.980469 134.972656 64.394531 134.109375 64.820312 C 133.667969 65.019531 133.230469 65.28125 132.863281 65.480469 C 132.5 65.679688 132.222656 65.835938 132.144531 65.90625 C 134.378906 64.632812 136.957031 63.398438 139.621094 62.484375 C 142.28125 61.578125 145.023438 60.945312 147.445312 60.886719 L 146.980469 60.789062 C 147.75 60.742188 148.382812 60.691406 148.914062 60.6875 C 149.445312 60.667969 149.867188 60.640625 150.21875 60.601562 C 150.925781 60.515625 151.335938 60.464844 151.707031 60.394531 C 152.449219 60.28125 153.066406 60.117188 155.503906 60.640625 C 156.800781 60.738281 156.582031 60.617188 156.527344 60.511719 C 156.496094 60.460938 156.507812 60.414062 156.773438 60.414062 C 157.039062 60.425781 157.566406 60.421875 158.542969 60.605469 C 159.648438 60.800781 158.972656 60.828125 158.769531 60.84375 C 159.964844 61.070312 160.675781 61.257812 161.171875 61.34375 C 161.660156 61.4375 161.921875 61.441406 162.164062 61.484375 C 162.40625 61.519531 162.640625 61.558594 163.078125 61.6875 C 163.292969 61.753906 163.5625 61.839844 163.910156 61.957031 C 164.25 62.085938 164.664062 62.265625 165.179688 62.484375 L 164.390625 61.78125 C 166.921875 62.734375 169.359375 64.0625 171.578125 65.503906 C 173.796875 66.941406 175.796875 68.488281 177.621094 69.867188 C 177.609375 69.660156 177.054688 69.109375 176.382812 68.523438 C 175.695312 67.960938 174.921875 67.324219 174.496094 66.929688 C 176.980469 68.863281 179.839844 71.277344 182.34375 73.980469 C 184.828125 76.6875 186.917969 79.695312 188.15625 82.292969 C 187.601562 81.621094 187.820312 82.28125 187.878906 82.734375 C 187.914062 82.960938 187.914062 83.128906 187.796875 83.050781 C 187.734375 83.011719 187.644531 82.910156 187.511719 82.71875 C 187.371094 82.535156 187.179688 82.265625 186.933594 81.886719 C 186.882812 81.378906 186.585938 80.785156 186.144531 80.136719 C 185.925781 79.808594 185.695312 79.453125 185.425781 79.09375 C 185.160156 78.734375 184.882812 78.359375 184.609375 77.957031 C 185.183594 79.476562 187.0625 82.113281 188.417969 84.789062 C 189.8125 87.4375 190.753906 90.03125 190.496094 90.597656 L 191.027344 91.304688 C 191.136719 91.726562 191.238281 92.488281 191.265625 92.964844 C 191.296875 93.4375 191.25 93.617188 191.03125 92.894531 C 191.03125 92.894531 191.132812 93.273438 191.277344 93.828125 C 191.414062 94.390625 191.5625 95.152344 191.734375 95.910156 C 191.855469 96.675781 191.980469 97.441406 192.070312 98.011719 C 192.136719 98.59375 192.179688 98.980469 192.179688 98.980469 C 192.1875 98.703125 192.199219 98.394531 192.207031 98.050781 C 192.214844 97.714844 192.199219 97.347656 192.195312 96.960938 C 192.183594 96.578125 192.183594 96.175781 192.15625 95.769531 C 192.117188 95.367188 192.082031 94.953125 192.042969 94.550781 C 191.875 92.933594 191.535156 91.429688 191.15625 90.78125 C 191 88.957031 192.070312 93.210938 192.023438 91.582031 C 192.144531 92.644531 192.246094 93.332031 192.351562 93.835938 C 192.4375 94.339844 192.539062 94.65625 192.648438 94.980469 C 192.875 95.621094 193.160156 96.28125 193.320312 98.492188 C 193.011719 97.519531 192.941406 98.632812 192.914062 99.945312 C 192.871094 100.597656 192.828125 101.3125 192.792969 101.84375 C 192.753906 102.375 192.671875 102.730469 192.625 102.683594 C 192.75 104.105469 192.21875 107.246094 191.863281 108.425781 C 191.761719 109.050781 191.65625 109.886719 191.523438 110.832031 C 191.363281 111.769531 191.207031 112.835938 190.945312 113.9375 C 190.457031 116.140625 189.738281 118.5 188.902344 120.351562 C 189.617188 118.984375 190.550781 116.730469 190.777344 116.988281 C 190.003906 118.84375 189.207031 120.882812 189.367188 121.363281 C 190.179688 119.765625 190.5625 118.789062 190.726562 118.160156 C 190.902344 117.527344 190.886719 117.242188 190.859375 116.972656 C 190.824219 116.707031 190.773438 116.460938 190.867188 115.902344 C 190.914062 115.621094 191 115.265625 191.140625 114.789062 C 191.261719 114.308594 191.433594 113.707031 191.675781 112.941406 C 191.859375 112.578125 192.003906 112.195312 192.160156 111.777344 C 192.308594 111.351562 192.46875 110.90625 192.582031 110.382812 C 192.832031 109.347656 193.070312 108.089844 193.328125 106.433594 C 193.363281 107.972656 193.535156 107.316406 193.726562 107.976562 C 193.558594 108.480469 193.40625 109.015625 193.253906 109.582031 C 193.097656 110.152344 192.996094 110.757812 192.832031 111.378906 C 192.675781 112 192.554688 112.652344 192.386719 113.3125 C 192.214844 113.96875 192.070312 114.652344 191.882812 115.335938 C 191.160156 118.070312 190.179688 120.914062 188.894531 123.285156 C 188.308594 124.257812 188.078125 124.300781 187.714844 124.675781 C 187.539062 124.867188 187.308594 125.128906 186.984375 125.625 C 186.660156 126.125 186.242188 126.859375 185.605469 127.957031 C 185.605469 127.957031 185.722656 127.710938 185.898438 127.335938 C 186.074219 126.96875 186.300781 126.476562 186.511719 125.976562 C 186.726562 125.476562 186.945312 124.976562 187.109375 124.605469 C 187.261719 124.226562 187.359375 123.972656 187.359375 123.972656 C 186.429688 126.167969 186.214844 126.382812 186.058594 126.496094 C 185.894531 126.605469 185.726562 126.601562 184.746094 128.304688 L 185.730469 127.0625 C 185.179688 128.132812 184.78125 128.855469 184.402344 129.429688 C 184.023438 130.011719 183.707031 130.464844 183.265625 130.980469 C 183.265625 130.980469 183.351562 130.882812 183.484375 130.738281 C 183.621094 130.597656 183.796875 130.410156 183.96875 130.214844 L 184.660156 129.433594 C 184.070312 130.597656 182.8125 132.667969 182.59375 132.5625 C 182.492188 132.894531 182.5 133.039062 182.558594 133.078125 C 182.351562 133.25 181.996094 133.75 181.140625 135.019531 C 181.699219 134.3125 182.015625 133.746094 182.128906 133.804688 C 180.464844 136.199219 180.335938 136.527344 180.40625 136.652344 C 180.460938 136.773438 180.691406 136.675781 179.605469 138.132812 C 180.015625 137.722656 179.519531 138.640625 178.761719 139.703125 C 178.644531 139.589844 178.277344 139.859375 177.773438 140.34375 C 177.269531 140.828125 176.609375 141.515625 175.917969 142.257812 C 174.523438 143.734375 172.960938 145.382812 172.195312 145.976562 L 172.21875 145.960938 L 170.488281 147.691406 C 169.613281 148.546875 168.734375 149.402344 168.734375 149.402344 C 169.457031 148.71875 168.847656 149.613281 167.917969 150.691406 L 168.074219 150.519531 C 167.578125 151.121094 168.023438 150.90625 168.171875 150.953125 C 168.324219 150.996094 168.191406 151.304688 166.480469 152.902344 C 166.480469 152.902344 166.015625 153.3125 165.542969 153.707031 L 164.601562 154.503906 C 164.933594 154.214844 164.699219 154.582031 164.570312 154.78125 L 162.628906 156.410156 C 160.230469 159.53125 157.039062 161.136719 153.773438 164.324219 C 154.742188 163.429688 156.285156 162.148438 155.765625 162.859375 C 155.148438 163.5 154.082031 164.308594 153.503906 164.6875 L 153.722656 164.589844 C 153.722656 164.589844 152.003906 165.921875 150.257812 167.21875 C 148.515625 168.523438 146.746094 169.789062 146.746094 169.789062 C 147.445312 169.539062 151.230469 166.476562 149.699219 168.042969 C 148.886719 169.085938 146.742188 170.402344 145.492188 171.34375 C 145.546875 171.085938 147.714844 169.1875 145.371094 170.910156 C 145.144531 171.199219 143.0625 173.03125 144.171875 172.328125 C 141.707031 174.015625 138.164062 176.507812 135.820312 177.804688 C 135.175781 178.359375 136.296875 177.640625 136.671875 177.402344 L 136.816406 177.238281 C 138.320312 176.257812 137.304688 177.441406 140.035156 175.199219 C 140.613281 175.480469 136.042969 178.355469 133.546875 180.179688 C 133.546875 180.179688 134.605469 179.542969 135.667969 178.910156 C 136.730469 178.265625 137.785156 177.621094 137.785156 177.621094 C 134.644531 180.378906 130.613281 183.167969 126.472656 185.757812 C 122.335938 188.355469 118.097656 190.757812 114.550781 192.851562 C 116.539062 191.46875 118.34375 190.542969 117.867188 190.320312 C 114.476562 192.226562 114.3125 192.320312 111.8125 193.722656 C 111.625 193.578125 111.304688 193.335938 110.910156 193.042969 C 110.910156 193.042969 110.992188 193.105469 111.082031 193.175781 C 111.125 193.214844 111.171875 193.257812 111.171875 193.257812 C 111.128906 193.234375 111.097656 193.21875 111.035156 193.183594 L 110.824219 193.050781 C 110.683594 192.957031 110.535156 192.859375 110.386719 192.761719 C 110.097656 192.5625 109.804688 192.351562 109.507812 192.128906 C 108.917969 191.691406 108.328125 191.230469 107.757812 190.785156 C 106.621094 189.894531 105.570312 189.074219 104.765625 188.703125 C 105.519531 189.59375 107.878906 190.789062 107.636719 191.21875 C 107.636719 191.21875 106.363281 190.234375 105.085938 189.257812 C 103.816406 188.261719 102.554688 187.269531 102.554688 187.269531 C 103.964844 188.75 107.625 191.238281 109.570312 192.730469 C 111.007812 193.765625 106.746094 190.5625 107.617188 190.800781 C 108.695312 191.617188 109.589844 192.296875 110.335938 192.882812 C 110.527344 193.027344 110.703125 193.167969 110.878906 193.300781 C 110.9375 193.355469 111 193.40625 111.058594 193.453125 C 111.109375 193.5 111.164062 193.539062 111.210938 193.585938 C 111.421875 193.769531 111.617188 193.933594 111.792969 194.089844 C 112.0625 193.988281 112.308594 193.894531 112.542969 193.804688 C 112.675781 193.75 112.769531 193.71875 112.941406 193.648438 C 113.109375 193.578125 113.273438 193.511719 113.4375 193.445312 C 114.097656 193.179688 114.75 192.921875 115.507812 192.613281 C 116.371094 192.296875 115.855469 192.714844 114.996094 193.269531 C 114.140625 193.832031 112.945312 194.535156 112.417969 194.832031 C 112.203125 194.921875 111.984375 195.011719 111.746094 195.109375 C 108.878906 192.558594 104.8125 189.253906 100.292969 185.917969 L 97.511719 184.148438 C 95.445312 182.007812 96.816406 182.320312 92.699219 178.941406 L 93.742188 180.175781 C 92.78125 179.503906 92.175781 179.027344 91.746094 178.660156 C 93.367188 180.300781 95.113281 182.066406 96.578125 183.546875 C 93.851562 182.058594 90.054688 177.726562 86.816406 174.664062 C 86.941406 174.871094 88.089844 175.921875 88.34375 176.34375 C 83.246094 172.035156 78.652344 166.730469 75.117188 163.015625 C 74.269531 162.328125 74.984375 163.121094 75.796875 164.015625 C 76.613281 164.90625 77.515625 165.90625 77.011719 165.664062 C 75.183594 163.664062 72.824219 161.695312 72.570312 160.941406 C 73.027344 162.144531 68.261719 156.453125 71.496094 160.53125 C 64.589844 153.617188 57.964844 145.050781 52.78125 136.691406 C 52.925781 137.171875 52.824219 137.238281 52.511719 136.949219 C 53.4375 138.335938 54.578125 140.054688 55.621094 141.613281 C 56.65625 143.179688 57.585938 144.597656 58.019531 145.433594 C 57.246094 144.648438 56.539062 143.542969 55.953125 142.605469 C 55.382812 141.652344 54.941406 140.855469 54.695312 140.640625 C 54.976562 141.128906 55.441406 141.828125 55.816406 142.425781 C 56.199219 143.015625 56.492188 143.503906 56.40625 143.589844 C 54.464844 141.449219 53.863281 139.902344 52.769531 138.207031 C 52.769531 138.207031 52.945312 138.417969 53.125 138.625 C 53.304688 138.835938 53.488281 139.042969 53.488281 139.042969 C 51.851562 136.355469 51.585938 135.496094 51.222656 134.648438 C 51.039062 134.222656 50.851562 133.789062 50.480469 133.117188 C 50.101562 132.445312 49.566406 131.519531 48.707031 130.101562 C 47.28125 128.140625 48.503906 130.238281 48.207031 130.460938 C 47.890625 129.734375 47.015625 128.320312 46.230469 126.847656 C 45.4375 125.378906 44.71875 123.859375 44.5625 123.035156 C 44.5625 123.035156 44.671875 123.261719 44.828125 123.605469 C 44.988281 123.949219 45.203125 124.40625 45.433594 124.855469 C 45.660156 125.304688 45.882812 125.757812 46.050781 126.097656 C 46.21875 126.433594 46.339844 126.652344 46.339844 126.652344 C 45.148438 124.097656 44.074219 121.648438 43.460938 119.792969 C 43.457031 120.011719 43.445312 120.195312 43.648438 120.753906 C 42.894531 118.644531 41.898438 115.941406 41.820312 114.769531 L 41.257812 114.28125 C 41.539062 114.898438 41.976562 116.15625 42.410156 117.328125 C 42.820312 118.515625 43.230469 119.605469 43.238281 119.964844 C 43.019531 119.847656 42.558594 118.828125 42.136719 117.613281 C 41.933594 117.003906 41.703125 116.359375 41.523438 115.746094 C 41.34375 115.136719 41.175781 114.574219 41.035156 114.148438 C 41.582031 116.035156 42.015625 117.445312 42.382812 118.613281 C 42.5625 119.191406 42.730469 119.714844 42.882812 120.199219 C 43.042969 120.679688 43.191406 121.125 43.335938 121.566406 C 43.933594 123.3125 44.550781 124.90625 46.199219 127.804688 L 45.789062 126.753906 C 47.933594 130.296875 49.6875 134.199219 51.714844 137.222656 C 51.082031 136.417969 50.859375 136.308594 51.058594 136.753906 C 55.71875 143.300781 60.414062 149.65625 66.648438 156.324219 L 68.214844 158.613281 L 68.546875 158.539062 C 71.6875 161.710938 68.902344 159.53125 70.898438 161.605469 C 70.140625 160.808594 70.316406 160.921875 70.214844 160.707031 C 73.5625 164.6875 72.410156 162.597656 74.375 164.734375 C 73.621094 163.539062 70.542969 160.644531 71.746094 161.285156 C 73.40625 163.265625 75.707031 165.628906 77.621094 167.601562 C 79.535156 169.574219 81.050781 171.167969 81.085938 171.6875 C 84.6875 174.863281 88.671875 178.457031 92.582031 181.863281 C 96.488281 185.265625 100.304688 188.480469 103.492188 190.964844 C 104.441406 191.535156 103.003906 190.46875 103.402344 190.648438 C 104.238281 191.484375 105.640625 192.554688 107.074219 193.570312 C 107.792969 194.074219 108.519531 194.574219 109.191406 195.023438 C 110.128906 195.660156 110.984375 196.238281 111.664062 196.703125 C 112.792969 196.058594 113.503906 195.675781 113.566406 195.75 C 113.691406 195.671875 113.8125 195.59375 113.929688 195.515625 C 114.003906 195.464844 114.074219 195.417969 114.140625 195.367188 C 114.277344 195.269531 114.402344 195.175781 114.515625 195.082031 C 114.738281 194.90625 114.921875 194.746094 115.074219 194.597656 C 115.375 194.3125 115.558594 194.101562 115.710938 193.949219 C 117.5625 193.054688 119.695312 191.847656 121.929688 190.503906 L 120.257812 191.429688 L 120.410156 191.277344 L 122.769531 189.960938 L 122.699219 190.03125 C 128.226562 186.65625 134.351562 182.371094 139.328125 179.21875 C 136.449219 181.011719 139.761719 178.367188 138.382812 179.183594 C 139.757812 178.542969 141.898438 177.167969 144.242188 175.472656 C 146.585938 173.78125 149.132812 171.765625 151.371094 169.90625 C 151.269531 169.824219 151.558594 169.464844 150.96875 169.820312 C 150.96875 169.820312 151.660156 169.332031 152.347656 168.84375 C 153.035156 168.355469 153.722656 167.859375 153.722656 167.859375 L 153.285156 168.039062 C 157.863281 164.113281 163.160156 160.144531 165.828125 157.144531 C 164.007812 158.8125 163.902344 158.722656 163.589844 158.75 C 166.75 155.789062 169.636719 152.898438 173.175781 149.265625 C 172.96875 149.445312 172.820312 149.546875 172.785156 149.523438 C 173.632812 148.5 174.804688 147.40625 175.738281 146.410156 L 175.636719 146.082031 C 177.429688 144.199219 179.414062 141.492188 181.425781 139.132812 C 181.65625 138.554688 182.824219 137.082031 184.101562 135.320312 C 185.40625 133.578125 186.777344 131.503906 187.605469 129.90625 C 188.339844 128.742188 185.84375 132.351562 187.742188 129 C 188.152344 128.910156 188.761719 127.8125 189.316406 126.714844 C 189.601562 126.175781 189.867188 125.632812 190.105469 125.222656 C 190.347656 124.816406 190.574219 124.542969 190.765625 124.546875 C 190.765625 124.546875 190.835938 124.347656 190.949219 124.050781 C 191.054688 123.746094 191.191406 123.339844 191.335938 122.9375 C 191.46875 122.53125 191.601562 122.125 191.710938 121.828125 C 191.800781 121.515625 191.863281 121.3125 191.863281 121.3125 L 192.449219 120.730469 C 192.570312 119.996094 192.71875 119.371094 192.910156 118.777344 C 193.097656 118.191406 193.347656 117.644531 193.578125 117.039062 C 193.8125 116.433594 194.113281 115.800781 194.339844 115.027344 C 194.582031 114.257812 194.828125 113.375 194.980469 112.285156 C 194.863281 112.496094 194.746094 112.953125 194.742188 112.722656 C 194.824219 112.375 194.9375 111.921875 195.046875 111.46875 C 195.136719 111.019531 195.226562 110.574219 195.296875 110.25 C 195.433594 109.59375 195.515625 109.421875 195.417969 110.671875 C 195.503906 110.101562 195.65625 109.199219 195.792969 108.183594 C 195.859375 107.683594 195.949219 107.164062 195.996094 106.648438 C 196.035156 106.132812 196.078125 105.625 196.113281 105.167969 C 196.199219 104.25 196.171875 103.503906 196.148438 103.222656 C 196.121094 102.9375 196.058594 103.117188 195.945312 104.007812 C 195.996094 103.941406 196.019531 104.097656 196.023438 104.398438 C 196.015625 104.6875 195.976562 105.113281 195.925781 105.59375 C 195.867188 106.070312 195.824219 106.605469 195.734375 107.09375 C 195.644531 107.589844 195.5625 108.046875 195.496094 108.394531 C 195.351562 108.277344 195.464844 107.375 195.503906 106.375 C 195.527344 105.367188 195.582031 104.28125 195.414062 103.839844 C 195.449219 103.730469 195.507812 103.273438 195.566406 102.9375 L 195.394531 102.441406 C 195.546875 100.269531 195.464844 98.058594 195.1875 96.027344 C 195.140625 95.515625 195.058594 95.019531 194.980469 94.53125 C 194.90625 94.046875 194.839844 93.570312 194.769531 93.109375 C 194.683594 92.648438 194.609375 92.203125 194.542969 91.769531 C 194.484375 91.335938 194.421875 90.917969 194.359375 90.519531 C 194.289062 90.445312 194.183594 90.226562 194.046875 89.847656 C 193.921875 89.460938 193.742188 88.925781 193.511719 88.207031 L 193.839844 88.03125 C 193.839844 88.03125 193.742188 87.753906 193.601562 87.332031 C 193.46875 86.914062 193.246094 86.375 193.03125 85.824219 C 192.820312 85.277344 192.601562 84.730469 192.417969 84.335938 C 192.230469 83.933594 192.109375 83.664062 192.109375 83.664062 L 192.316406 84.773438 C 192.40625 85.328125 192.476562 85.882812 192.476562 85.882812 C 192.355469 85.589844 192.238281 85.300781 192.121094 85.019531 C 191.996094 84.738281 191.875 84.460938 191.75 84.195312 C 191.511719 83.648438 191.304688 83.113281 191.058594 82.609375 C 190.828125 82.101562 190.609375 81.601562 190.382812 81.113281 C 190.152344 80.636719 189.925781 80.167969 189.695312 79.699219 C 188.769531 77.855469 187.824219 76.113281 186.53125 74.433594 C 186.242188 74.3125 185.796875 73.835938 185.207031 73.191406 C 184.90625 72.867188 184.601562 72.476562 184.238281 72.082031 C 183.878906 71.683594 183.492188 71.257812 183.09375 70.816406 C 181.472656 69.074219 179.421875 67.273438 177.792969 66.410156 C 177.792969 66.410156 177.957031 66.535156 178.191406 66.734375 C 178.425781 66.941406 178.734375 67.210938 179.042969 67.480469 C 179.667969 68.011719 180.253906 68.589844 180.253906 68.589844 C 177.621094 66.277344 175.847656 65.25 174.15625 64.257812 C 173.289062 63.789062 172.445312 63.3125 171.429688 62.816406 C 171.179688 62.691406 170.917969 62.554688 170.648438 62.414062 C 170.371094 62.285156 170.085938 62.152344 169.78125 62.011719 C 169.480469 61.867188 169.164062 61.71875 168.832031 61.558594 C 168.496094 61.398438 168.136719 61.257812 167.765625 61.09375 C 170.371094 62.03125 171.621094 62.675781 173.148438 63.453125 C 173.523438 63.652344 173.921875 63.863281 174.359375 64.09375 C 174.800781 64.324219 175.261719 64.609375 175.796875 64.910156 C 176.339844 65.207031 176.917969 65.582031 177.585938 66.007812 C 178.265625 66.414062 178.980469 66.945312 179.824219 67.523438 C 176.558594 65.054688 173.59375 63.117188 170.484375 61.59375 C 167.386719 60.074219 164.167969 58.90625 160.457031 58.308594 C 160.917969 58.5625 162.71875 59.074219 160.90625 58.8125 C 160.570312 58.644531 159.96875 58.496094 159.273438 58.355469 C 158.925781 58.285156 158.554688 58.214844 158.183594 58.144531 C 157.804688 58.097656 157.433594 58.046875 157.074219 58 C 156.359375 57.902344 155.730469 57.824219 155.339844 57.78125 C 154.957031 57.726562 154.816406 57.667969 155.101562 57.59375 C 154.519531 57.582031 154.054688 57.59375 153.671875 57.617188 C 153.28125 57.65625 152.964844 57.707031 152.679688 57.757812 C 152.113281 57.855469 151.660156 57.945312 150.957031 57.960938 C 150.957031 57.960938 150.835938 57.945312 150.625 57.945312 C 150.414062 57.945312 150.109375 57.941406 149.746094 57.933594 C 149.027344 57.933594 148.050781 57.882812 147.082031 57.957031 C 146.113281 58.007812 145.136719 58.039062 144.414062 58.144531 C 143.6875 58.226562 143.199219 58.28125 143.199219 58.28125 L 143.449219 58.3125 C 140.230469 59.117188 137.207031 60.109375 134.320312 61.304688 C 131.425781 62.492188 128.691406 63.925781 126.101562 65.601562 C 123.511719 67.28125 121.066406 69.21875 118.839844 71.46875 L 118.027344 72.335938 L 117.921875 72.445312 L 117.875 72.5 L 117.867188 72.507812 L 117.863281 72.503906 L 117.859375 72.492188 L 117.828125 72.503906 L 117.800781 72.492188 L 117.792969 72.492188 L 117.792969 72.5 L 117.789062 72.503906 L 117.769531 72.480469 C 117.519531 72.15625 117.265625 71.828125 117.011719 71.496094 L 117.003906 71.820312 C 117.003906 71.820312 116.582031 71.097656 116.089844 70.425781 C 115.609375 69.738281 115.128906 69.050781 115.128906 69.050781 C 115.898438 70.117188 115.664062 69.9375 115.214844 69.488281 C 114.777344 69.023438 114.035156 68.371094 113.914062 68.351562 C 113.914062 68.351562 113.566406 67.945312 113.046875 67.339844 C 112.515625 66.746094 111.769531 65.988281 111.027344 65.21875 C 110.242188 64.5 109.472656 63.753906 108.851562 63.238281 C 108.234375 62.730469 107.820312 62.390625 107.820312 62.390625 C 107.695312 62.402344 107.671875 62.5625 107.898438 62.867188 C 108.007812 63.015625 108.1875 63.203125 108.4375 63.425781 C 108.5625 63.539062 108.714844 63.65625 108.878906 63.789062 C 109.039062 63.929688 109.21875 64.078125 109.421875 64.238281 " fill-opacity="1" fill-rule="nonzero"/><path fill="#231f1f" d="M 75.320312 57.847656 C 74.542969 57.996094 74.027344 58.097656 73.597656 58.152344 C 74.140625 58.046875 74.710938 57.917969 75.320312 57.847656 " fill-opacity="1" fill-rule="nonzero"/><path fill="#231f1f" d="M 192.507812 101.957031 C 192.582031 102.03125 192.609375 102.308594 192.621094 102.683594 C 192.578125 102.636719 192.558594 102.453125 192.507812 101.957031 " fill-opacity="1" fill-rule="nonzero"/><path fill="#231f1f" d="M 191.894531 108.195312 C 191.882812 108.273438 191.875 108.359375 191.859375 108.425781 C 191.847656 108.484375 191.824219 108.558594 191.8125 108.617188 L 191.894531 108.195312 " fill-opacity="1" fill-rule="nonzero"/><path fill="#231f1f" d="M 44.007812 119.785156 C 43.910156 119.089844 44.035156 119.398438 44.25 119.996094 C 44.476562 120.59375 44.785156 121.5 45.003906 122.003906 C 44.570312 120.992188 44.199219 120.679688 44.007812 119.785156 " fill-opacity="1" fill-rule="nonzero"/><path fill="#231f1f" d="M 47.238281 127.894531 C 47.027344 127.265625 46.625 126.421875 46.152344 125.375 C 46.472656 126.019531 46.808594 126.722656 47.238281 127.894531 " fill-opacity="1" fill-rule="nonzero"/><path fill="#231f1f" d="M 44.273438 121.417969 C 45.003906 122.953125 45.636719 124.289062 46.152344 125.375 C 45.648438 124.375 45.117188 123.574219 44.273438 121.417969 " fill-opacity="1" fill-rule="nonzero"/><path fill="#231f1f" d="M 60.425781 147.378906 C 59.707031 146.191406 58.023438 144.164062 58.023438 144.164062 C 61.683594 148.601562 57.59375 143.03125 57.453125 142.546875 C 59.542969 145.4375 59.382812 145.59375 60.425781 147.378906 " fill-opacity="1" fill-rule="nonzero"/><path fill="#231f1f" d="M 65.242188 153.296875 C 64.855469 152.851562 64.480469 152.429688 64.171875 152.113281 C 64.574219 152.5 64.917969 152.898438 65.242188 153.296875 " fill-opacity="1" fill-rule="nonzero"/><path fill="#231f1f" d="M 66.804688 154.78125 C 68.101562 156.296875 68.410156 156.960938 68.90625 157.75 C 67.152344 156.074219 66.386719 154.683594 65.242188 153.296875 C 66.179688 154.355469 67.085938 155.402344 66.804688 154.78125 " fill-opacity="1" fill-rule="nonzero"/><path fill="#231f1f" d="M 112.242188 193.265625 C 112.136719 193.308594 111.964844 193.40625 111.828125 193.460938 C 111.699219 193.355469 111.613281 193.253906 111.625 193.1875 L 111.832031 193.332031 L 113.378906 192.433594 C 113.972656 192.125 113.753906 192.289062 113.324219 192.570312 C 113.101562 192.710938 112.835938 192.882812 112.582031 193.042969 C 112.445312 193.132812 112.320312 193.214844 112.242188 193.265625 " fill-opacity="1" fill-rule="nonzero"/><path fill="#231f1f" d="M 122.734375 187.539062 C 124.984375 186.113281 123.648438 186.601562 124.816406 185.925781 L 124.914062 186.359375 L 122.734375 187.539062 " fill-opacity="1" fill-rule="nonzero"/><path fill="#231f1f" d="M 122.613281 190.117188 L 121.925781 190.503906 C 122.175781 190.351562 122.425781 190.199219 122.695312 190.03125 L 122.613281 190.117188 " fill-opacity="1" fill-rule="nonzero"/><path fill="#231f1f" d="M 133.148438 180.0625 L 131.375 180.734375 C 133.273438 179.558594 133.511719 179.835938 133.148438 180.0625 " fill-opacity="1" fill-rule="nonzero"/><path fill="#231f1f" d="M 141.171875 173.859375 L 139.835938 174.675781 C 139.835938 174.675781 140.835938 173.976562 141.832031 173.273438 L 143.8125 171.84375 L 141.171875 173.859375 " fill-opacity="1" fill-rule="nonzero"/><path fill="#231f1f" d="M 150.90625 166.480469 L 151.171875 166.128906 C 151.171875 166.128906 151.835938 165.617188 152.492188 165.101562 C 153.148438 164.582031 153.808594 164.066406 153.808594 164.066406 C 153.808594 164.066406 153.085938 164.667969 152.359375 165.277344 L 150.90625 166.480469 " fill-opacity="1" fill-rule="nonzero"/><path fill="#231f1f" d="M 164.050781 62.625 C 163.957031 62.492188 164.199219 62.503906 164.636719 62.609375 C 165.070312 62.722656 165.71875 62.886719 166.390625 63.15625 C 167.757812 63.644531 169.300781 64.375 170.007812 64.679688 C 169.71875 64.660156 169.34375 64.539062 168.902344 64.363281 C 168.460938 64.1875 167.96875 63.917969 167.425781 63.683594 C 166.882812 63.449219 166.3125 63.195312 165.742188 62.992188 C 165.15625 62.816406 164.582031 62.671875 164.050781 62.625 " fill-opacity="1" fill-rule="nonzero"/><path fill="#231f1f" d="M 79.835938 57.257812 C 79.835938 57.257812 80.148438 57.253906 80.621094 57.25 C 80.851562 57.25 81.128906 57.242188 81.425781 57.25 C 81.71875 57.261719 82.03125 57.273438 82.339844 57.289062 C 82.96875 57.3125 83.59375 57.335938 84.058594 57.394531 C 84.527344 57.441406 84.835938 57.472656 84.835938 57.472656 C 83.867188 57.433594 83.320312 57.398438 82.972656 57.410156 C 82.632812 57.410156 82.492188 57.398438 82.359375 57.378906 C 82.082031 57.355469 81.804688 57.234375 79.835938 57.257812 " fill-opacity="1" fill-rule="nonzero"/></svg>