<svg xmlns="http://www.w3.org/2000/svg" xmlns:xlink="http://www.w3.org/1999/xlink" width="311" zoomAndPan="magnify" viewBox="0 0 233.25 233.249995" height="311" preserveAspectRatio="xMidYMid meet" version="1.0"><defs><clipPath id="id1"><path d="M 0 0 L 232.503906 0 L 232.503906 232.503906 L 0 232.503906 Z M 0 0 " clip-rule="nonzero"/></clipPath><clipPath id="id2"><path d="M 16.390625 37.832031 L 173 37.832031 L 173 210 L 16.390625 210 Z M 16.390625 37.832031 " clip-rule="nonzero"/></clipPath><clipPath id="id3"><path d="M 16.390625 61 L 122 61 L 122 160 L 16.390625 160 Z M 16.390625 61 " clip-rule="nonzero"/></clipPath><clipPath id="id4"><path d="M 71 37.832031 L 232.445312 37.832031 L 232.445312 216 L 71 216 Z M 71 37.832031 " clip-rule="nonzero"/></clipPath></defs><g clip-path="url(#id1)"><path fill="#f9b457" d="M 0 0 L 232.503906 0 L 232.503906 232.503906 L 0 232.503906 Z M 0 0 " fill-opacity="1" fill-rule="nonzero"/><path fill="#ffffff" d="M 0 0 L 232.503906 0 L 232.503906 232.503906 L 0 232.503906 Z M 0 0 " fill-opacity="1" fill-rule="nonzero"/><path fill="#f9b457" d="M 0 0 L 232.503906 0 L 232.503906 232.503906 L 0 232.503906 Z M 0 0 " fill-opacity="1" fill-rule="nonzero"/></g><path fill="#ffeeaa" d="M 22.773438 53.703125 C 25.761719 234.84375 156.144531 235.367188 152 53.703125 C 120.480469 77.359375 59.023438 75.78125 22.773438 53.703125 Z M 22.773438 53.703125 " fill-opacity="1" fill-rule="nonzero"/><g clip-path="url(#id2)"><path stroke-linecap="butt" transform="matrix(0.551562, 0, 0, 0.551916, -113.638972, -61.491218)" fill="none" stroke-linejoin="miter" d="M 247.320235 208.717248 C 252.738088 536.920628 489.126463 537.869029 481.61229 208.717248 C 424.466332 251.579312 313.04269 248.719954 247.320235 208.717248 Z M 247.320235 208.717248 " stroke="#000000" stroke-width="6.432" stroke-opacity="1" stroke-miterlimit="4"/></g><path stroke-linecap="butt" transform="matrix(0.551562, 0, 0, 0.551916, -113.638972, -61.491218)" fill-opacity="1" fill="#ffeeaa" fill-rule="nonzero" stroke-linejoin="miter" d="M 319.898222 369.917114 C 326.562536 424.924374 410.535721 417.280545 413.205696 369.917114 " stroke="#000000" stroke-width="6.432" stroke-opacity="1" stroke-miterlimit="4"/><path fill="#ffeeaa" d="M 101.769531 128.695312 C 103.789062 143.039062 68.683594 144.878906 73.097656 122.074219 C 76.628906 103.800781 52.511719 81.613281 25.308594 81.613281 " fill-opacity="1" fill-rule="nonzero"/><g clip-path="url(#id3)"><path stroke-linecap="butt" transform="matrix(0.551562, 0, 0, 0.551916, -113.638972, -61.491218)" fill="none" stroke-linejoin="miter" d="M 390.54278 344.593391 C 394.204257 370.58241 330.556875 373.915969 338.559717 332.596825 C 344.961991 299.48772 301.236728 259.28684 251.916557 259.28684 " stroke="#000000" stroke-width="6.432" stroke-opacity="1" stroke-miterlimit="4"/></g><path fill="#ffeeaa" d="M 104.722656 43.359375 C 51.25 216.441406 175.003906 257.527344 227.535156 83.585938 C 190.226562 96.253906 132.308594 75.625 104.722656 43.359375 Z M 104.722656 43.359375 " fill-opacity="1" fill-rule="nonzero"/><g clip-path="url(#id4)"><path stroke-linecap="butt" transform="matrix(0.524196, 0.171687, -0.171577, 0.524533, 10.888517, -108.581748)" fill="none" stroke-linejoin="miter" d="M 247.321907 208.717532 C 252.737894 536.918549 489.13301 537.871739 481.610537 208.721841 C 424.464825 251.577397 313.04048 248.719998 247.321907 208.717532 Z M 247.321907 208.717532 " stroke="#000000" stroke-width="6.432" stroke-opacity="1" stroke-miterlimit="4"/></g><path stroke-linecap="butt" transform="matrix(0.524196, 0.171687, -0.171577, 0.524533, 10.888517, -108.581748)" fill-opacity="1" fill="#ffeeaa" fill-rule="nonzero" stroke-linejoin="miter" d="M 319.89968 369.918087 C 326.562033 424.923719 410.538026 417.276279 413.204869 369.918558 " stroke="#000000" stroke-width="6.432" stroke-opacity="1" stroke-miterlimit="4"/><path stroke-linecap="butt" transform="matrix(0.524196, 0.171687, -0.171577, 0.524533, 10.888517, -108.581748)" fill-opacity="1" fill="#ffeeaa" fill-rule="nonzero" stroke-linejoin="miter" d="M 390.540453 344.592023 C 394.203732 370.582358 330.559491 373.91332 338.555929 332.593372 C 344.963219 299.486433 301.237335 259.285728 251.91979 259.282733 " stroke="#000000" stroke-width="6.432" stroke-opacity="1" stroke-miterlimit="4"/></svg>